<svg width="454" height="354" viewBox="0 0 454 354" fill="none" xmlns="http://www.w3.org/2000/svg">
<path d="M221.31 354C219.687 347.215 223.646 331.317 252.465 322.011L328.406 297.778L278.752 130.08L386.822 101L410.188 171.762L454 315.226V354H397.531V337.521L364.429 354H221.31Z" fill="#FED753"/>
<path d="M4.30796 281.473L0 277.156C6.31834 268.81 19.8166 250.563 23.263 244.346C27.5709 236.576 42.218 207.22 44.8028 200.312C46.8706 194.786 53.8367 180.06 57.7266 168.366C59.4498 163.185 62.1208 156.105 62.8962 154.551C63.6716 152.997 74.0969 138.146 87.0208 129.512C97.3599 122.605 119.474 128.361 129.239 132.102L192.135 0L249 88.0683L223.152 134.693L197.305 184.771C192.135 195.995 180.934 220.516 177.488 228.805C173.18 239.166 157.671 288.38 155.948 299.605C154.57 308.584 160.543 316.585 163.702 319.463C167.149 320.902 175.592 324.644 181.796 328.098C187.999 331.551 188.976 335.868 188.689 337.595L174.042 354C154.799 353.712 113.73 352.964 103.391 352.273C93.0519 351.582 88.1695 338.171 87.0208 331.551V303.059C87.308 294.424 88.227 272.148 89.6055 252.117C91.3287 227.078 82.2707 218.444 74.0969 218.444C68.0657 218.444 50.2595 229.668 42.218 236.576L4.30796 281.473Z" fill="#FED753"/>
</svg>
