<svg width="297" height="215" viewBox="0 0 297 215" fill="none" xmlns="http://www.w3.org/2000/svg">
<path d="M248.25 180.2L249.6 182C254.1 182 257.7 179.3 285.6 155.45L291 155.9L296.85 166.7C262.65 199.55 242.4 214.4 232.95 214.4C223.95 214.4 219 209.9 219 201.35C219 174.35 255.9 91.1 255.9 60.5C255.9 49.7 249.6 42.05 240.6 42.05C221.25 42.05 185.25 95.6 152.4 173.45L147 202.7C146.55 205.4 126.3 213.05 119.1 213.05L115.95 209C115.95 209 146.1 77.15 146.1 60.5C146.1 49.7 139.8 42.05 130.8 42.05C112.8 42.05 79.95 91.55 49.8 164.45L44.85 202.7C44.4 205.4 24.15 213.05 16.95 213.05L13.8 209C13.8 209 38.55 57.8 38.55 43.4C38.55 30.8 33.15 25.4 19.2 25.4H0.75L3.9 8.3C31.35 8.3 76.8 5.59999 76.8 5.59999L80.85 11C80.85 11 61.95 65.45 53.4 118.1L54.75 119.45C85.35 58.25 116.85 16.4 144.3 0.199993C163.2 0.199993 178.95 19.1 178.95 42.05C178.95 57.35 160.5 118.1 160.5 118.1L161.85 119.45C191.55 60.95 225.75 17.3 255 0.199993C273.9 0.199993 288.3 18.2 288.3 42.05C288.3 74 257.25 141.95 248.25 180.2Z" fill="white"/>
</svg>
