<svg width="357" height="246" viewBox="0 0 357 246" fill="none" xmlns="http://www.w3.org/2000/svg">
<path d="M0.6 246L51.9 4.79999H84.3L79.35 49.35H81.6C87 41.85 93.3 34.35 100.5 26.85C108 19.35 116.55 13.05 126.15 7.94998C136.05 2.84999 147.15 0.299998 159.45 0.299998C175.95 0.299998 188.55 5.1 197.25 14.7C206.25 24 211.65 37.05 213.45 53.85H215.25C221.25 44.85 228.3 36.3 236.4 28.2C244.8 20.1 254.1 13.5 264.3 8.4C274.5 3 285.75 0.299998 298.05 0.299998C316.65 0.299998 331.05 5.4 341.25 15.6C351.45 25.8 356.55 40.5 356.55 59.7C356.55 66.9 356.1 73.65 355.2 79.95C354.3 85.95 353.1 92.4 351.6 99.3L320.55 246H280.5L312.9 94.8C314.4 87.9 315.45 82.05 316.05 77.25C316.65 72.45 316.95 67.8 316.95 63.3C316.95 54.3 314.4 47.1 309.3 41.7C304.5 36.3 296.85 33.6 286.35 33.6C279.15 33.6 271.5 35.7 263.4 39.9C255.3 43.8 247.35 49.95 239.55 58.35C231.75 66.75 224.7 77.55 218.4 90.75C212.1 103.65 207 119.1 203.1 137.1L180.15 246H140.55L172.5 94.8C174 87.9 175.05 82.2 175.65 77.7C176.25 72.9 176.55 68.7 176.55 65.1C176.55 55.2 174.3 47.55 169.8 42.15C165.3 36.45 157.8 33.6 147.3 33.6C140.1 33.6 132.3 35.55 123.9 39.45C115.8 43.35 107.85 49.65 100.05 58.35C92.25 66.75 85.05 77.85 78.45 91.65C71.85 105.45 66.45 122.25 62.25 142.05L40.2 246H0.6Z" fill="white"/>
</svg>
