<svg width="1104" height="679" viewBox="0 0 1104 679" fill="none" xmlns="http://www.w3.org/2000/svg">
<path fill-rule="evenodd" clip-rule="evenodd" d="M3 394.625C3 398.701 3.50384 404.743 4.24961 411.424L242.117 494.677C247.241 473.453 258.937 436.604 275.677 404.626C286.345 384.246 299.062 365.845 313.432 354.729C324.844 345.901 339.335 335.532 355.382 324.923C380.766 308.143 410.043 290.765 437.185 277.944C462.267 266.095 485.527 258.138 502.208 258.138C506.614 258.138 511.288 258.119 516.173 258.099C523.674 258.068 531.672 258.035 539.964 258.066C574.432 258.197 613.96 259.436 643.828 266.537C651.102 268.266 657.802 270.343 663.717 272.836C688.474 283.272 718.898 300.191 743.423 317.551C758.376 328.136 771.135 338.885 779.08 348.43C786.605 357.469 798.448 373.804 810.543 391.522L1016.1 251.838C1010.52 251.838 1004.53 238.231 997.221 221.615C988.03 200.734 976.748 175.101 961.564 165.746C934.296 148.948 898.639 130.049 883.956 125.85C877.523 124.01 867.869 112.899 856.758 100.111C842.509 83.7116 825.864 64.5547 810.543 58.6557C783.275 48.1567 732.935 48.1567 724.545 48.1567C721.654 48.1567 714.03 43.1698 703.906 36.547C684.65 23.9507 656.347 5.43686 634.352 4.06063C607.504 2.38079 565.833 14.5597 548.354 20.8591C535.069 13.1598 500.95 -0.978882 470.746 4.06063C432.99 10.36 380.553 37.6576 370.065 48.1567C365.571 52.6553 352.991 52.9133 337.768 53.2254C317.464 53.6417 292.46 54.1544 275.677 64.9552C252.185 80.0738 225.337 116.051 214.849 132.149C191.077 138.449 141.016 153.987 130.948 165.746C118.363 180.445 91.0956 226.641 91.0956 230.84V258.138C72.9171 268.637 34.8822 293.415 28.1702 308.533C19.7801 327.431 3 379.927 3 394.625Z" fill="#800000"/>
<path d="M1089.51 409.324C1088.11 382.027 1082.38 323.652 1070.63 308.533C1068.92 306.331 1067.04 303.873 1065.03 301.248C1049.8 281.34 1027.22 251.838 1016.1 251.838L810.543 391.522C832.164 423.195 854.591 459.286 854.591 466.019V488.677C938.651 460.541 1026.15 430.913 1089.51 409.324Z" fill="#800000"/>
<path d="M531.574 621.405C525.98 632.604 514.374 655.422 512.696 657.102C510.599 659.202 521.086 676 542.061 676C558.841 676 581.215 670.401 590.304 667.601L567.231 621.405L1100 442.921L1089.51 409.324C1026.15 430.913 938.651 460.541 854.591 488.677C717.905 534.426 590.304 573.109 590.304 573.109C590.304 573.109 567.231 557.35 542.061 557.35C528.637 557.35 506.404 577.309 502.208 585.708L242.117 494.677L4.24961 411.424C5.65575 424.021 7.92195 438.888 9.29254 447.121L531.574 621.405Z" fill="black"/>
<path d="M502.208 585.708C506.404 577.309 528.637 557.35 542.061 557.35C567.231 557.35 590.304 573.109 590.304 573.109C590.304 573.109 717.905 534.426 854.591 488.677V466.019C854.591 459.286 832.164 423.195 810.543 391.522C798.448 373.804 786.605 357.469 779.08 348.43C771.135 338.885 758.376 328.136 743.423 317.551C718.898 300.191 688.474 283.272 663.717 272.836C657.802 270.343 651.102 268.266 643.828 266.537C613.96 259.436 574.432 258.197 539.964 258.066C531.672 258.035 523.674 258.068 516.173 258.099C511.288 258.119 506.614 258.138 502.208 258.138C485.527 258.138 462.267 266.095 437.185 277.944C410.043 290.765 380.766 308.143 355.382 324.923C339.335 335.532 324.844 345.901 313.432 354.729C299.062 365.845 286.345 384.246 275.677 404.626C258.937 436.604 247.241 473.453 242.117 494.677L502.208 585.708Z" fill="#800000"/>
<path d="M1089.51 409.324L1100 442.921L567.231 621.405L590.304 667.601C581.215 670.401 558.841 676 542.061 676C521.086 676 510.599 659.202 512.696 657.102C514.374 655.422 525.98 632.604 531.574 621.405L9.29254 447.121C7.92195 438.888 5.65575 424.021 4.24961 411.424M1089.51 409.324C1088.11 382.027 1082.38 323.652 1070.63 308.533C1068.92 306.331 1067.04 303.873 1065.03 301.248C1049.8 281.34 1027.22 251.838 1016.1 251.838M1089.51 409.324C1026.15 430.913 938.651 460.541 854.591 488.677M1016.1 251.838L810.543 391.522M1016.1 251.838C1010.52 251.838 1004.53 238.231 997.221 221.615C988.03 200.734 976.748 175.101 961.564 165.746C934.296 148.948 898.639 130.049 883.956 125.85M883.956 125.85L743.423 317.551M883.956 125.85C877.523 124.01 867.869 112.899 856.758 100.111C842.509 83.7116 825.864 64.5547 810.543 58.6557C783.275 48.1567 732.935 48.1567 724.545 48.1567M724.545 48.1567L643.828 266.537M724.545 48.1567C721.654 48.1567 714.03 43.1698 703.906 36.547C684.65 23.9507 656.347 5.43686 634.352 4.06063C607.504 2.38079 565.833 14.5597 548.354 20.8591M548.354 20.8591C535.069 13.1598 500.95 -0.978882 470.746 4.06063C432.99 10.36 380.553 37.6576 370.065 48.1567M548.354 20.8591L539.964 258.066M370.065 48.1567L437.185 277.944M370.065 48.1567C365.571 52.6553 352.991 52.9133 337.768 53.2254C317.464 53.6417 292.46 54.1544 275.677 64.9552C252.185 80.0738 225.337 116.051 214.849 132.149M214.849 132.149C191.077 138.449 141.016 153.987 130.948 165.746C118.363 180.445 91.0956 226.641 91.0956 230.84M214.849 132.149L355.382 324.923M91.0956 230.84C91.0956 234.2 91.0956 250.438 91.0956 258.138M91.0956 230.84V258.138M91.0956 258.138C72.9171 268.637 34.8822 293.415 28.1702 308.533C19.7801 327.431 3 379.927 3 394.625C3 398.701 3.50384 404.743 4.24961 411.424M91.0956 258.138L275.677 404.626M4.24961 411.424L242.117 494.677M242.117 494.677L502.208 585.708C506.404 577.309 528.637 557.35 542.061 557.35C567.231 557.35 590.304 573.109 590.304 573.109C590.304 573.109 717.905 534.426 854.591 488.677M242.117 494.677C247.241 473.453 258.937 436.604 275.677 404.626M854.591 466.019C854.591 474.418 854.591 484.624 854.591 488.677M854.591 466.019C854.591 459.286 832.164 423.195 810.543 391.522M854.591 466.019V488.677M275.677 404.626C286.345 384.246 299.062 365.845 313.432 354.729C324.844 345.901 339.335 335.532 355.382 324.923M355.382 324.923C380.766 308.143 410.043 290.765 437.185 277.944M437.185 277.944C462.267 266.095 485.527 258.138 502.208 258.138C506.614 258.138 511.288 258.119 516.173 258.099C523.674 258.068 531.672 258.035 539.964 258.066M539.964 258.066C574.432 258.197 613.96 259.436 643.828 266.537M643.828 266.537C651.102 268.266 657.802 270.343 663.717 272.836C688.474 283.272 718.898 300.191 743.423 317.551M743.423 317.551C758.376 328.136 771.135 338.885 779.08 348.43C786.605 357.469 798.448 373.804 810.543 391.522" stroke="white" stroke-width="5"/>
<path d="M116.36 381.4C116.36 375.832 120.584 369.88 127.496 365.752C127.976 358.648 134.12 352.696 141.608 352.696C146.6 352.696 151.112 354.904 151.112 357.4C151.112 359.704 150.056 364.024 149.288 364.888H147.944C146.12 360.472 141.992 357.4 138.152 357.4C135.08 357.4 132.776 359.896 132.776 363.352C132.776 375.256 158.792 379.96 158.792 395.032C158.792 401.464 154.088 408.28 147.56 411.64C147.272 417.4 140.456 425.08 131.624 425.08C125.192 425.08 120.392 421.816 120.392 417.4C120.392 414.52 121.16 410.2 121.832 409.24H123.272C124.52 416.056 128.936 420.568 134.6 420.568C138.632 420.568 141.992 417.592 141.992 413.656C141.992 401.848 116.36 397.336 116.36 381.4ZM121.736 378.232C121.736 388.984 144.008 395.704 147.176 408.088C151.112 405.592 153.224 402.424 153.224 398.392C153.224 388.408 130.664 380.92 127.784 369.112C123.464 371.704 121.736 374.392 121.736 378.232Z" fill="black"/>
<path d="M220.544 291.424C210.752 291.424 206.144 284.608 206.144 276.448C206.144 266.848 212.672 259.552 222.752 259.552C227.168 259.552 231.968 260.704 231.968 260.704L232.16 261.088C232.16 261.088 231.2 264.832 230.912 269.728L227.744 269.92C227.744 269.92 227.84 268.672 227.84 267.616C227.84 265.216 226.304 263.392 221.696 263.392C216.032 263.392 212.48 267.232 212.48 274.816C212.48 282.688 215.456 287.968 221.888 287.968C226.304 287.968 228.512 285.76 229.472 280.768L232.544 280.576C232.544 280.576 231.488 285.28 231.296 288.928L230.912 289.6C230.912 289.6 226.592 291.424 220.544 291.424ZM192.032 275.872C192.032 259.744 204.992 246.592 221.216 246.592C237.44 246.592 250.496 259.744 250.496 275.872C250.496 292 237.44 305.152 221.216 305.152C204.992 305.152 192.032 292 192.032 275.872ZM196.064 275.872C196.064 289.888 207.296 301.312 221.216 301.312C235.136 301.312 246.464 289.888 246.464 275.872C246.464 261.856 235.136 250.432 221.216 250.432C207.296 250.432 196.064 261.856 196.064 275.872Z" fill="black"/>
<path d="M327.896 217.544C335.48 216.968 337.208 216.104 337.208 212.648C337.208 210.536 336.824 208.424 336.536 206.312L334.808 194.504L325.304 195.272L316.568 196.232L309.752 209.48C308.6 211.688 308.216 212.84 308.216 213.896C308.216 216.104 309.848 217.16 313.496 217.16H318.968L318.488 221.672C318.488 221.672 311.384 221 305.24 221C303.128 221 298.712 221.384 298.712 221.384L298.04 218.024C298.04 218.024 301.208 214.664 304.088 209.384L327.8 165.512C327.512 164.36 326.744 163.976 325.4 163.976C324.248 163.976 322.136 164.168 322.136 164.168L321.944 163.784L322.616 159.56C322.616 159.464 328.76 159.848 337.88 159.848C353.048 159.848 360.728 159.56 366.488 158.696L366.776 159.272C366.776 159.272 365.144 166.376 364.568 175.208L359.96 175.592C359.96 175.592 360.152 172.808 360.152 171.464C360.152 165.224 358.808 164.648 345.08 164.648C339.128 164.648 338.456 164.936 338.36 167.624L341.336 189.512L352.664 188.456L361.496 187.208L361.88 187.688L360.632 192.776L352.376 193.064L341.912 193.928L344.6 210.152C345.368 215.048 347.48 216.68 352.664 216.68C366.584 216.68 368.312 215.528 369.752 204.968L373.976 204.488L374.264 204.968C374.264 204.968 372.536 212.936 371.672 221.096L371.192 221.672C371.192 221.768 355.064 221 345.368 221H342.104C334.712 221 327.896 221.96 327.896 221.96L327.704 221.288L327.896 217.544ZM319.16 191.24L327.224 190.76L334.232 190.184L331.352 169.256H330.488L319.16 191.24Z" fill="black"/>
<path d="M621.502 371.488C621.502 371.488 612.752 373.605 608.18 375.355C603.698 377.072 598.282 380.379 598.282 380.379L597.241 376.049C603.07 372.48 603.307 370.951 600.012 362.344L594.965 349.165L583.042 353.731L582.174 353.343L581.703 350.234L593.627 345.669L586.954 327.973C585.478 324.118 584.472 323.372 581.783 324.401C580.707 324.813 578.803 325.748 578.803 325.748L578.487 325.458L577.604 321.273C577.604 321.273 583.714 319.242 587.12 317.937C591.244 316.358 600.61 312.361 600.61 312.361C617.824 305.77 634.397 312.274 640.37 327.874C647.201 345.714 638.895 364.828 621.502 371.488ZM593.634 322.331L600.62 342.991L615.861 337.155L616.549 337.611L617.11 340.686L601.869 346.522L607.359 362.203C609.865 368.748 612.848 369.559 621.813 366.126C634.723 361.183 638.974 348.659 633.035 333.149C626.994 317.37 613.768 312.36 596.106 319.123C593.596 320.084 593.106 320.683 593.634 322.331Z" fill="black"/>
<path d="M516.328 500.307C513.74 495.754 512.337 491.089 512.12 486.312C511.902 481.536 512.793 477.037 514.793 472.814C516.627 468.938 519.019 465.681 521.969 463.041C525.003 460.37 528.339 458.409 531.977 457.157C535.699 455.875 539.596 455.347 543.666 455.575C547.794 455.83 551.882 456.916 555.931 458.832C560.328 460.914 563.779 463.645 566.285 467.027C568.876 470.378 570.416 474.081 570.904 478.135C571.419 482.132 570.691 486.213 568.719 490.378C565.953 496.22 561.744 500.848 556.092 504.262C550.497 507.703 544.04 509.603 536.719 509.96L536.18 510.874L543.902 514.53C546.332 515.68 548.385 515.979 550.062 515.428C551.74 514.877 553.881 513.27 556.486 510.609L561.55 512.476C559.813 514.202 558.038 516.23 556.227 518.559C554.444 520.83 552.913 522.867 551.635 524.67L549.375 525.405L526.194 513.794L526.171 512.721L531.526 506.121C536.202 505.219 540.197 503.96 543.511 502.342C546.826 500.725 549.631 498.69 551.926 496.236C554.248 493.724 556.231 490.732 557.874 487.262C560.229 482.287 560.92 477.835 559.948 473.905C558.977 469.975 556.408 467.024 552.243 465.052C548.773 463.409 545.267 462.812 541.727 463.26C538.187 463.708 534.869 465.183 531.773 467.682C528.705 470.125 526.103 473.602 523.967 478.113C522.078 482.105 520.993 486.265 520.714 490.594C520.493 494.95 521.192 498.857 522.813 502.315L519.495 509.772L518.344 510.183L495.319 499.814L494.802 497.764C495.688 496.342 496.694 494.517 497.819 492.288C498.945 490.06 500.091 487.416 501.256 484.356L506.065 486.314C504.82 489.69 504.345 492.191 504.637 493.816C505.015 495.411 506.419 496.784 508.848 497.934L515.79 501.22L516.328 500.307ZM529.267 448.971L513.434 459.531L512.31 459.212L509.839 456.13C512.454 453.898 514.952 451.611 517.335 449.27C519.776 446.956 522.159 444.614 524.485 442.245L525.562 442.437L529.586 447.847L529.267 448.971Z" fill="black"/>
<path d="M391.555 481.841C387.54 474.995 383.671 468.6 379.948 462.659C376.227 456.654 372.931 451.398 370.061 446.891C367.19 442.385 364.898 438.856 363.183 436.306C361.535 433.694 360.711 432.388 360.711 432.388L360.039 432.368L358.544 468.435C358.563 469.908 358.786 470.972 359.214 471.625C359.644 472.215 360.435 472.527 361.586 472.562C361.906 472.572 362.418 472.588 363.122 472.61C363.891 472.569 364.596 472.559 365.236 472.579C365.875 472.599 366.195 472.608 366.195 472.608L366.468 473.097L365.448 478.156C365.448 478.156 365.065 478.112 364.3 478.025C363.532 478.001 362.573 477.939 361.424 477.84C360.274 477.741 359.061 477.639 357.783 477.536C356.504 477.496 355.353 477.461 354.329 477.429C352.858 477.384 351.321 477.401 349.717 477.479C348.178 477.56 346.863 477.648 345.771 477.742C344.68 477.837 344.134 477.884 344.134 477.884L344.873 472.624C346.864 472.429 348.321 471.898 349.244 471.03C350.231 470.164 350.787 468.74 350.912 466.759L353.398 426.593C353.461 424.546 352.928 423.121 351.801 422.317C350.739 421.452 348.613 420.811 345.425 420.392L345.062 419.709L345.869 415.315C345.869 415.315 346.412 415.364 347.498 415.462C348.583 415.559 349.86 415.695 351.327 415.868C352.796 415.977 354.139 416.05 355.354 416.088C356.569 416.125 357.754 416.13 358.907 416.101C360.061 416.073 361.022 416.038 361.792 415.998C362.561 415.958 362.946 415.938 362.946 415.938C365.749 420.57 368.491 425.105 371.171 429.541C373.854 433.914 376.385 438.026 378.763 441.877C381.144 445.664 383.25 448.994 385.083 451.868C386.981 454.68 388.449 456.902 389.487 458.535C390.528 460.104 391.048 460.888 391.048 460.888L391.719 460.909L392.685 426.458C392.73 424.987 392.506 423.923 392.014 423.268C391.522 422.612 390.733 422.268 389.645 422.234C388.877 422.211 388.109 422.219 387.339 422.259C386.636 422.238 386.252 422.226 386.188 422.224L385.918 421.639L386.839 416.673C386.839 416.673 387.19 416.716 387.892 416.802C388.659 416.826 389.586 416.886 390.671 416.984C391.821 417.083 392.97 417.182 394.12 417.282C395.335 417.319 396.423 417.353 397.382 417.382C398.789 417.426 400.294 417.44 401.895 417.425C403.498 417.347 404.845 417.26 405.937 417.166C407.092 417.073 407.67 417.027 407.67 417.027L407.028 422.29C404.845 422.478 403.227 423.037 402.174 423.965C401.185 424.895 400.63 426.287 400.508 428.14L397.543 480.777L391.555 481.841ZM359.392 493.913L358.654 492.93L359.977 487.4C359.977 487.4 360.457 487.415 361.416 487.444C362.44 487.476 363.719 487.515 365.254 487.563C366.788 487.674 368.386 487.755 370.049 487.806C371.776 487.859 373.344 487.908 374.751 487.951C376.35 488 378.079 487.99 379.938 487.919C381.859 487.914 383.526 487.869 384.937 487.785C386.346 487.764 387.051 487.754 387.051 487.754L387.69 488.83L386.649 494.56L373.021 494.237C371.165 494.18 369.15 494.118 366.975 494.051C364.864 493.986 363.073 493.93 361.602 493.885C360.129 493.904 359.392 493.913 359.392 493.913Z" fill="black"/>
<path d="M460.774 392.22C460.454 392.211 459.982 391.94 459.358 391.408C458.798 390.879 458.21 390.221 457.594 389.433C457.04 388.712 456.55 387.992 456.124 387.275C455.698 386.557 455.491 386.007 455.503 385.623L456.108 384.681C460.014 384.673 463.545 383.342 466.7 380.685C469.919 378.031 472.687 374.435 475.004 369.896C474.423 367.957 473.754 365.792 472.995 363.399C472.302 360.945 471.517 358.391 470.638 355.739C469.823 353.088 469.008 350.438 468.193 347.788C467.379 345.137 466.591 342.648 465.83 340.319C465.07 337.991 464.363 335.984 463.711 334.299C463.12 332.68 462.323 331.535 461.319 330.864C460.379 330.195 459.175 329.806 457.705 329.696L457.525 329.307L458.231 325.102C458.423 325.108 458.999 325.126 459.958 325.156C460.918 325.185 461.972 325.25 463.122 325.349C464.337 325.386 465.297 325.416 466 325.438C467.536 325.485 469.04 325.499 470.513 325.481C472.051 325.464 473.428 325.442 474.645 325.416C475.929 325.327 476.955 325.263 477.725 325.223C478.494 325.182 478.879 325.162 478.879 325.162L479.056 325.648L478.257 329.753C476.272 329.756 474.922 329.938 474.207 330.301C473.493 330.599 473.124 331.164 473.098 331.995C473.08 332.571 473.24 333.632 473.576 335.18C473.915 336.663 474.34 338.437 474.853 340.501C475.368 342.502 475.911 344.6 476.484 346.795C477.059 348.925 477.605 350.927 478.124 352.8C478.644 354.609 479.079 356.095 479.427 357.258C479.776 358.421 479.95 359.003 479.95 359.003L480.525 359.021C481.692 356.495 482.895 353.811 484.135 350.968C485.375 348.125 486.515 345.407 487.556 342.814C488.66 340.222 489.561 338.009 490.257 336.174C491.018 334.34 491.406 333.199 491.419 332.752C491.445 331.92 491.207 331.336 490.705 331.001C490.205 330.601 489.347 330.383 488.132 330.345L484.294 330.227L484.114 329.837L484.915 325.636C484.915 325.636 485.426 325.684 486.448 325.779C487.469 325.875 488.747 325.978 490.28 326.089C491.813 326.201 493.347 326.28 494.883 326.327C495.97 326.361 497.122 326.396 498.337 326.434C499.555 326.407 500.611 326.408 501.507 326.435C502.466 326.465 503.074 326.484 503.33 326.491L502.516 331.077C501.101 331.289 500.031 331.736 499.305 332.418C498.58 333.1 497.871 334.295 497.178 336.003L484.087 364.989C481.683 370.294 479.498 374.709 477.533 378.234C475.629 381.825 473.781 384.649 471.989 386.707C470.259 388.831 468.484 390.313 466.666 391.153C464.911 391.996 462.947 392.351 460.774 392.22ZM480.54 318.01C476.51 317.886 473.275 316.89 470.835 315.022C468.46 313.156 467.002 310.581 466.463 307.299L472.858 305.479L474.091 305.998C474.2 308.69 474.779 310.693 475.827 312.006C476.875 313.319 478.55 314.011 480.853 314.082C483.092 314.151 484.806 313.595 485.995 312.415C487.186 311.171 487.887 309.176 488.1 306.429L489.362 305.988L495.729 308.201C494.927 311.378 493.186 313.853 490.506 315.627C487.892 317.34 484.57 318.134 480.54 318.01Z" fill="black"/>
<path d="M681.7 461.795L691.31 454.217C686.435 446.557 686.054 436.389 690.732 425.967C698.515 408.626 717.181 400.799 733.384 408.072C736.8 409.605 739.765 411.673 742.105 414.196L748.928 408.841L751.193 410.594L750.984 411.763L744.405 416.807C750.059 424.606 750.936 435.312 746.061 446.172C738.238 463.601 719.397 471.349 702.844 463.919C698.903 462.15 695.793 459.702 693.269 456.885L683.611 464.336L681.483 462.749L681.7 461.795ZM707.564 460.671C718.687 465.664 730.562 459.84 736.616 446.352C740.704 437.244 740.941 428.511 737.954 421.803L698.675 452.577C700.67 456.104 703.623 458.902 707.564 460.671ZM699.522 426.545C695.748 434.953 695.055 443.06 697.342 449.453L736.239 418.824C734.271 415.941 731.463 413.523 728.047 411.99C717.187 407.116 705.576 413.058 699.522 426.545Z" fill="black"/>
<path d="M463.624 128.664C463.624 129.528 464.008 130.488 464.776 132.12H464.68L472.36 147.192L481.288 131.928C481.96 130.776 482.536 129.624 482.536 128.376C482.536 127.32 480.52 126.744 477.448 126.456C477.448 126.264 477.352 125.976 477.352 125.784L477.832 122.232C477.832 122.232 483.784 122.808 487.24 122.808C490.408 122.808 494.92 122.52 494.92 122.52L495.4 123.192L494.824 126.744C489.64 127.512 488.872 129.048 485.512 134.136L481.48 140.664L492.52 140.472L493.096 141.336L492.808 144.216H479.272L475.912 149.688C475.432 150.648 475.048 152.184 474.952 153.432L492.52 153.048L493.096 153.912L492.808 156.792H474.856C474.856 158.616 474.76 160.536 474.76 162.36C474.76 165.912 475.336 166.968 477.832 166.968C478.408 166.968 478.984 166.872 479.656 166.872C481 166.776 482.248 166.776 482.248 166.776L482.44 167.544L481.576 171.192C481.576 171.192 474.664 171 471.016 171C467.176 171 461.416 171.96 461.416 171.96L461.896 167.832C468.616 166.68 468.232 164.952 468.232 156.792C462.472 156.792 456.712 156.888 450.952 156.888L450.472 156.216L450.952 153.432H467.944C467.464 151.8 466.984 150.264 465.928 148.344L463.624 144.216C459.4 144.216 455.176 144.312 450.952 144.312L450.472 143.64L450.952 140.856H461.704C456.808 131.928 456.232 127.224 448.168 126.84L447.976 125.976L448.648 122.52C448.648 122.52 454.216 122.808 457.96 122.808C462.664 122.808 469.48 122.04 469.48 122.136L469.96 123.096L469.672 126.36C464.296 126.936 463.624 127.416 463.624 128.664Z" fill="black"/>
<path d="M653.712 153.84L654.768 156.624C654.768 156.624 645.936 163.152 640.08 163.152C632.016 163.152 625.584 159.408 622.512 152.88C617.52 158.16 612.528 161.904 609.168 162.768C602.064 162.768 596.88 157.776 596.88 150.864C596.88 147.12 598.896 144.144 601.968 143.28L620.304 138.288L620.4 133.488C620.4 127.056 617.52 123.504 612.144 123.504C605.904 123.504 600.336 128.592 600.336 128.592L599.856 128.304L598.704 124.176C598.704 124.176 610.32 117.456 614.352 117.456C620.592 117.456 624.624 120.048 626.256 125.136C630 120.24 635.376 117.456 640.848 117.456C649.008 117.456 654 122.544 654 131.088C654 131.952 653.808 132.912 653.808 132.912L652.944 134.256L627.024 140.4C627.696 150.288 633.456 157.008 641.328 157.008C647.088 157.008 653.136 153.648 653.136 153.648L653.712 153.84ZM620.208 141.84L606.96 145.776C604.848 146.352 603.888 147.984 603.888 149.808C603.888 153.36 606.864 156.528 610.32 156.528C613.008 156.528 616.848 154.224 621.36 150C620.592 147.6 620.208 144.912 620.208 141.84ZM626.928 136.176V136.848L643.728 132.048C644.976 131.664 645.648 131.184 645.648 130.32C645.648 126.096 642.672 122.832 638.64 122.832C631.632 122.832 626.928 128.208 626.928 136.176Z" fill="black"/>
<path d="M754.408 211.256C766.6 211.256 775.048 201.08 775.048 186.296C775.048 169.88 766.12 158.456 753.16 158.456C741.256 158.456 733.096 168.632 733.096 183.416C733.096 199.832 741.832 211.256 754.408 211.256ZM751.432 216.152C735.688 216.152 724.84 204.056 724.84 186.488C724.84 167.48 738.664 152.696 756.424 152.696C772.456 152.696 783.592 164.792 783.592 182.264C783.592 201.368 769.576 216.152 751.432 216.152ZM761.32 145.4C758.728 145.4 757.384 143.288 757.384 141.272C757.384 138.68 759.4 136.472 762.184 136.472C764.776 136.472 766.12 138.488 766.12 140.6C766.12 143.192 764.104 145.4 761.32 145.4ZM745.384 145.4C742.792 145.4 741.448 143.288 741.448 141.272C741.448 138.68 743.464 136.472 746.248 136.472C748.84 136.472 750.184 138.488 750.184 140.6C750.184 143.192 748.168 145.4 745.384 145.4Z" fill="black"/>
<path d="M878.736 283.136V240.512C878.64 239.264 878.64 239.168 876.144 239.168C869.712 239.168 866.736 245.024 866.736 253.28C866.736 262.784 868.848 268.064 873.36 274.208V275.648C861.072 274.592 850.032 267.776 850.032 253.28C850.032 242.912 857.808 234.464 870.288 234.464C875.088 234.464 880.176 234.848 882.672 234.848C886.32 234.848 894.672 234.56 894.672 234.56L894.096 238.592L893.904 238.976C888.048 238.688 886.512 239.84 886.224 243.296C885.36 248.96 885.168 273.824 885.168 281.216C885.168 296.864 882.672 306.08 867.6 306.08C860.976 306.08 854.736 303.296 854.736 297.056C854.736 294.464 856.464 290.72 858.384 288.512H859.824C859.824 297.152 863.568 301.568 869.04 301.568C877.104 301.568 878.736 296.576 878.736 283.136Z" fill="black"/>
<path d="M969.648 401.064C969.648 399.24 971.76 394.632 973.296 392.808H974.64C974.64 398.568 978 401.928 983.76 401.928C987.6 401.928 991.056 398.088 991.056 393.96C991.056 383.88 969.936 381.864 969.936 368.712C969.936 359.784 982.512 355.752 982.512 348.552C982.512 342.984 977.808 339.432 970.32 339.432C963.024 339.432 959.568 345 959.472 357.192L958.896 395.592C958.8 398.952 960.144 400.872 962.64 400.872C965.424 400.872 967.152 400.776 967.152 400.776L967.344 401.16L966.672 405.192C966.672 405.192 960.048 405 957.168 405C951.792 405 946.416 405.384 946.416 405.384L946.896 401.64C951.408 401.064 952.368 399.432 952.368 394.632V370.056C952.176 367.176 950.832 366.312 946.32 366.12L945.936 365.544L946.608 362.28L952.368 361.224C952.368 343.944 960.624 333.768 974.544 333.768C982.128 333.768 989.136 339.432 989.136 345.48C989.136 356.328 977.04 359.592 977.04 366.888C977.04 375.336 997.872 377.736 997.872 390.888C997.872 399.048 990 406.152 980.784 406.152C974.544 406.152 969.648 403.944 969.648 401.064Z" fill="black"/>
</svg>
