<svg width="1340" height="339" viewBox="0 0 1340 339" fill="none" xmlns="http://www.w3.org/2000/svg">
<path d="M1118.62 247.924C1138.19 243.367 1189.75 214.874 1213.09 201.198L1340.5 176.516L1341.76 85.676L1340.5 2.7552C1323.43 13.3126 1308.73 24.3964 1299.89 31.8678L1249.49 33.1661L1047.77 61.5416C1003.59 69.8873 913.069 86.3567 904.46 85.469C893.7 84.3594 856.435 70.1779 794.519 73.8671C744.986 76.8186 699.541 113.559 683.011 131.56L344.675 175.54L242.929 193.812L234.853 185.954L201.114 200.634L199.597 207.635C164.23 216.669 89.4551 235.327 73.2972 237.691C53.0998 240.645 42.9412 231.114 15.8949 237.471C-11.1513 243.828 8.03481 245.542 12.3557 253.808C16.6766 262.074 57.2876 272.094 72.2127 276.549C87.1378 281.004 176.978 289.473 197.176 286.518C213.333 284.155 228.037 290.761 233.369 294.36L231.853 301.361L293.732 314.767L305.444 300.201C311.691 305.219 326.967 317.081 338.098 324.379C352.012 333.501 375.11 339.727 392.972 336.267C401.254 334.152 409.808 318.739 413.05 311.297L507.754 308.603L576.013 303.844L647.366 296.091L742.106 276.302L877.553 260.445C921.535 254.906 1013.7 244.74 1030.51 248.382C1051.53 252.935 1094.16 253.62 1118.62 247.924Z" fill="#800000"/>
<path d="M1213.09 201.198C1189.75 214.874 1138.19 243.367 1118.62 247.924C1094.16 253.62 1051.53 252.935 1030.51 248.382M1213.09 201.198C1240.08 178.134 1297.36 129.297 1310.46 118.454C1317.05 113.003 1328.46 99.9055 1341.76 85.676M1213.09 201.198L1340.5 176.516L1341.76 85.676M1030.51 248.382C1013.7 244.74 921.535 254.906 877.553 260.445L742.106 276.302L647.366 296.091L576.013 303.844L507.754 308.603L413.05 311.297C409.808 318.739 401.254 334.152 392.972 336.267C375.11 339.727 352.012 333.501 338.098 324.379C326.967 317.081 311.691 305.219 305.444 300.201L293.732 314.767L231.853 301.361L233.369 294.36C228.037 290.761 213.333 284.155 197.176 286.518C176.978 289.473 87.1379 281.004 72.2127 276.549C57.2875 272.094 16.6766 262.074 12.3557 253.808C8.03484 245.542 -11.1513 243.828 15.8949 237.471C42.9412 231.114 53.0998 240.645 73.2972 237.691C89.4551 235.327 164.23 216.669 199.597 207.635L201.114 200.634L234.853 185.954L242.929 193.812L344.675 175.54L683.011 131.56C699.541 113.559 744.986 76.8186 794.519 73.8671C856.435 70.1779 893.7 84.3594 904.46 85.469M1030.51 248.382C1051.64 241.149 1100.96 221.13 1129.24 198.914C1164.59 171.145 1205.85 110.45 1238.11 85.676C1263.92 65.8565 1290.05 41.5458 1299.89 31.8678M904.46 85.469C913.069 86.3567 1003.59 69.8873 1047.77 61.5416L1249.49 33.1661L1299.89 31.8678M904.46 85.469L903.196 91.3034C891.288 93.6102 859.058 99.8215 825.404 106.213C783.336 114.202 788.571 123.888 788.126 137.23C787.68 150.571 781.144 163.815 765.364 168.948C752.74 173.054 742.995 185.685 739.701 191.487L718.383 250.394L707.213 245.531C709.087 240.643 714.06 227.468 718.961 213.87C725.088 196.872 736.139 179.72 733.394 175.46C730.65 171.201 701.076 189.227 694.287 203.638C687.498 218.048 676.255 247.376 667.733 252.859C659.211 258.343 604.144 258.629 595.718 258.026C587.293 257.422 593.479 251.432 598.499 245.19C602.514 240.196 621.276 232.207 630.155 228.837C632.84 222.088 639.87 204.309 646.514 187.18C653.159 170.05 673.108 145.296 682.252 135.061M1299.89 31.8678C1308.73 24.3964 1323.43 13.3126 1340.5 2.7552L1341.76 85.676" stroke="black" stroke-width="3"/>
</svg>
