<svg width="2056" height="435" viewBox="0 0 2056 435" fill="none" xmlns="http://www.w3.org/2000/svg">
<path d="M1936.22 175.325L2053.65 158.007L1993.33 2.00511L1789.64 50.7236L1610.26 88.8255C1602.51 85.1101 1583.09 76.5859 1567.41 72.2124C1547.82 66.7454 1524.62 66.6071 1486.5 62.0136C1448.38 57.4201 1458.38 62.0303 1409.06 69.6689C1369.6 75.7797 1319.83 111.014 1299.89 127.868L1249.49 129.166L1047.77 157.542C1003.59 165.887 913.069 182.357 904.46 181.469C893.7 180.359 856.435 166.178 794.519 169.867C744.986 172.819 699.541 209.559 683.011 227.56L344.674 271.54L242.929 289.812L234.853 281.954L201.114 296.634L199.597 303.635C164.23 312.669 89.4549 331.327 73.297 333.691C53.0997 336.645 42.9411 327.114 15.8948 333.471C-11.1515 339.828 8.03479 341.542 12.3556 349.808C16.6765 358.074 57.2875 368.094 72.2126 372.549C87.1378 377.004 176.978 385.473 197.176 382.518C213.333 380.155 228.037 386.761 233.369 390.36L231.852 397.361L293.732 410.767L305.444 396.201C311.691 401.219 326.967 413.08 338.098 420.379C352.012 429.501 375.11 435.727 392.972 432.267C401.254 430.152 409.808 414.739 413.05 407.297L507.753 404.603L576.013 399.844L647.366 392.091L742.106 372.302L877.553 356.445C921.535 350.906 1013.7 340.739 1030.51 344.382C1051.53 348.935 1094.16 349.62 1118.62 343.923C1138.19 339.367 1189.75 310.874 1213.09 297.198L1436.36 253.946C1529.87 237.962 1718.24 206.53 1723.64 208.678C1730.39 211.363 1757.11 240.363 1771.53 247.152C1785.95 253.941 1819.75 250.268 1839.29 244.727C1854.92 240.295 1910.42 196.612 1936.22 175.325Z" fill="#800000"/>
<path d="M1723.64 208.678C1730.39 211.363 1757.11 240.363 1771.53 247.152C1785.95 253.941 1819.75 250.268 1839.29 244.727C1854.92 240.295 1910.42 196.612 1936.22 175.325L2053.65 158.007L1993.33 2.00511L1789.64 50.7236L1610.26 88.8255M1723.64 208.678C1718.24 206.53 1529.87 237.962 1436.36 253.946L1213.09 297.198M1723.64 208.678L1793.67 195.752C1817.58 175.683 1867.06 133.465 1873.75 125.142C1880.44 116.818 1955.41 43.4722 1992.06 7.83955M1213.09 297.198C1189.75 310.874 1138.19 339.367 1118.62 343.923C1094.16 349.62 1051.53 348.935 1030.51 344.382M1213.09 297.198C1240.08 274.134 1297.36 225.297 1310.46 214.454C1326.85 200.9 1373.03 140.05 1404.09 132.118C1428.93 125.772 1551.89 100.612 1610.26 88.8255M1030.51 344.382C1013.7 340.739 921.535 350.906 877.553 356.445L742.106 372.302L647.366 392.091L576.013 399.844L507.754 404.603L413.05 407.297C409.808 414.739 401.254 430.152 392.972 432.267C375.11 435.727 352.012 429.501 338.098 420.379C326.967 413.08 311.691 401.219 305.444 396.201L293.732 410.767L231.852 397.361L233.369 390.36C228.037 386.761 213.333 380.155 197.176 382.518C176.978 385.473 87.1378 377.004 72.2126 372.549C57.2874 368.094 16.6765 358.074 12.3556 349.808C8.03474 341.542 -11.1514 339.828 15.8948 333.471C42.9411 327.114 53.0997 336.645 73.297 333.691C89.4549 331.327 164.23 312.669 199.597 303.635L201.114 296.634L234.853 281.954L242.929 289.812L344.675 271.54L683.011 227.56C699.541 209.559 744.986 172.819 794.519 169.867C856.435 166.178 893.7 180.359 904.46 181.469M1030.51 344.382C1051.64 337.149 1100.96 317.13 1129.24 294.914C1164.59 267.145 1205.85 206.45 1238.11 181.676C1263.92 161.856 1290.05 137.546 1299.89 127.868M904.46 181.469C913.069 182.357 1003.59 165.887 1047.77 157.542L1249.49 129.166L1299.89 127.868M904.46 181.469L903.196 187.303C891.288 189.61 859.058 195.821 825.404 202.213C783.336 210.202 788.571 219.888 788.126 233.23C787.68 246.571 781.144 259.815 765.363 264.948C752.739 269.054 742.995 281.685 739.701 287.486L718.382 346.394L707.213 341.531C709.087 336.643 714.06 323.468 718.961 309.87C725.088 292.872 736.138 275.72 733.394 271.46C730.65 267.201 701.076 285.227 694.287 299.637C687.498 314.048 676.255 343.375 667.733 348.859C659.211 354.343 604.144 354.629 595.718 354.026C587.292 353.422 593.479 347.432 598.499 341.19C602.514 336.196 621.276 328.207 630.155 324.837C632.84 318.088 639.87 300.309 646.514 283.179C653.159 266.05 673.108 241.296 682.252 231.061M1299.89 127.868C1319.83 111.014 1369.6 75.7797 1409.06 69.6689C1458.38 62.0303 1448.38 57.4201 1486.5 62.0136C1524.62 66.6071 1547.82 66.7454 1567.41 72.2123C1583.09 76.5859 1602.51 85.1101 1610.26 88.8255" stroke="black" stroke-width="3"/>
</svg>
