<svg width="1782" height="2267" viewBox="0 0 1782 2267" fill="none" xmlns="http://www.w3.org/2000/svg">
<path d="M1332.53 1869.9L1312.48 1875.29L1299.01 1880.67C1298.63 1880.82 1298.29 1881.06 1298.02 1881.36L1291.55 1888.57C1291.44 1888.68 1291.35 1888.8 1291.27 1888.93L1286.91 1895.89L1283.9 1902.3C1283.77 1902.57 1283.69 1902.85 1283.66 1903.14L1282.82 1910.89C1282.8 1911.09 1282.8 1911.28 1282.82 1911.48L1284.16 1922.97C1284.17 1923.1 1284.2 1923.23 1284.23 1923.35L1289.31 1942.25L1289.31 1942.25C1289.41 1942.61 1289.43 1942.98 1289.37 1943.34V1943.34L1289.37 1943.35L1284.74 1972.88L1248.49 2096.27C1248.17 2097.35 1248.57 2098.52 1249.49 2099.17L1257.99 2105.25C1259.46 2106.3 1261.53 2105.6 1262.07 2103.87L1277.6 2053.5L1285.81 2032.99L1298.02 2008.66L1306.87 1993.93L1310.01 1989.84L1310.02 1989.83V1989.83C1311.22 1988.27 1313.65 1988.52 1314.5 1990.3V1990.3L1314.5 1990.3L1319.87 2001.41L1332.81 2029.27L1332.81 2029.27V2029.27C1332.87 2029.41 1332.92 2029.55 1332.96 2029.69L1332.97 2029.7L1337.15 2045.26L1341.65 2061.97L1341.65 2061.98C1341.71 2062.21 1341.74 2062.45 1341.74 2062.69V2062.69L1341.74 2062.7L1341.44 2081.63L1341.29 2103.17L1341.73 2116.47C1341.74 2116.67 1341.77 2116.87 1341.82 2117.07L1344.52 2127.07C1344.58 2127.32 1344.68 2127.55 1344.81 2127.76L1350.09 2136.44C1350.26 2136.73 1350.49 2136.98 1350.76 2137.18L1373.27 2154.05L1398.29 2168.82L1416.44 2176.75L1435.87 2184.34L1460.41 2190.55L1476.09 2192.96C1476.45 2193.01 1476.83 2192.99 1477.18 2192.9L1490.92 2189.2C1491.35 2189.09 1491.74 2188.86 1492.07 2188.56L1498.65 2182.23C1498.78 2182.1 1498.9 2181.96 1499 2181.82L1507.22 2169.86C1507.55 2169.38 1507.71 2168.82 1507.69 2168.24L1507.37 2160.99L1497.28 2168.94C1496.96 2169.19 1496.6 2169.38 1496.2 2169.48L1478.47 2174.25C1478.18 2174.33 1477.87 2174.36 1477.56 2174.35L1460.91 2173.63C1460.6 2173.62 1460.28 2173.56 1459.99 2173.44L1439.07 2165.63L1405.22 2148.66L1381.5 2134.28C1381.28 2134.15 1381.08 2133.99 1380.9 2133.8L1371.87 2124.48C1371.74 2124.35 1371.62 2124.2 1371.52 2124.05L1365.77 2115.36C1365.6 2115.1 1365.46 2114.8 1365.38 2114.49L1360.65 2096.88C1360.6 2096.7 1360.56 2096.52 1360.55 2096.33L1359.18 2078C1359.17 2077.85 1359.17 2077.7 1359.18 2077.55L1360.47 2060.49L1360.55 2047.69C1360.55 2047.37 1360.5 2047.05 1360.4 2046.74L1352.61 2022.8L1344.63 2001.61L1335.62 1984.77C1335.49 1984.54 1335.33 1984.32 1335.15 1984.12L1327.3 1975.85C1327.19 1975.73 1327.08 1975.6 1326.98 1975.46L1312.59 1953.95L1306.87 1945.54C1306.65 1945.22 1306.5 1944.87 1306.42 1944.49L1300.91 1919.09C1300.85 1918.82 1300.83 1918.55 1300.84 1918.28L1301.52 1906.88C1301.55 1906.39 1301.69 1905.92 1301.94 1905.5L1309.31 1893.29C1309.42 1893.12 1309.55 1892.95 1309.69 1892.8L1320.83 1880.82L1332.53 1869.9Z" fill="#800000"/>
<path d="M1447.86 2057.12L1450.84 2037.56L1452.31 2026.43C1452.34 2026.26 1452.34 2026.09 1452.33 2025.91L1450.44 1996.95L1449.43 1964.28L1451.02 1939.6L1454.77 1909.31L1457.5 1882.04L1459.1 1869.71L1437.82 1877.24C1437.6 1877.31 1437.37 1877.37 1437.13 1877.39L1418.61 1879.27C1418.43 1879.29 1418.24 1879.3 1418.06 1879.28L1400.31 1877.82C1400.16 1877.81 1400.02 1877.79 1399.87 1877.76L1379.41 1873C1379.21 1872.95 1379.01 1872.88 1378.82 1872.79L1365.87 1866.7C1365.61 1866.58 1365.38 1866.43 1365.17 1866.24L1354.71 1857.07L1361.44 1878.73C1361.5 1878.93 1361.54 1879.13 1361.56 1879.34L1363.51 1900L1364.68 1917.98L1365.22 1942.09L1362.95 1987.64C1362.93 1987.88 1362.89 1988.12 1362.83 1988.34L1352.61 2022.8L1360.4 2046.74C1360.5 2047.05 1360.55 2047.37 1360.55 2047.69L1360.47 2060.49L1359.18 2077.55C1359.17 2077.7 1359.17 2077.85 1359.18 2078L1360.55 2096.33C1360.56 2096.52 1360.6 2096.7 1360.65 2096.88L1365.38 2114.49C1365.46 2114.8 1365.6 2115.1 1365.77 2115.36L1371.52 2124.05C1371.62 2124.2 1371.74 2124.35 1371.87 2124.48L1380.9 2133.8C1381.08 2133.99 1381.28 2134.15 1381.5 2134.28L1405.22 2148.66L1411.54 2136.43L1419.37 2124.72L1426.82 2114.23C1426.95 2114.06 1427.09 2113.9 1427.24 2113.76L1437.39 2104.49C1437.57 2104.33 1437.77 2104.19 1437.98 2104.07L1449.23 2097.93L1445.61 2090.82V2090.82C1445.44 2090.46 1445.34 2090.08 1445.33 2089.68V2089.68L1444.97 2075.53V2075.53C1444.97 2075.37 1444.98 2075.2 1445.01 2075.04V2075.04L1447.86 2057.12Z" fill="#800000"/>
<path d="M1354.71 1857.07L1332.53 1869.9L1320.83 1880.82L1309.69 1892.8C1309.55 1892.95 1309.42 1893.12 1309.31 1893.29L1301.94 1905.5C1301.69 1905.92 1301.55 1906.39 1301.52 1906.88L1300.84 1918.28C1300.83 1918.55 1300.85 1918.82 1300.91 1919.09L1306.42 1944.49C1306.5 1944.87 1306.65 1945.22 1306.87 1945.54L1312.59 1953.95L1326.98 1975.46C1327.08 1975.6 1327.19 1975.73 1327.3 1975.85L1335.15 1984.12C1335.33 1984.32 1335.49 1984.54 1335.62 1984.77L1344.63 2001.61L1352.61 2022.8L1362.83 1988.34C1362.89 1988.12 1362.93 1987.88 1362.95 1987.64L1365.22 1942.09L1364.68 1917.98L1363.51 1900L1361.56 1879.34C1361.54 1879.13 1361.5 1878.93 1361.44 1878.73L1354.71 1857.07Z" fill="#800000"/>
<path fill-rule="evenodd" clip-rule="evenodd" d="M956.994 1162.18L1089.05 1231.7L1203.26 1295.69L1285.36 1332.17L1329 1351.55L1348.04 1361.07L1366.2 1371.53C1366.36 1371.63 1366.51 1371.74 1366.65 1371.86L1380.74 1384.54C1380.87 1384.65 1380.98 1384.77 1381.08 1384.91L1392.79 1400.39C1392.93 1400.58 1393.05 1400.79 1393.14 1401.01L1398.61 1414.72L1403 1431.03C1403.06 1431.25 1403.09 1431.48 1403.09 1431.71L1403.15 1446.61C1403.15 1446.8 1403.13 1447 1403.08 1447.19L1398.26 1468.97C1398.21 1469.18 1398.14 1469.38 1398.04 1469.57L1384.93 1496.03C1384.87 1496.15 1384.8 1496.26 1384.73 1496.37L1371.5 1522.5L1357.5 1553.5L1350.65 1570.03C1350.55 1570.2 1350.47 1570.38 1350.41 1570.57L1346.42 1583.51C1346.37 1583.67 1346.33 1583.84 1346.31 1584.01L1344.53 1600.43C1344.51 1600.62 1344.51 1600.82 1344.53 1601.01L1344.5 1627L1346.24 1694.33C1346.24 1694.53 1346.27 1694.73 1346.31 1694.93L1359.61 1752.81L1365.69 1775.42L1371.02 1795.23C1371.06 1795.39 1371.09 1795.56 1371.1 1795.73L1372.2 1811.23C1372.22 1811.5 1372.19 1811.77 1372.13 1812.04L1365.94 1837.58L1376.3 1842.11L1387.87 1847.74C1388.23 1847.91 1388.62 1848.02 1389.01 1848.04L1402.36 1848.83L1418.33 1848.65L1437.75 1847.04C1437.93 1847.02 1438.11 1846.99 1438.28 1846.94L1464 1840.03L1466.97 1823.67L1482.17 1744.09L1500.22 1680.21L1522.09 1608.45L1540.72 1546.7L1560.47 1482.37L1578.08 1427.48C1578.12 1427.35 1578.15 1427.22 1578.17 1427.09L1581.23 1408.15L1583.41 1387.68C1583.43 1387.51 1583.43 1387.35 1583.41 1387.18L1582.08 1370.65C1582.07 1370.49 1582.04 1370.34 1582 1370.18L1577.45 1353.28C1577.39 1353.04 1577.29 1352.81 1577.16 1352.6L1565.1 1332.64C1565.03 1332.52 1564.94 1332.4 1564.84 1332.29L1518.37 1278.19L1478.75 1238.06L1441.65 1207.32L1394.5 1171.5L1274.73 1073.55C1274.07 1073.01 1273.19 1072.82 1272.36 1073.04L957.544 1157.27C955.214 1157.9 954.86 1161.06 956.994 1162.18ZM1445.33 2089.68C1445.34 2090.08 1445.44 2090.46 1445.61 2090.82V2090.82C1445.44 2090.46 1445.34 2090.08 1445.33 2089.68V2089.68ZM1445.01 2075.04C1444.98 2075.2 1444.97 2075.37 1444.97 2075.53V2075.53C1444.97 2075.37 1444.98 2075.2 1445.01 2075.04V2075.04ZM1289.31 1942.25C1289.41 1942.6 1289.43 1942.98 1289.37 1943.34V1943.34C1289.43 1942.98 1289.41 1942.61 1289.31 1942.25L1289.31 1942.25ZM1310.02 1989.83C1311.22 1988.28 1313.64 1988.53 1314.5 1990.3V1990.3C1313.65 1988.52 1311.22 1988.27 1310.02 1989.83V1989.83ZM1332.81 2029.27C1332.88 2029.41 1332.93 2029.55 1332.97 2029.7L1332.96 2029.69C1332.92 2029.55 1332.87 2029.41 1332.81 2029.27V2029.27ZM1341.65 2061.97C1341.71 2062.21 1341.74 2062.45 1341.74 2062.69V2062.69C1341.74 2062.45 1341.71 2062.21 1341.65 2061.98L1341.65 2061.97Z" fill="#800000"/>
<path d="M1365.94 1837.58L1354.71 1857.07L1365.17 1866.24C1365.38 1866.43 1365.61 1866.58 1365.87 1866.7L1378.82 1872.79C1379.01 1872.88 1379.21 1872.95 1379.41 1873L1399.87 1877.76C1400.02 1877.79 1400.16 1877.81 1400.31 1877.82L1418.06 1879.28C1418.24 1879.3 1418.43 1879.29 1418.61 1879.27L1437.13 1877.39C1437.37 1877.37 1437.6 1877.31 1437.82 1877.24L1459.1 1869.71L1460.33 1860.23L1464 1840.03L1438.28 1846.94C1438.11 1846.99 1437.93 1847.02 1437.75 1847.04L1418.33 1848.65L1402.36 1848.83L1389.01 1848.04C1388.62 1848.02 1388.23 1847.91 1387.87 1847.74L1376.3 1842.11L1365.94 1837.58Z" fill="#800000"/>
<path d="M1488.17 2142.36L1475.62 2129.72L1459.45 2112.11L1449.23 2097.93L1437.98 2104.07C1437.77 2104.19 1437.57 2104.33 1437.39 2104.49L1427.24 2113.76C1427.09 2113.9 1426.95 2114.06 1426.82 2114.23L1419.37 2124.72L1411.54 2136.43L1405.22 2148.66L1439.07 2165.63L1459.99 2173.44C1460.28 2173.56 1460.6 2173.62 1460.91 2173.63L1477.56 2174.35C1477.87 2174.36 1478.18 2174.33 1478.47 2174.25L1496.2 2169.48C1496.6 2169.38 1496.96 2169.19 1497.28 2168.94L1507.37 2160.99L1501.95 2154.02C1501.83 2153.87 1501.7 2153.74 1501.56 2153.62L1488.17 2142.36Z" fill="#800000"/>
<path d="M1365.94 1837.58L1354.71 1857.07M1365.94 1837.58L1376.3 1842.11L1387.87 1847.74C1388.23 1847.91 1388.62 1848.02 1389.01 1848.04L1402.36 1848.83L1418.33 1848.65L1437.75 1847.04C1437.93 1847.02 1438.11 1846.99 1438.28 1846.94L1464 1840.03M1365.94 1837.58L1372.13 1812.04M1354.71 1857.07L1332.53 1869.9M1354.71 1857.07L1361.44 1878.73C1361.5 1878.93 1361.54 1879.13 1361.56 1879.34L1363.51 1900L1364.68 1917.98L1365.22 1942.09L1362.95 1987.64C1362.93 1987.88 1362.89 1988.12 1362.83 1988.34L1352.61 2022.8M1354.71 1857.07L1365.17 1866.24C1365.38 1866.43 1365.61 1866.58 1365.87 1866.7L1378.82 1872.79C1379.01 1872.88 1379.21 1872.95 1379.41 1873L1399.87 1877.76C1400.02 1877.79 1400.16 1877.81 1400.31 1877.82L1418.06 1879.28C1418.24 1879.3 1418.43 1879.29 1418.61 1879.27L1437.13 1877.39C1437.37 1877.37 1437.6 1877.31 1437.82 1877.24L1459.1 1869.71M1332.53 1869.9L1312.48 1875.29L1299.01 1880.67M1332.53 1869.9L1320.83 1880.82L1309.69 1892.8C1309.55 1892.95 1309.42 1893.12 1309.31 1893.29L1301.94 1905.5C1301.69 1905.92 1301.55 1906.39 1301.52 1906.88L1300.84 1918.28C1300.83 1918.55 1300.85 1918.82 1300.91 1919.09L1306.42 1944.49C1306.5 1944.87 1306.65 1945.22 1306.87 1945.54L1312.59 1953.95L1326.98 1975.46C1327.08 1975.6 1327.19 1975.73 1327.3 1975.85L1335.15 1984.12C1335.33 1984.32 1335.49 1984.54 1335.62 1984.77L1344.63 2001.61L1352.61 2022.8M1507.37 2160.99L1497.28 2168.94C1496.96 2169.19 1496.6 2169.38 1496.2 2169.48L1478.47 2174.25C1478.18 2174.33 1477.87 2174.36 1477.56 2174.35L1460.91 2173.63C1460.6 2173.62 1460.28 2173.56 1459.99 2173.44L1439.07 2165.63L1405.22 2148.66M1507.37 2160.99L1501.95 2154.02M1507.37 2160.99L1507.69 2168.24M1449.23 2097.93L1459.45 2112.11L1475.62 2129.72L1488.17 2142.36L1501.56 2153.62M1449.23 2097.93L1437.98 2104.07C1437.77 2104.19 1437.57 2104.33 1437.39 2104.49L1427.24 2113.76C1427.09 2113.9 1426.95 2114.06 1426.82 2114.23L1419.37 2124.72L1411.54 2136.43L1405.22 2148.66M1449.23 2097.93L1445.61 2090.82M1405.22 2148.66L1381.5 2134.28C1381.28 2134.15 1381.08 2133.99 1380.9 2133.8L1371.87 2124.48C1371.74 2124.35 1371.62 2124.2 1371.52 2124.05L1365.77 2115.36C1365.6 2115.1 1365.46 2114.8 1365.38 2114.49L1360.65 2096.88C1360.6 2096.7 1360.56 2096.52 1360.55 2096.33L1359.18 2078C1359.17 2077.85 1359.17 2077.7 1359.18 2077.55L1360.47 2060.49L1360.55 2047.69C1360.55 2047.37 1360.5 2047.05 1360.4 2046.74L1352.61 2022.8M1459.1 1869.71L1457.5 1882.04L1454.77 1909.31L1451.02 1939.6L1449.43 1964.28L1450.44 1996.95L1452.33 2025.91M1459.1 1869.71L1460.33 1860.23L1464 1840.03M1464 1840.03L1466.97 1823.67L1482.17 1744.09L1500.22 1680.21L1522.09 1608.45L1540.72 1546.7L1560.47 1482.37L1578.08 1427.48M956.994 1162.18L1089.05 1231.7L1203.26 1295.69L1285.36 1332.17L1329 1351.55L1348.04 1361.07L1366.2 1371.53M956.994 1162.18C954.86 1161.06 955.214 1157.9 957.544 1157.27M956.994 1162.18V1162.18C954.86 1161.06 955.214 1157.9 957.544 1157.27V1157.27M957.544 1157.27L1272.36 1073.04M1272.36 1073.04C1273.19 1072.82 1274.07 1073.01 1274.73 1073.55M1272.36 1073.04V1073.04C1273.19 1072.82 1274.07 1073.01 1274.73 1073.55V1073.55M1274.73 1073.55L1394.5 1171.5L1441.65 1207.32L1478.75 1238.06L1518.37 1278.19L1564.84 1332.29M1564.84 1332.29C1564.94 1332.4 1565.03 1332.52 1565.1 1332.64M1564.84 1332.29V1332.29C1564.94 1332.4 1565.03 1332.52 1565.1 1332.64V1332.64M1565.1 1332.64L1577.16 1352.6M1577.16 1352.6C1577.29 1352.81 1577.39 1353.04 1577.45 1353.28M1577.16 1352.6V1352.6C1577.29 1352.81 1577.39 1353.04 1577.45 1353.28V1353.28M1577.45 1353.28L1582 1370.18M1582 1370.18C1582.04 1370.34 1582.07 1370.49 1582.08 1370.65M1582 1370.18V1370.18C1582.04 1370.34 1582.07 1370.49 1582.08 1370.65V1370.65M1582.08 1370.65L1583.41 1387.18M1583.41 1387.18C1583.43 1387.35 1583.43 1387.51 1583.41 1387.68M1583.41 1387.18V1387.18C1583.43 1387.35 1583.43 1387.51 1583.41 1387.68V1387.68M1583.41 1387.68L1581.23 1408.15L1578.17 1427.09M1578.17 1427.09C1578.15 1427.22 1578.12 1427.35 1578.08 1427.48M1578.17 1427.09V1427.09C1578.15 1427.22 1578.12 1427.35 1578.08 1427.48V1427.48M1452.33 2025.91C1452.34 2026.09 1452.34 2026.26 1452.31 2026.43M1452.33 2025.91V2025.91C1452.34 2026.09 1452.34 2026.26 1452.31 2026.43V2026.43M1452.31 2026.43L1450.84 2037.56L1447.86 2057.12L1445.01 2075.04M1445.01 2075.04C1444.98 2075.2 1444.97 2075.37 1444.97 2075.53M1445.01 2075.04V2075.04C1444.98 2075.2 1444.97 2075.37 1444.97 2075.53V2075.53M1444.97 2075.53L1445.33 2089.68M1445.33 2089.68C1445.34 2090.08 1445.44 2090.46 1445.61 2090.82M1445.33 2089.68V2089.68C1445.34 2090.08 1445.44 2090.46 1445.61 2090.82V2090.82M1501.56 2153.62C1501.7 2153.74 1501.83 2153.87 1501.95 2154.02M1501.56 2153.62V2153.62C1501.7 2153.74 1501.83 2153.87 1501.95 2154.02V2154.02M1507.69 2168.24C1507.71 2168.82 1507.55 2169.38 1507.22 2169.86M1507.69 2168.24V2168.24C1507.71 2168.82 1507.55 2169.38 1507.22 2169.86V2169.86M1507.22 2169.86L1499 2181.82M1499 2181.82V2181.82C1498.9 2181.96 1498.78 2182.1 1498.65 2182.23V2182.23M1499 2181.82C1498.9 2181.96 1498.78 2182.1 1498.65 2182.23M1498.65 2182.23L1492.07 2188.56M1492.07 2188.56C1491.74 2188.86 1491.35 2189.09 1490.92 2189.2M1492.07 2188.56V2188.56C1491.74 2188.86 1491.35 2189.09 1490.92 2189.2V2189.2M1490.92 2189.2L1477.18 2192.9M1477.18 2192.9C1476.83 2192.99 1476.45 2193.01 1476.09 2192.96M1477.18 2192.9V2192.9C1476.83 2192.99 1476.45 2193.01 1476.09 2192.96V2192.96M1476.09 2192.96L1460.41 2190.55L1435.87 2184.34L1416.44 2176.75L1398.29 2168.82L1373.27 2154.05L1350.76 2137.18M1350.76 2137.18C1350.49 2136.98 1350.26 2136.73 1350.09 2136.44M1350.76 2137.18V2137.18C1350.49 2136.98 1350.26 2136.73 1350.09 2136.44V2136.44M1350.09 2136.44L1344.81 2127.76M1344.81 2127.76C1344.68 2127.55 1344.58 2127.32 1344.52 2127.07M1344.81 2127.76V2127.76C1344.68 2127.55 1344.58 2127.32 1344.52 2127.07V2127.07M1344.52 2127.07L1341.82 2117.07M1341.82 2117.07C1341.77 2116.87 1341.74 2116.67 1341.73 2116.47M1341.82 2117.07V2117.07C1341.77 2116.87 1341.74 2116.67 1341.73 2116.47V2116.47M1341.73 2116.47L1341.29 2103.17L1341.44 2081.63L1341.74 2062.7M1341.74 2062.7C1341.74 2062.7 1341.74 2062.69 1341.74 2062.69M1341.74 2062.7L1341.74 2062.69M1341.65 2061.97L1337.15 2045.26L1332.97 2029.7M1341.65 2061.97C1341.71 2062.21 1341.74 2062.45 1341.74 2062.69M1341.65 2061.97L1341.65 2061.98C1341.71 2062.21 1341.74 2062.45 1341.74 2062.69V2062.69M1332.97 2029.7C1332.93 2029.55 1332.88 2029.41 1332.81 2029.27M1332.97 2029.7L1332.96 2029.69C1332.92 2029.55 1332.87 2029.41 1332.81 2029.27V2029.27M1332.81 2029.27L1319.87 2001.41L1314.5 1990.3L1314.5 1990.3M1332.81 2029.27C1332.81 2029.27 1332.81 2029.27 1332.81 2029.27M1332.81 2029.27L1332.81 2029.27M1310.01 1989.84L1306.87 1993.93L1298.02 2008.66L1285.81 2032.99L1277.6 2053.5L1262.07 2103.87M1310.01 1989.84C1310.02 1989.84 1310.02 1989.83 1310.02 1989.83M1310.01 1989.84L1310.02 1989.83M1262.07 2103.87C1261.53 2105.6 1259.46 2106.3 1257.99 2105.25M1262.07 2103.87V2103.87C1261.53 2105.6 1259.46 2106.3 1257.99 2105.25V2105.25M1257.99 2105.25L1249.49 2099.17M1249.49 2099.17C1248.57 2098.52 1248.17 2097.35 1248.49 2096.27M1249.49 2099.17V2099.17C1248.57 2098.52 1248.17 2097.35 1248.49 2096.27V2096.27M1248.49 2096.27L1284.74 1972.88L1289.37 1943.35M1289.37 1943.35C1289.37 1943.34 1289.37 1943.34 1289.37 1943.34M1289.37 1943.35L1289.37 1943.34M1289.31 1942.25L1284.23 1923.35M1289.31 1942.25C1289.41 1942.6 1289.43 1942.98 1289.37 1943.34M1289.31 1942.25L1289.31 1942.25C1289.41 1942.61 1289.43 1942.98 1289.37 1943.34V1943.34M1284.23 1923.35C1284.2 1923.23 1284.17 1923.1 1284.16 1922.97M1284.23 1923.35V1923.35C1284.2 1923.23 1284.17 1923.1 1284.16 1922.97V1922.97M1284.16 1922.97L1282.82 1911.48M1282.82 1911.48C1282.8 1911.28 1282.8 1911.09 1282.82 1910.89M1282.82 1911.48V1911.48C1282.8 1911.28 1282.8 1911.09 1282.82 1910.89V1910.89M1282.82 1910.89L1283.66 1903.14M1283.66 1903.14C1283.69 1902.85 1283.77 1902.57 1283.9 1902.3M1283.66 1903.14V1903.14C1283.69 1902.85 1283.77 1902.57 1283.9 1902.3V1902.3M1283.9 1902.3L1286.91 1895.89L1291.27 1888.93M1291.27 1888.93C1291.35 1888.8 1291.44 1888.68 1291.55 1888.57M1291.27 1888.93V1888.93C1291.35 1888.8 1291.44 1888.68 1291.55 1888.57V1888.57M1291.55 1888.57L1298.02 1881.36M1298.02 1881.36C1298.29 1881.06 1298.63 1880.82 1299.01 1880.67M1298.02 1881.36V1881.36C1298.29 1881.06 1298.63 1880.82 1299.01 1880.67V1880.67M1372.13 1812.04C1372.19 1811.77 1372.22 1811.5 1372.2 1811.23M1372.13 1812.04V1812.04C1372.19 1811.77 1372.22 1811.5 1372.2 1811.23V1811.23M1372.2 1811.23L1371.1 1795.73M1371.1 1795.73C1371.09 1795.56 1371.06 1795.39 1371.02 1795.23M1371.1 1795.73V1795.73C1371.09 1795.56 1371.06 1795.39 1371.02 1795.23V1795.23M1371.02 1795.23L1365.69 1775.42L1359.61 1752.81L1346.31 1694.93C1346.27 1694.73 1346.24 1694.53 1346.24 1694.33L1344.5 1627L1344.53 1601.01M1344.53 1601.01C1344.51 1600.82 1344.51 1600.62 1344.53 1600.43M1344.53 1601.01V1601.01C1344.51 1600.82 1344.51 1600.62 1344.53 1600.43V1600.43M1344.53 1600.43L1346.31 1584.01M1346.31 1584.01C1346.33 1583.84 1346.37 1583.67 1346.42 1583.51M1346.31 1584.01V1584.01C1346.33 1583.84 1346.37 1583.67 1346.42 1583.51V1583.51M1346.42 1583.51L1350.41 1570.57M1350.41 1570.57C1350.47 1570.38 1350.55 1570.2 1350.65 1570.03M1350.41 1570.57V1570.57C1350.47 1570.38 1350.55 1570.2 1350.65 1570.03V1570.03M1350.65 1570.03L1357.5 1553.5L1371.5 1522.5L1384.73 1496.37M1384.73 1496.37C1384.8 1496.26 1384.87 1496.15 1384.93 1496.03M1384.73 1496.37V1496.37C1384.8 1496.26 1384.87 1496.15 1384.93 1496.03V1496.03M1384.93 1496.03L1398.04 1469.57M1398.04 1469.57C1398.14 1469.38 1398.21 1469.18 1398.26 1468.97M1398.04 1469.57V1469.57C1398.14 1469.38 1398.21 1469.18 1398.26 1468.97V1468.97M1398.26 1468.97L1403.08 1447.19M1403.08 1447.19C1403.13 1447 1403.15 1446.8 1403.15 1446.61M1403.08 1447.19V1447.19C1403.13 1447 1403.15 1446.8 1403.15 1446.61V1446.61M1403.15 1446.61L1403.09 1431.71M1403.09 1431.71C1403.09 1431.48 1403.06 1431.25 1403 1431.03M1403.09 1431.71V1431.71C1403.09 1431.48 1403.06 1431.25 1403 1431.03V1431.03M1403 1431.03L1398.61 1414.72L1393.14 1401.01M1393.14 1401.01C1393.05 1400.79 1392.93 1400.58 1392.79 1400.39M1393.14 1401.01V1401.01C1393.05 1400.79 1392.93 1400.58 1392.79 1400.39V1400.39M1392.79 1400.39L1381.08 1384.91M1381.08 1384.91C1380.98 1384.77 1380.87 1384.65 1380.74 1384.54M1381.08 1384.91V1384.91C1380.98 1384.77 1380.87 1384.65 1380.74 1384.54V1384.54M1380.74 1384.54L1366.65 1371.86M1366.65 1371.86C1366.51 1371.74 1366.36 1371.63 1366.2 1371.53M1366.65 1371.86V1371.86C1366.51 1371.74 1366.36 1371.63 1366.2 1371.53V1371.53M1310.02 1989.83C1311.22 1988.28 1313.64 1988.53 1314.5 1990.3M1310.02 1989.83V1989.83C1311.22 1988.27 1313.65 1988.52 1314.5 1990.3V1990.3" stroke="black" stroke-width="4" stroke-linecap="round"/>
<path d="M412.497 1782.75L394.212 1772.91L380.724 1767.57C380.345 1767.42 379.936 1767.36 379.53 1767.39L369.872 1768.19C369.721 1768.2 369.57 1768.23 369.423 1768.27L361.475 1770.33L354.885 1772.93C354.612 1773.03 354.359 1773.18 354.135 1773.38L348.206 1778.43C348.055 1778.56 347.92 1778.7 347.801 1778.86L340.885 1788.13C340.807 1788.24 340.737 1788.35 340.675 1788.46L331.4 1805.69L331.397 1805.7C331.223 1806.02 330.983 1806.3 330.694 1806.53V1806.53L330.688 1806.53L307.045 1824.83L195.98 1889.66C195.006 1890.23 194.498 1891.35 194.715 1892.46L196.727 1902.71C197.076 1904.49 199.06 1905.4 200.634 1904.51L246.51 1878.55L266.559 1869.27L292.144 1859.96L308.692 1855.32L313.783 1854.51L313.792 1854.5V1854.5C315.736 1854.19 317.325 1856.04 316.73 1857.92V1857.92L316.729 1857.92L313.002 1869.69L303.29 1898.83L303.288 1898.83V1898.83C303.241 1898.97 303.183 1899.11 303.113 1899.24L303.11 1899.24L295.468 1913.44L287.266 1928.67L287.263 1928.68C287.148 1928.89 287.005 1929.09 286.836 1929.26V1929.26L286.831 1929.26L273.625 1942.82L258.723 1958.38L249.918 1968.36C249.784 1968.51 249.668 1968.68 249.572 1968.86L244.66 1977.98C244.54 1978.2 244.453 1978.44 244.401 1978.69L242.283 1988.62C242.213 1988.95 242.206 1989.29 242.263 1989.62L247.055 2017.34L255.106 2045.26L262.858 2063.48L271.776 2082.33L285.363 2103.7L295.105 2116.21C295.331 2116.5 295.616 2116.74 295.94 2116.92L308.464 2123.66C308.858 2123.87 309.298 2123.98 309.745 2123.98L318.879 2123.9C319.058 2123.89 319.237 2123.88 319.412 2123.84L333.601 2120.79C334.165 2120.67 334.674 2120.37 335.05 2119.93L339.796 2114.44L327.003 2113.3C326.598 2113.26 326.205 2113.14 325.848 2112.95L309.68 2104.24C309.41 2104.1 309.164 2103.91 308.95 2103.69L297.334 2091.74C297.115 2091.51 296.932 2091.25 296.793 2090.97L286.947 2070.93L273.988 2035.35L266.609 2008.61C266.54 2008.36 266.504 2008.11 266.501 2007.85L266.329 1994.87C266.327 1994.69 266.342 1994.5 266.373 1994.32L268.157 1984.06C268.212 1983.74 268.318 1983.44 268.471 1983.15L277.113 1967.1C277.202 1966.94 277.307 1966.78 277.425 1966.63L289.014 1952.36C289.109 1952.25 289.212 1952.14 289.322 1952.04L301.963 1940.52L310.814 1931.26C311.036 1931.03 311.22 1930.76 311.357 1930.47L322.131 1907.72L330.868 1886.83L335.878 1868.4C335.948 1868.14 335.984 1867.87 335.983 1867.6L335.954 1856.2C335.954 1856.03 335.968 1855.87 335.996 1855.7L340.291 1830.18L341.904 1820.14C341.965 1819.76 342.099 1819.39 342.298 1819.06L355.727 1796.81C355.869 1796.58 356.041 1796.36 356.24 1796.18L364.557 1788.35C364.912 1788.01 365.341 1787.77 365.81 1787.64L379.55 1783.82C379.749 1783.77 379.953 1783.73 380.159 1783.72L396.487 1782.66L412.497 1782.75Z" fill="#800000"/>
<path d="M367.83 1998.06L383.42 1985.88L392.133 1978.8C392.269 1978.69 392.393 1978.57 392.504 1978.43L411.009 1956.07L432.703 1931.62L450.806 1914.78L474.326 1895.32L495.033 1877.37L504.657 1869.5L484.02 1860.37C483.801 1860.27 483.595 1860.15 483.406 1860L468.647 1848.66C468.502 1848.55 468.367 1848.42 468.244 1848.29L456.336 1835.04C456.238 1834.93 456.148 1834.82 456.067 1834.69L444.454 1817.19C444.337 1817.01 444.239 1816.82 444.162 1816.63L438.926 1803.31C438.824 1803.05 438.758 1802.78 438.732 1802.5L437.424 1788.64L427.448 1809.01C427.357 1809.2 427.246 1809.38 427.119 1809.54L414.354 1825.9L402.864 1839.79L386.705 1857.68L353.78 1889.25C353.608 1889.41 353.416 1889.55 353.21 1889.67L322.131 1907.72L311.357 1930.47C311.22 1930.76 311.036 1931.03 310.814 1931.26L301.963 1940.52L289.322 1952.04C289.212 1952.14 289.109 1952.25 289.014 1952.36L277.425 1966.63C277.307 1966.78 277.202 1966.94 277.113 1967.1L268.471 1983.15C268.318 1983.44 268.212 1983.74 268.157 1984.06L266.373 1994.32C266.342 1994.5 266.327 1994.69 266.329 1994.87L266.501 2007.85C266.504 2008.11 266.54 2008.36 266.609 2008.61L273.988 2035.35L286.975 2030.8L300.71 2027.66L313.323 2025.15C313.532 2025.1 313.745 2025.09 313.959 2025.09L327.699 2025.32C327.94 2025.32 328.179 2025.35 328.412 2025.41L340.809 2028.67L343.063 2021.02V2021.02C343.175 2020.64 343.37 2020.29 343.634 2020V2020L353.095 2009.46V2009.46C353.203 2009.34 353.321 2009.23 353.45 2009.13V2009.13L367.83 1998.06Z" fill="#800000"/>
<path d="M437.424 1788.64L412.497 1782.75L396.487 1782.66L380.159 1783.72C379.953 1783.73 379.749 1783.77 379.55 1783.82L365.81 1787.64C365.341 1787.77 364.912 1788.01 364.557 1788.35L356.24 1796.18C356.041 1796.36 355.869 1796.58 355.727 1796.81L342.298 1819.06C342.099 1819.39 341.965 1819.76 341.904 1820.14L340.291 1830.18L335.996 1855.7C335.968 1855.87 335.954 1856.03 335.954 1856.2L335.983 1867.6C335.984 1867.87 335.948 1868.14 335.878 1868.4L330.868 1886.83L322.131 1907.72L353.21 1889.67C353.416 1889.55 353.608 1889.41 353.78 1889.25L386.705 1857.68L402.864 1839.79L414.354 1825.9L427.119 1809.54C427.246 1809.38 427.357 1809.2 427.448 1809.01L437.424 1788.64Z" fill="#800000"/>
<path fill-rule="evenodd" clip-rule="evenodd" d="M625.261 1010.34L673.558 1151.54L712.675 1276.47L747.332 1359.36L765.767 1403.41L773.07 1423.4L779.095 1443.48C779.149 1443.66 779.183 1443.84 779.198 1444.03L780.742 1462.92C780.755 1463.08 780.753 1463.25 780.735 1463.42L778.618 1482.71C778.592 1482.95 778.535 1483.18 778.448 1483.4L773.013 1497.13L765.008 1512C764.9 1512.2 764.766 1512.39 764.609 1512.56L754.424 1523.43C754.29 1523.58 754.14 1523.7 753.978 1523.81L735.518 1536.34C735.34 1536.46 735.149 1536.55 734.948 1536.63L707.251 1546.86C707.125 1546.91 706.996 1546.94 706.865 1546.97L679.311 1556.89L647.85 1569.82L631.522 1577.13C631.332 1577.19 631.15 1577.27 630.978 1577.37L619.189 1584.04C619.042 1584.12 618.903 1584.22 618.775 1584.33L606.201 1595.05C606.055 1595.17 605.923 1595.31 605.807 1595.47L587.941 1614.34L542.983 1664.5C542.85 1664.65 542.731 1664.81 542.63 1664.98L512.561 1716.19L501.46 1736.81L491.737 1754.87C491.656 1755.02 491.562 1755.16 491.454 1755.29L481.613 1767.32C481.44 1767.53 481.236 1767.71 481.007 1767.86L458.969 1782.18L463.399 1792.59L467.946 1804.63C468.085 1805 468.297 1805.34 468.568 1805.63L477.734 1815.36L489.465 1826.2L504.695 1838.36C504.835 1838.47 504.986 1838.57 505.144 1838.65L528.596 1851.28L541.983 1841.43L607.665 1793.99L664.639 1759.94L729.813 1722.77L785.741 1690.65L844.271 1657.44L894.757 1629.61C894.874 1629.55 894.985 1629.47 895.091 1629.39L910.313 1617.72L925.954 1604.33C926.079 1604.22 926.194 1604.1 926.297 1603.97L936.673 1591.04C936.774 1590.91 936.863 1590.78 936.939 1590.64L945.235 1575.23C945.352 1575.01 945.439 1574.78 945.491 1574.53L950.422 1551.74C950.453 1551.6 950.472 1551.45 950.479 1551.31L953.816 1480.07L952.557 1423.69L946.69 1375.87L936.991 1317.46L917.139 1164.01C917.029 1163.16 916.52 1162.42 915.769 1162.02L629.029 1007.14C626.906 1006 624.48 1008.05 625.261 1010.34ZM343.634 2020C343.37 2020.29 343.175 2020.64 343.063 2021.02V2021.02C343.175 2020.64 343.37 2020.29 343.634 2020V2020ZM353.45 2009.13C353.321 2009.23 353.203 2009.34 353.095 2009.46V2009.46C353.203 2009.34 353.321 2009.23 353.45 2009.13V2009.13ZM331.4 1805.69C331.225 1806.01 330.985 1806.3 330.694 1806.53V1806.53C330.983 1806.3 331.223 1806.02 331.397 1805.7L331.4 1805.69ZM313.792 1854.5C315.735 1854.2 317.323 1856.04 316.73 1857.92V1857.92C317.325 1856.04 315.736 1854.19 313.792 1854.5V1854.5ZM303.288 1898.83C303.24 1898.97 303.181 1899.11 303.11 1899.24L303.113 1899.24C303.183 1899.11 303.241 1898.97 303.288 1898.83V1898.83ZM287.266 1928.67C287.15 1928.89 287.006 1929.08 286.836 1929.26V1929.26C287.005 1929.09 287.148 1928.89 287.263 1928.68L287.266 1928.67Z" fill="#800000"/>
<path d="M458.969 1782.18L437.424 1788.64L438.732 1802.5C438.758 1802.78 438.824 1803.05 438.926 1803.31L444.162 1816.63C444.239 1816.82 444.337 1817.01 444.454 1817.19L456.067 1834.69C456.148 1834.82 456.238 1834.93 456.336 1835.04L468.244 1848.29C468.367 1848.42 468.502 1848.55 468.647 1848.66L483.406 1860C483.595 1860.15 483.801 1860.27 484.02 1860.37L504.657 1869.5L512.059 1863.45L528.596 1851.28L505.144 1838.65C504.986 1838.57 504.835 1838.47 504.695 1838.36L489.465 1826.2L477.734 1815.36L468.568 1805.63C468.297 1805.34 468.085 1805 467.946 1804.63L463.399 1792.59L458.969 1782.18Z" fill="#800000"/>
<path d="M338.628 2087.71L338.178 2069.91L338.506 2046L340.809 2028.67L328.412 2025.41C328.179 2025.35 327.94 2025.32 327.699 2025.32L313.959 2025.09C313.745 2025.09 313.532 2025.1 313.323 2025.15L300.71 2027.66L286.975 2030.8L273.988 2035.35L286.947 2070.93L296.793 2090.97C296.932 2091.25 297.115 2091.51 297.334 2091.74L308.95 2103.69C309.164 2103.91 309.41 2104.1 309.68 2104.24L325.848 2112.95C326.205 2113.14 326.598 2113.26 327.003 2113.3L339.796 2114.44L340.637 2105.65C340.654 2105.46 340.653 2105.28 340.631 2105.09L338.628 2087.71Z" fill="#800000"/>
<path d="M458.969 1782.18L437.424 1788.64M458.969 1782.18L463.399 1792.59L467.946 1804.63C468.085 1805 468.297 1805.34 468.568 1805.63L477.734 1815.36L489.465 1826.2L504.695 1838.36C504.835 1838.47 504.986 1838.57 505.144 1838.65L528.596 1851.28M458.969 1782.18L481.007 1767.86M437.424 1788.64L412.497 1782.75M437.424 1788.64L427.448 1809.01C427.357 1809.2 427.246 1809.38 427.119 1809.54L414.354 1825.9L402.864 1839.79L386.705 1857.68L353.78 1889.25C353.608 1889.41 353.416 1889.55 353.21 1889.67L322.131 1907.72M437.424 1788.64L438.732 1802.5C438.758 1802.78 438.824 1803.05 438.926 1803.31L444.162 1816.63C444.239 1816.82 444.337 1817.01 444.454 1817.19L456.067 1834.69C456.148 1834.82 456.238 1834.93 456.336 1835.04L468.244 1848.29C468.367 1848.42 468.502 1848.55 468.647 1848.66L483.406 1860C483.595 1860.15 483.801 1860.27 484.02 1860.37L504.657 1869.5M412.497 1782.75L394.212 1772.91L380.724 1767.57M412.497 1782.75L396.487 1782.66L380.159 1783.72C379.953 1783.73 379.749 1783.77 379.55 1783.82L365.81 1787.64C365.341 1787.77 364.912 1788.01 364.557 1788.35L356.24 1796.18C356.041 1796.36 355.869 1796.58 355.727 1796.81L342.298 1819.06C342.099 1819.39 341.965 1819.76 341.904 1820.14L340.291 1830.18L335.996 1855.7C335.968 1855.87 335.954 1856.03 335.954 1856.2L335.983 1867.6C335.984 1867.87 335.948 1868.14 335.878 1868.4L330.868 1886.83L322.131 1907.72M339.796 2114.44L327.003 2113.3C326.598 2113.26 326.205 2113.14 325.848 2112.95L309.68 2104.24C309.41 2104.1 309.164 2103.91 308.95 2103.69L297.334 2091.74C297.115 2091.51 296.932 2091.25 296.793 2090.97L286.947 2070.93L273.988 2035.35M339.796 2114.44L340.637 2105.65M339.796 2114.44L335.05 2119.93M340.809 2028.67L338.506 2046L338.178 2069.91L338.628 2087.71L340.631 2105.09M340.809 2028.67L328.412 2025.41C328.179 2025.35 327.94 2025.32 327.699 2025.32L313.959 2025.09C313.745 2025.09 313.532 2025.1 313.323 2025.15L300.71 2027.66L286.975 2030.8L273.988 2035.35M340.809 2028.67L343.063 2021.02M273.988 2035.35L266.609 2008.61C266.54 2008.36 266.504 2008.11 266.501 2007.85L266.329 1994.87C266.327 1994.69 266.342 1994.5 266.373 1994.32L268.157 1984.06C268.212 1983.74 268.318 1983.44 268.471 1983.15L277.113 1967.1C277.202 1966.94 277.307 1966.78 277.425 1966.63L289.014 1952.36C289.109 1952.25 289.212 1952.14 289.322 1952.04L301.963 1940.52L310.814 1931.26C311.036 1931.03 311.22 1930.76 311.357 1930.47L322.131 1907.72M504.657 1869.5L495.033 1877.37L474.326 1895.32L450.806 1914.78L432.703 1931.62L411.009 1956.07L392.504 1978.43M504.657 1869.5L512.059 1863.45L528.596 1851.28M528.596 1851.28L541.983 1841.43L607.665 1793.99L664.639 1759.94L729.813 1722.77L785.741 1690.65L844.271 1657.44L894.757 1629.61M625.261 1010.34L673.558 1151.54L712.675 1276.47L747.332 1359.36L765.767 1403.41L773.07 1423.4L779.095 1443.48M625.261 1010.34C624.48 1008.05 626.906 1006 629.029 1007.14M625.261 1010.34V1010.34C624.48 1008.05 626.906 1006 629.029 1007.14V1007.14M629.029 1007.14L915.769 1162.02M915.769 1162.02C916.52 1162.42 917.029 1163.16 917.139 1164.01M915.769 1162.02V1162.02C916.52 1162.42 917.029 1163.16 917.139 1164.01V1164.01M917.139 1164.01L936.991 1317.46L946.69 1375.87L952.557 1423.69L953.816 1480.07L950.479 1551.31M950.479 1551.31C950.472 1551.45 950.453 1551.6 950.422 1551.74M950.479 1551.31V1551.31C950.472 1551.45 950.453 1551.6 950.422 1551.74V1551.74M950.422 1551.74L945.491 1574.53M945.491 1574.53C945.439 1574.78 945.352 1575.01 945.235 1575.23M945.491 1574.53V1574.53C945.439 1574.78 945.352 1575.01 945.235 1575.23V1575.23M945.235 1575.23L936.939 1590.64M936.939 1590.64C936.863 1590.78 936.774 1590.91 936.673 1591.04M936.939 1590.64V1590.64C936.863 1590.78 936.774 1590.91 936.673 1591.04V1591.04M936.673 1591.04L926.297 1603.97M926.297 1603.97C926.194 1604.1 926.079 1604.22 925.954 1604.33M926.297 1603.97V1603.97C926.194 1604.1 926.079 1604.22 925.954 1604.33V1604.33M925.954 1604.33L910.313 1617.72L895.091 1629.39M895.091 1629.39C894.985 1629.47 894.874 1629.55 894.757 1629.61M895.091 1629.39V1629.39C894.985 1629.47 894.874 1629.55 894.757 1629.61V1629.61M392.504 1978.43C392.393 1978.57 392.269 1978.69 392.133 1978.8M392.504 1978.43V1978.43C392.393 1978.57 392.269 1978.69 392.133 1978.8V1978.8M392.133 1978.8L383.42 1985.88L367.83 1998.06L353.45 2009.13M353.45 2009.13C353.321 2009.23 353.203 2009.34 353.095 2009.46M353.45 2009.13V2009.13C353.321 2009.23 353.203 2009.34 353.095 2009.46V2009.46M353.095 2009.46L343.634 2020M343.634 2020C343.37 2020.29 343.175 2020.64 343.063 2021.02M343.634 2020V2020C343.37 2020.29 343.175 2020.64 343.063 2021.02V2021.02M340.631 2105.09C340.653 2105.28 340.654 2105.46 340.637 2105.65M340.631 2105.09V2105.09C340.653 2105.28 340.654 2105.46 340.637 2105.65V2105.65M335.05 2119.93C334.674 2120.37 334.165 2120.67 333.601 2120.79M335.05 2119.93V2119.93C334.674 2120.37 334.165 2120.67 333.601 2120.79V2120.79M333.601 2120.79L319.412 2123.84M319.412 2123.84V2123.84C319.237 2123.88 319.058 2123.89 318.879 2123.9V2123.9M319.412 2123.84C319.237 2123.88 319.058 2123.89 318.879 2123.9M318.879 2123.9L309.745 2123.98M309.745 2123.98C309.298 2123.98 308.858 2123.87 308.464 2123.66M309.745 2123.98V2123.98C309.298 2123.98 308.858 2123.87 308.464 2123.66V2123.66M308.464 2123.66L295.94 2116.92M295.94 2116.92C295.616 2116.74 295.331 2116.5 295.105 2116.21M295.94 2116.92V2116.92C295.616 2116.74 295.331 2116.5 295.105 2116.21V2116.21M295.105 2116.21L285.363 2103.7L271.776 2082.33L262.858 2063.48L255.106 2045.26L247.055 2017.34L242.263 1989.62M242.263 1989.62C242.206 1989.29 242.213 1988.95 242.283 1988.62M242.263 1989.62V1989.62C242.206 1989.29 242.213 1988.95 242.283 1988.62V1988.62M242.283 1988.62L244.401 1978.69M244.401 1978.69C244.453 1978.44 244.54 1978.2 244.66 1977.98M244.401 1978.69V1978.69C244.453 1978.44 244.54 1978.2 244.66 1977.98V1977.98M244.66 1977.98L249.572 1968.86M249.572 1968.86C249.668 1968.68 249.784 1968.51 249.918 1968.36M249.572 1968.86V1968.86C249.668 1968.68 249.784 1968.51 249.918 1968.36V1968.36M249.918 1968.36L258.723 1958.38L273.625 1942.82L286.831 1929.26M286.831 1929.26C286.833 1929.26 286.834 1929.26 286.836 1929.26M286.831 1929.26L286.836 1929.26M287.266 1928.67L295.468 1913.44L303.11 1899.24M287.266 1928.67C287.15 1928.89 287.006 1929.08 286.836 1929.26M287.266 1928.67L287.263 1928.68C287.148 1928.89 287.005 1929.09 286.836 1929.26V1929.26M303.11 1899.24C303.181 1899.11 303.24 1898.97 303.288 1898.83M303.11 1899.24L303.113 1899.24C303.183 1899.11 303.241 1898.97 303.288 1898.83V1898.83M303.29 1898.83L313.002 1869.69L316.729 1857.92L316.73 1857.92M303.29 1898.83C303.29 1898.83 303.289 1898.83 303.288 1898.83M303.29 1898.83L303.288 1898.83M313.783 1854.51L308.692 1855.32L292.144 1859.96L266.559 1869.27L246.51 1878.55L200.634 1904.51M313.783 1854.51C313.786 1854.51 313.789 1854.51 313.792 1854.5M313.783 1854.51L313.792 1854.5M200.634 1904.51C199.06 1905.4 197.076 1904.49 196.727 1902.71M200.634 1904.51V1904.51C199.06 1905.4 197.076 1904.49 196.727 1902.71V1902.71M196.727 1902.71L194.715 1892.46M194.715 1892.46C194.498 1891.35 195.006 1890.23 195.98 1889.66M194.715 1892.46V1892.46C194.498 1891.35 195.006 1890.23 195.98 1889.66V1889.66M195.98 1889.66L307.045 1824.83L330.688 1806.53M330.688 1806.53C330.69 1806.53 330.692 1806.53 330.694 1806.53M330.688 1806.53L330.694 1806.53M331.4 1805.69L340.675 1788.46M331.4 1805.69C331.225 1806.01 330.985 1806.3 330.694 1806.53M331.4 1805.69L331.397 1805.7C331.223 1806.02 330.983 1806.3 330.694 1806.53V1806.53M340.675 1788.46C340.737 1788.35 340.807 1788.24 340.885 1788.13M340.675 1788.46V1788.46C340.737 1788.35 340.807 1788.24 340.885 1788.13V1788.13M340.885 1788.13L347.801 1778.86M347.801 1778.86C347.92 1778.7 348.055 1778.56 348.206 1778.43M347.801 1778.86V1778.86C347.92 1778.7 348.055 1778.56 348.206 1778.43V1778.43M348.206 1778.43L354.135 1773.38M354.135 1773.38C354.359 1773.18 354.612 1773.03 354.885 1772.93M354.135 1773.38V1773.38C354.359 1773.18 354.612 1773.03 354.885 1772.93V1772.93M354.885 1772.93L361.475 1770.33L369.423 1768.27M369.423 1768.27C369.57 1768.23 369.721 1768.2 369.872 1768.19M369.423 1768.27V1768.27C369.57 1768.23 369.72 1768.2 369.872 1768.19V1768.19M369.872 1768.19L379.53 1767.39M379.53 1767.39C379.936 1767.36 380.345 1767.42 380.724 1767.57M379.53 1767.39V1767.39C379.936 1767.36 380.345 1767.42 380.724 1767.57V1767.57M481.007 1767.86C481.236 1767.71 481.44 1767.53 481.613 1767.32M481.007 1767.86V1767.86C481.236 1767.71 481.44 1767.53 481.613 1767.32V1767.32M481.613 1767.32L491.454 1755.29M491.454 1755.29C491.562 1755.16 491.656 1755.02 491.737 1754.87M491.454 1755.29V1755.29C491.562 1755.16 491.656 1755.02 491.737 1754.87V1754.87M491.737 1754.87L501.46 1736.81L512.561 1716.19L542.63 1664.98C542.731 1664.81 542.85 1664.65 542.983 1664.5L587.941 1614.34L605.807 1595.47M605.807 1595.47C605.923 1595.31 606.055 1595.17 606.201 1595.05M605.807 1595.47V1595.47C605.923 1595.31 606.055 1595.17 606.201 1595.05V1595.05M606.201 1595.05L618.775 1584.33M618.775 1584.33C618.903 1584.22 619.042 1584.12 619.189 1584.04M618.775 1584.33V1584.33C618.903 1584.22 619.042 1584.12 619.189 1584.04V1584.04M619.189 1584.04L630.978 1577.37M630.978 1577.37C631.15 1577.27 631.332 1577.19 631.522 1577.13M630.978 1577.37V1577.37C631.15 1577.27 631.332 1577.19 631.522 1577.13V1577.13M631.522 1577.13L647.85 1569.82L679.311 1556.89L706.865 1546.97M706.865 1546.97C706.996 1546.94 707.125 1546.91 707.251 1546.86M706.865 1546.97V1546.97C706.996 1546.94 707.125 1546.91 707.251 1546.86V1546.86M707.251 1546.86L734.948 1536.63M734.948 1536.63C735.149 1536.55 735.34 1536.46 735.518 1536.34M734.948 1536.63V1536.63C735.149 1536.55 735.34 1536.46 735.518 1536.34V1536.34M735.518 1536.34L753.978 1523.81M753.978 1523.81C754.14 1523.7 754.29 1523.58 754.424 1523.43M753.978 1523.81V1523.81C754.14 1523.7 754.29 1523.58 754.424 1523.43V1523.43M754.424 1523.43L764.609 1512.56M764.609 1512.56C764.766 1512.39 764.9 1512.2 765.008 1512M764.609 1512.56V1512.56C764.766 1512.39 764.9 1512.2 765.008 1512V1512M765.008 1512L773.013 1497.13L778.448 1483.4M778.448 1483.4C778.535 1483.18 778.592 1482.95 778.618 1482.71M778.448 1483.4V1483.4C778.535 1483.18 778.592 1482.95 778.618 1482.71V1482.71M778.618 1482.71L780.735 1463.42M780.735 1463.42C780.753 1463.25 780.755 1463.08 780.742 1462.92M780.735 1463.42V1463.42C780.753 1463.25 780.755 1463.08 780.742 1462.92V1462.92M780.742 1462.92L779.198 1444.03M779.198 1444.03C779.183 1443.84 779.149 1443.66 779.095 1443.48M779.198 1444.03V1444.03C779.183 1443.84 779.148 1443.66 779.095 1443.48V1443.48M313.792 1854.5C315.735 1854.2 317.323 1856.04 316.73 1857.92M313.792 1854.5V1854.5C315.736 1854.19 317.325 1856.04 316.73 1857.92V1857.92" stroke="black" stroke-width="4" stroke-linecap="round"/>
<path d="M148.493 511.521C160.052 480.614 163.684 433.229 164.055 413.401L224.526 439.529L236.809 419.568L268.597 482.779C266.897 477.721 268.319 473.161 287.604 495.394C311.711 523.184 439.185 532.079 473.662 534.218C508.139 536.356 631.111 516.152 668.726 508.791C706.342 501.431 698.367 474.554 700.876 466.322C703.385 458.09 689.052 418.571 688.701 404.966C688.42 394.082 692.889 352.539 695.158 333.128C759.12 322.545 889.449 302.261 899.073 305.784C908.696 309.306 954.221 352.701 975.781 373.958C994.176 394.168 1033.76 441.035 1044.96 466.829C1058.84 498.788 1114.45 571.691 1146.64 613.883L1147.49 614.997C1179.54 657.008 1180.77 641.818 1203.95 679.419C1227.13 717.02 1255.02 737.209 1272.49 767.229C1289.96 797.249 1383.45 874.562 1411.65 892.535C1434.2 906.914 1491.95 923.26 1518 929.637L1517.01 910.971C1519.85 910.015 1528.26 908.035 1539.14 907.758C1550.01 907.481 1592.55 894.035 1612.45 887.346L1666.78 860.648L1656.75 896.741L1683.89 873.9C1685.78 870.099 1689.25 867.243 1688.04 886.23C1686.52 909.964 1636.67 956.269 1626.26 969.265C1615.86 982.26 1587.29 1063.64 1596.46 1062.67C1605.63 1061.7 1598.72 1081.97 1596.53 1091.15C1594.34 1100.33 1527.13 1160.91 1495.85 1171.42C1464.57 1181.93 1465.52 1181.61 1474.71 1190.13C1482.06 1196.95 1480.54 1201.2 1478.85 1202.46L1419.13 1222.53L1405.9 1242.81C1382.42 1253.51 1333.5 1276.63 1325.68 1283.49C1315.89 1292.05 1276.08 1305.43 1265.01 1303.87C1253.93 1302.31 1243.8 1297.27 1231.14 1294.14C1221.02 1291.63 1213.24 1302.61 1210.62 1308.42L1222.65 1312.82C1214.24 1319.17 1194.62 1331.74 1183.48 1331.26C1169.57 1330.66 1171.72 1305.66 1170.42 1292.37C1169.12 1279.09 1160.89 1276.57 1148.9 1287.99C1136.91 1299.41 1094.57 1314.69 1067.38 1315.38C1045.62 1315.93 1000.07 1295.07 980.012 1284.56L931.57 1262.84C931.038 1261.26 930.542 1256.64 932.804 1250.81C935.631 1243.53 931.145 1220.76 922.884 1205.59C916.275 1193.45 896.502 1195.1 887.442 1197.44C889.57 1204.82 892.751 1220.15 888.455 1222.43C883.086 1225.29 876.164 1239.23 878.706 1243.66C881.247 1248.08 898.375 1267.66 901.57 1280.31C904.126 1290.43 896.587 1310.48 892.498 1319.25C878.99 1313.58 848.934 1300.74 836.775 1294.69C821.575 1287.13 777.259 1271.41 762.394 1271.12C750.502 1270.9 741.64 1276.34 738.695 1279.09C720.766 1275.96 679.657 1269.15 658.652 1266.92C632.395 1264.13 624.444 1246.75 619.353 1234.74C614.263 1222.72 607.905 1210.08 597.461 1207.26C587.018 1204.43 564.513 1184.55 559.422 1172.54C554.331 1160.52 542.588 1144.41 519.478 1135.29C496.368 1126.16 470.692 1103.12 458.631 1086.06C446.57 1069 453.697 1011.72 452.087 1000.65C450.477 989.577 438.783 992.45 427.718 994.057C416.654 995.663 409.364 989.667 403.955 976.707C398.545 963.746 422.889 960.845 414.652 955.168C408.062 950.626 396.941 954.785 392.204 957.432C384.626 962.089 367.32 971.915 358.723 973.959C347.977 976.514 317.578 961.393 300.164 953.522C286.232 947.224 264.836 948.853 255.88 950.455L191.419 972.113C181.561 975.425 171.916 971.629 168.326 969.316C169.056 966.256 171.395 957.729 174.913 948.102C179.309 936.069 169.43 906.665 164.65 892.438C159.869 878.21 133.818 832.072 125.581 826.395C117.344 820.718 112.874 804.275 110.006 795.738C107.138 787.201 114.665 762.505 122.543 751.414C130.421 740.322 154.708 715.272 157.838 702.609C160.968 689.946 147.935 663.713 143.816 660.875C139.697 658.036 123.534 644.466 119.064 628.023C114.594 611.58 134.045 550.154 148.493 511.521Z" fill="#800000"/>
<path d="M1656.75 896.741L1683.89 873.9C1685.78 870.099 1689.25 867.243 1688.04 886.23C1686.52 909.964 1636.67 956.269 1626.26 969.265C1615.86 982.26 1587.29 1063.64 1596.46 1062.67C1605.63 1061.7 1598.72 1081.97 1596.53 1091.15C1594.34 1100.33 1527.13 1160.91 1495.85 1171.42C1464.57 1181.93 1465.52 1181.61 1474.71 1190.13C1482.06 1196.95 1480.54 1201.2 1478.85 1202.46L1419.13 1222.53L1405.9 1242.81C1382.42 1253.51 1333.5 1276.63 1325.68 1283.49C1315.89 1292.05 1276.08 1305.43 1265.01 1303.87C1253.94 1302.31 1243.8 1297.27 1231.14 1294.14C1221.02 1291.63 1213.24 1302.61 1210.62 1308.42L1222.65 1312.82C1214.24 1319.17 1194.62 1331.74 1183.48 1331.26C1169.57 1330.66 1171.72 1305.66 1170.42 1292.37C1169.12 1279.09 1160.89 1276.57 1148.9 1287.99C1136.91 1299.41 1094.57 1314.69 1067.38 1315.38C1045.62 1315.93 1000.07 1295.07 980.012 1284.56L931.57 1262.84C931.038 1261.26 930.542 1256.64 932.804 1250.81C935.631 1243.53 931.145 1220.76 922.884 1205.59C916.275 1193.45 896.502 1195.1 887.442 1197.44C889.57 1204.82 892.75 1220.15 888.455 1222.43C883.086 1225.29 876.164 1239.23 878.706 1243.66C881.247 1248.08 898.375 1267.66 901.57 1280.31C904.126 1290.43 896.587 1310.48 892.498 1319.25C878.99 1313.58 848.934 1300.74 836.775 1294.69C821.575 1287.13 777.259 1271.41 762.394 1271.12C750.502 1270.9 741.64 1276.34 738.695 1279.09C720.766 1275.96 679.657 1269.15 658.652 1266.92C632.395 1264.13 624.444 1246.75 619.353 1234.74C614.263 1222.72 607.905 1210.08 597.461 1207.26C587.018 1204.43 564.513 1184.55 559.422 1172.54C554.331 1160.52 542.588 1144.41 519.478 1135.29C496.368 1126.16 470.692 1103.12 458.631 1086.06C446.57 1069 453.697 1011.72 452.087 1000.65C450.477 989.577 438.783 992.45 427.718 994.057C416.654 995.663 409.364 989.667 403.955 976.707C398.545 963.746 422.889 960.845 414.652 955.168C408.062 950.626 396.941 954.785 392.204 957.432C384.626 962.089 367.32 971.915 358.723 973.959C347.977 976.514 317.578 961.393 300.164 953.522C286.232 947.224 264.836 948.853 255.88 950.455C238.501 956.294 201.278 968.801 191.419 972.113C181.561 975.425 171.916 971.629 168.326 969.316C169.056 966.256 171.395 957.729 174.913 948.102C179.309 936.069 169.43 906.665 164.65 892.438C159.869 878.21 133.818 832.072 125.581 826.395C117.344 820.718 112.874 804.275 110.006 795.738C107.138 787.201 114.665 762.505 122.543 751.414C130.421 740.322 154.708 715.272 157.838 702.609C160.968 689.946 147.935 663.713 143.816 660.875C139.697 658.036 123.534 644.466 119.064 628.023C114.594 611.58 134.045 550.154 148.493 511.521C160.052 480.614 163.684 433.229 164.055 413.401L224.526 439.529M1656.75 896.741L1666.78 860.648L1612.45 887.346C1592.55 894.035 1550.01 907.481 1539.14 907.758C1528.26 908.035 1519.85 910.015 1517.01 910.971L1518 929.637M1656.75 896.741C1644.34 906.893 1617.37 931.506 1608.82 948.737C1598.12 970.276 1571.67 1017.16 1577.41 1034.24C1583.15 1051.31 1579.08 1070.62 1568.67 1080.45C1558.26 1090.28 1521.35 1124.85 1507.77 1131.53C1496.9 1136.87 1476.06 1142.88 1467 1145.22C1471.34 1148.69 1477.28 1157.6 1466.42 1165.47C1452.85 1175.31 1429.45 1177.89 1418.08 1181.72C1408.98 1184.77 1402.94 1197.36 1401.06 1203.27C1378.43 1216.5 1329.37 1244.24 1314.2 1249.34C1295.25 1255.71 1261.12 1267.18 1247.19 1263.41C1236.05 1260.4 1225.05 1262.4 1220.95 1263.78C1227.07 1267.36 1236.66 1275.39 1226.04 1278.96C1212.77 1283.42 1201.41 1293.57 1188.43 1286.32C1178.04 1280.52 1172.66 1260.3 1171.26 1250.92C1166.62 1250.72 1153.87 1252.54 1139.98 1261.43C1122.61 1272.54 1085.95 1282.75 1053.36 1273.65C1027.28 1266.36 976.418 1239.33 954.247 1226.72C954.656 1221.66 954.135 1207.55 948.781 1191.61C942.089 1171.69 936.982 1153.35 917.704 1158.77C902.282 1163.11 892.951 1166.74 890.213 1168.01C889.65 1153.77 885.291 1123.22 872.367 1114.89C859.442 1106.57 875.802 1097.9 885.598 1094.61C882.106 1089.45 875.687 1077.68 877.949 1071.85C880.777 1064.57 920.656 1076.5 920.059 1090.42C919.581 1101.56 921.619 1123.33 922.697 1132.82C938.853 1143.22 974.773 1165.35 989.208 1170.64C1007.25 1177.24 1059.47 1191.37 1077.48 1185.31C1091.89 1180.47 1115.91 1166.77 1126.12 1160.53C1131.29 1163.36 1141.2 1171.51 1139.46 1181.38C1137.27 1193.73 1145.52 1202.57 1159.11 1199.06C1169.98 1196.25 1177.74 1189.63 1180.27 1186.67C1175.52 1187.21 1168.06 1185.49 1176.12 1174.34C1184.19 1163.18 1201.21 1171.54 1208.71 1177.12C1224.93 1174.13 1261.11 1165.42 1276.01 1154.5C1290.91 1143.58 1331.91 1124.11 1350.55 1115.74C1349.58 1108.67 1349.16 1094.03 1355.23 1092C1362.81 1089.45 1402.02 1086.83 1406.12 1080.18C1409.39 1074.85 1409.14 1068.25 1408.61 1065.62C1414.4 1062.97 1431.03 1053.86 1451.24 1038.63C1476.49 1019.59 1517.51 984.692 1516.21 971.406C1515.17 960.777 1510.25 950.536 1507.93 946.745L1518 929.637M1518 929.637C1491.95 923.26 1434.2 906.914 1411.65 892.535C1383.45 874.562 1289.96 797.249 1272.49 767.229C1255.02 737.209 1227.13 717.02 1203.95 679.419C1180.77 641.818 1179.54 657.008 1147.49 614.997C1115.44 572.986 1058.96 499.071 1044.96 466.829C1033.76 441.035 994.176 394.168 975.781 373.958C954.221 352.701 908.696 309.306 899.073 305.784C889.45 302.261 759.12 322.545 695.158 333.128C692.889 352.539 688.42 394.082 688.701 404.966C689.052 418.571 703.385 458.09 700.876 466.322C698.367 474.554 706.342 501.431 668.726 508.791C631.111 516.152 508.139 536.356 473.662 534.218C439.185 532.079 311.711 523.184 287.604 495.394C268.319 473.161 266.897 477.721 268.597 482.779M268.597 482.779L236.809 419.568L224.526 439.529M268.597 482.779C266.216 499.765 263.044 537.213 269.404 551.121C277.355 568.506 283.165 614.056 277.477 615.967C271.789 617.878 243.44 662.237 240.637 679.013C237.833 695.788 256.881 724.223 274.949 740.32C293.017 756.416 305.821 816.505 300.166 831.073C295.642 842.726 302.743 849.207 306.858 850.991C319.394 847.483 350.026 838.177 372.267 829.015C400.068 817.563 405.788 828.308 432.698 839.323C459.608 850.338 482.988 841.427 503.198 829.359C523.407 817.291 522.81 831.214 507.341 841.69C491.871 852.165 510.879 864.78 528.906 865.056C543.328 865.278 549.259 868.07 550.422 869.439C550.261 888.845 550.521 932.53 552.848 952.015C555.757 976.372 598.495 993.68 614.627 994.594C627.532 995.325 636.08 1015.53 638.741 1025.55C641.71 1032.29 652.522 1047.1 672.017 1052.37C696.386 1058.96 692.667 1088.71 699.343 1102.3C706.019 1115.89 763.247 1110.39 791.686 1100.83C820.124 1091.28 818.882 1100.14 849.576 1106.72C874.13 1111.98 860.264 1122.83 850.262 1127.6C844.991 1127.61 838.448 1133.26 854.445 1155.75C870.442 1178.24 857.83 1201.41 849.524 1210.18C834.227 1205.47 800.59 1193.9 788.423 1185.32C776.257 1176.74 756.36 1178.85 747.932 1180.98C743.404 1183.2 729.483 1188.87 710.014 1193.72C685.678 1199.78 646.739 1184.37 634.391 1179.01C624.513 1174.73 618.192 1151.73 616.266 1140.77C604.76 1134.78 580.792 1119.96 576.968 1108.58C572.188 1094.36 558.222 1074.77 543.35 1071.32C528.477 1067.87 478.743 1036.03 478.981 1005.33C479.218 974.642 475.321 934.784 472.175 941.119C469.028 947.454 444.341 939.915 433.881 930.762C423.421 921.609 452.162 906.675 445.2 904.792C438.237 902.909 427.189 910.843 418.036 918.141C408.883 925.438 379.138 918.543 354.124 906.891C329.11 895.239 302.886 905.105 282.979 911.794C263.072 918.482 239.373 926.445 231.136 920.768C222.899 915.09 230.769 900.835 229.11 870.78C227.452 840.725 202.071 809.14 187.795 791.77C173.519 774.399 171.542 743.395 180.351 725.657C189.161 707.919 214.715 683.499 215.304 666.412C215.893 649.325 200.358 634.488 183.549 615.857C166.74 597.226 188.453 555.097 193.757 526.925C198.001 504.387 216.038 459.27 224.526 439.529" stroke="black" stroke-width="4"/>
<path d="M324.771 719.334L327.96 712.602C334.219 714.281 338.652 715.044 341.259 714.892C343.865 714.74 345.549 713.589 346.31 711.44C347.156 709.051 347.633 705.995 347.742 702.272L348.743 680.657C345.919 679.523 339.731 677.265 330.179 673.883C324.447 671.854 317.771 670.028 310.149 668.405L296.927 684.686C294.711 687.529 293.35 689.668 292.843 691.1C291.913 693.727 292.072 695.934 293.321 697.72C294.612 699.386 297.168 700.896 300.989 702.248L311.199 705.862L311.303 706.706L307.502 714.027C306.111 713.4 302.912 711.999 297.905 709.823C292.897 707.647 287.945 705.693 283.05 703.96C278.632 702.396 274.491 700.997 270.628 699.764C266.884 698.573 264.394 697.825 263.158 697.522L267.571 689.611C271.041 690.437 274.129 690.253 276.835 689.062C279.584 687.75 282.78 684.985 286.423 680.766L353.75 601.606L366.112 602.556L367.545 603.063C367.247 606.182 366.692 613.443 365.88 624.846C365.187 636.291 364.416 649.858 363.565 665.547C362.833 681.278 362.324 695.811 362.037 709.146C361.906 714.072 362.717 717.853 364.471 720.489C366.225 723.126 369.645 725.613 374.73 727.95L374.834 728.793L370.981 735.693C369.548 735.186 366.963 734.136 363.227 732.545C359.567 731.115 355.887 729.745 352.185 728.435C346.454 726.406 340.817 724.679 335.275 723.254C329.852 721.872 326.382 721.046 324.864 720.778L324.771 719.334ZM332.241 666.35C336.54 667.871 342.198 669.538 349.215 671.351L351.678 619.415L350.424 618.972L316.48 660.77L332.241 666.35Z" fill="black"/>
<path d="M405.215 780.981C410.192 781.447 413.802 780.851 416.046 779.195C418.444 777.446 420.306 773.93 421.633 768.647L441.246 691.295C442.233 687.364 442.405 684.599 441.761 683.001C441.241 681.433 439.629 680.311 436.926 679.632C435.697 679.324 434.453 679.077 433.194 678.891C431.935 678.706 431.059 678.551 430.568 678.428L430.384 677.598L433.71 669.814C435.153 670.306 437.887 671.123 441.91 672.264C445.933 673.404 450.034 674.499 454.211 675.548C457.528 676.38 461.321 677.137 465.591 677.817C470.014 678.405 472.932 678.745 474.345 678.839L471.526 686.947C467.349 686.42 464.323 686.509 462.448 687.214C460.696 687.95 459.451 689.009 458.712 690.39C458.096 691.803 456.879 695.35 455.061 701.032C451.703 711.289 448.158 723.067 444.428 736.366C440.698 749.665 437.553 761.412 434.993 771.609C433.883 776.032 433.45 779.319 433.694 781.47C433.968 783.498 435.011 785.065 436.823 786.173C438.757 787.312 442.181 788.498 447.095 789.731C454.589 791.613 460.211 792.371 463.959 792.006C467.83 791.672 471.073 789.939 473.687 786.808C476.425 783.708 479.517 778.411 482.965 770.919L491.305 772.033L491.626 773.093C490.764 774.966 488.856 779.188 485.9 785.76C483.067 792.362 480.265 799.364 477.493 806.765L476.294 807.639C472.793 806.499 465.514 804.28 454.457 800.982C443.493 797.838 434.387 795.356 427.138 793.537C421.364 792.087 416.02 791.007 411.105 790.295C406.313 789.615 403.272 789.243 401.982 789.181L405.215 780.981Z" fill="black"/>
<path d="M662.344 908.624C656.144 917.078 650.19 926.061 644.484 935.573L643.147 936.219C619.29 924.421 601.998 916.089 591.271 911.221C582.735 907.349 574.456 904.288 566.435 902.04L571.084 894.552C576.589 896.215 580.709 896.484 583.444 895.361C586.347 894.174 588.924 891.101 591.174 886.141L624.318 813.549C625.993 809.858 626.657 807.169 626.309 805.481C626.078 803.846 624.693 802.453 622.155 801.301L616.115 798.978L616.083 798.129L620.749 791.066C632.357 796.75 640.296 800.56 644.564 802.496C658.29 808.724 669.012 813.45 676.73 816.673C684.5 819.781 691.394 822.214 697.413 823.971L697.461 825.244C691.25 833.415 685.58 842.387 680.45 852.161L671.831 849.085L675.553 841.802C677.384 837.764 678.121 834.761 677.763 832.79C677.458 830.704 675.68 828.645 672.429 826.614C669.23 824.467 663.305 821.431 654.653 817.506C650.616 815.675 647.795 814.534 646.191 814.084C644.587 813.635 643.345 813.766 642.465 814.48C641.637 815.078 640.642 816.504 639.48 818.759L622.867 851.698L640.61 859.956C645.108 861.998 652.432 864.556 662.582 867.63L662.882 868.81L655.828 877.919C643.181 871.764 635.185 867.927 631.84 866.41C628.033 864.683 623.409 863.071 617.968 861.576L602.282 894.31C600.764 897.655 599.979 900.151 599.928 901.796C599.929 903.327 600.69 904.715 602.211 905.962C603.847 907.261 606.857 908.904 611.24 910.893C620.93 915.289 628.002 917.942 632.458 918.851C637.03 919.812 640.808 919.301 643.795 917.317C646.781 915.334 650.253 911.206 654.211 904.935L662.217 907.524L662.344 908.624Z" fill="black"/>
<path d="M752.08 1069.28C740.933 1069.28 731.18 1066.87 722.82 1062.06C714.46 1057.25 708 1050.47 703.44 1041.73C698.88 1032.86 696.6 1022.48 696.6 1010.57C696.6 997.523 699.387 985.933 704.96 975.8C710.533 965.667 718.387 957.813 728.52 952.24C738.653 946.54 750.243 943.69 763.29 943.69C767.977 943.69 773.043 944.07 778.49 944.83C783.937 945.463 788.623 946.16 792.55 946.92C796.477 947.553 799.01 947.997 800.15 948.25L800.91 949.39C800.657 950.15 800.213 951.987 799.58 954.9C798.947 957.813 798.25 961.613 797.49 966.3C796.857 970.987 796.35 975.927 795.97 981.12L787.04 981.88C787.167 981.247 787.293 980.043 787.42 978.27C787.547 976.37 787.61 974.153 787.61 971.62C787.61 965.793 785.33 961.55 780.77 958.89C776.337 956.23 769.053 954.9 758.92 954.9C744.48 954.9 733.207 959.27 725.1 968.01C717.12 976.623 713.13 988.783 713.13 1004.49C713.13 1015.51 714.903 1025.2 718.45 1033.56C721.997 1041.92 727.063 1048.38 733.65 1052.94C740.237 1057.5 747.837 1059.78 756.45 1059.78C761.01 1059.78 765.19 1059.27 768.99 1058.26C772.79 1057.12 775.957 1055.92 778.49 1054.65C781.15 1053.38 782.48 1052.69 782.48 1052.56V1029.38C782.48 1025.07 781.783 1022.29 780.39 1021.02C779.123 1019.75 776.337 1019.12 772.03 1019.12H758.92L758.54 1018.36L760.25 1008.86C761.77 1008.99 765 1009.18 769.94 1009.43C774.88 1009.56 779.693 1009.62 784.38 1009.62C787.8 1009.62 791.157 1009.49 794.45 1009.24C797.743 1008.99 799.833 1008.8 800.72 1008.67L801.48 1012.85C799.2 1014.75 797.617 1017.79 796.73 1021.97C795.97 1026.02 795.59 1032.74 795.59 1042.11C795.59 1049.46 796.033 1055.03 796.92 1058.83L795.78 1060.54C795.78 1060.67 793.5 1061.55 788.94 1063.2C784.507 1064.72 778.997 1066.11 772.41 1067.38C765.95 1068.65 759.173 1069.28 752.08 1069.28Z" fill="black"/>
<path d="M935.087 1048.92C932.089 1047.9 929.36 1045.3 926.901 1041.12C924.602 1036.86 922.911 1031.6 921.826 1025.35L914.437 983.904L899.505 978.83L889.857 1005.45C888.308 1010.01 887.487 1013.41 887.394 1015.65C887.341 1017.77 888.032 1019.48 889.467 1020.77C890.942 1021.94 893.719 1023.22 897.796 1024.6L897.911 1025.45L893.725 1032.45C892.326 1031.84 889.489 1030.74 885.212 1029.16C880.935 1027.57 876.458 1025.98 871.781 1024.39C867.583 1022.97 863.845 1021.76 860.566 1020.78C857.287 1019.8 855.088 1019.19 853.968 1018.94L858.338 1011.4C862.339 1012.22 865.441 1012.54 867.645 1012.35C869.849 1012.16 871.617 1011.29 872.948 1009.74C874.32 1008.06 875.617 1005.43 876.839 1001.83L902.695 926.335C904 922.497 904.396 919.756 903.885 918.11C903.494 916.506 901.979 915.255 899.341 914.359C898.141 913.951 896.922 913.603 895.681 913.316C894.441 913.028 893.582 912.803 893.102 912.64L892.987 911.798L896.936 904.311C898.334 904.92 900.992 905.956 904.909 907.421C908.826 908.886 912.763 910.291 916.721 911.636C920.798 913.022 925.076 914.409 929.555 915.797C934.193 917.106 937.373 917.985 939.093 918.436C950.246 922.226 958.205 927.74 962.97 934.978C967.734 942.216 968.629 950.213 965.654 958.968C963.208 966.163 958.628 971.965 951.913 976.372C945.318 980.82 937.171 983.536 927.471 984.521L936.623 1022.55C938.144 1029.49 940.137 1034.65 942.601 1038.02C945.225 1041.32 948.936 1043.79 953.733 1045.42L954.208 1046.38L951.05 1052.13L935.087 1048.92ZM921.206 976.974C921.084 977.334 923.148 977.165 927.398 976.469C931.648 975.773 935.885 973.935 940.108 970.956C944.331 967.976 947.503 963.368 949.622 957.132C955.002 941.301 946.718 929.656 924.771 922.198C923.571 921.79 922.63 921.805 921.946 922.241C921.424 922.599 920.817 923.597 920.126 925.235C912.811 943.218 907.199 957.765 903.288 968.878L921.206 976.974Z" fill="black"/>
<path d="M671.76 589.314C674.641 589.786 676.589 589.772 677.604 589.272C678.721 588.722 679.678 587.273 680.476 584.925L691.362 553.264C691.928 551.598 692.087 550.384 691.838 549.624C691.59 548.863 690.708 548.226 689.193 547.711C688.209 547.376 687.4 547.144 686.769 547.014L686.696 546.482L688.77 542.244C692.203 543.58 694.714 544.518 696.305 545.058C700.623 546.525 705.131 547.804 709.83 548.894L707.868 553.55C705.897 553.134 704.43 552.973 703.468 553.069C702.608 553.115 701.885 553.503 701.299 554.233C700.738 554.887 700.098 556.148 699.379 558.016L697.685 562.257C696.579 565.261 694.845 569.741 692.483 575.698C690.197 581.68 688.616 585.959 687.741 588.535C687.149 590.277 687.04 591.592 687.414 592.479C687.864 593.393 688.885 594.12 690.475 594.66L701.155 598.29C704.261 599.345 706.461 599.585 707.754 599.011C709.123 598.463 710.297 596.749 711.275 593.871L721.698 563.573C722.161 562.21 722.345 561.174 722.247 560.465C722.226 559.781 721.825 559.222 721.043 558.788C720.261 558.353 718.948 557.865 717.105 557.323L717.032 556.791L719.106 552.553C722.539 553.889 725.051 554.827 726.641 555.367C730.959 556.834 735.467 558.113 740.166 559.203L738.09 563.821C736.119 563.404 734.653 563.244 733.691 563.34C732.831 563.385 732.107 563.773 731.521 564.503C730.961 565.158 730.321 566.419 729.602 568.287C723.72 583.356 719.879 593.541 718.077 598.844C717.485 600.586 717.376 601.901 717.75 602.788C718.2 603.702 719.183 604.416 720.698 604.931L731.378 608.56C734.484 609.615 736.721 609.869 738.09 609.32C739.46 608.772 740.633 607.058 741.612 604.18L752.073 573.769C752.639 572.102 752.785 570.927 752.511 570.242C752.262 569.482 751.343 568.831 749.752 568.291C748.843 567.982 748.073 567.762 747.441 567.632L747.368 567.1L749.442 562.862C752.723 564.146 755.159 565.059 756.75 565.599C761.143 567.092 765.5 568.319 769.821 569.28L767.745 573.898C765.521 573.48 763.927 573.446 762.964 573.794C762.102 574.093 761.376 574.987 760.785 576.476C759.834 579.025 758.281 582.976 756.124 588.326C751.963 599.079 749.394 605.895 748.415 608.773C747.669 610.97 747.407 612.486 747.63 613.322C747.853 614.159 748.646 614.808 750.009 615.272C751.221 615.683 752.37 616.032 753.456 616.316L753.529 616.848L751.417 621.2C747.681 619.761 744.071 618.45 740.586 617.266L680.709 596.918C679.498 596.506 675.86 595.524 669.798 593.97L671.76 589.314Z" fill="black"/>
<path d="M759.384 728.785C761.128 729.124 762.456 729.195 763.368 728.998C764.355 728.827 765.181 728.262 765.844 727.305C766.507 726.347 767.212 724.77 767.959 722.574C769.04 719.392 770.005 716.678 770.852 714.432L774.595 703.79L786.102 669.932C786.977 667.356 787.165 665.435 786.666 664.167C786.194 662.823 784.935 661.804 782.889 661.109L781.64 660.684L781.453 660.114L783.068 656.481C786.506 657.057 789.931 657.545 793.344 657.945C796.858 658.294 799.108 658.509 800.095 658.591L800.467 659.732C800.263 660.085 799.79 660.854 799.05 662.038C798.411 663.173 797.81 664.321 797.246 665.481L797.43 666.431C806.224 663.927 811.454 662.958 813.12 663.524C817.437 664.992 820.915 667.314 823.553 670.492C826.216 673.594 827.839 677.272 828.422 681.525C829.004 685.779 828.497 690.254 826.901 694.95C825.074 700.328 822.1 704.852 817.98 708.521C813.861 712.191 809.179 714.655 803.934 715.915C798.716 717.099 793.569 716.828 788.494 715.104C786.828 714.538 785.187 713.896 783.572 713.178C782.007 712.561 780.935 712.112 780.355 711.831L776.491 723.572C775.307 727.056 774.85 729.52 775.12 730.964C775.44 732.509 776.66 733.642 778.781 734.363L782.683 735.562L782.794 735.98L780.418 739.989L769.624 736.321C766.897 735.394 764.321 734.645 761.896 734.074C759.546 733.529 758.018 733.179 757.31 733.023L759.384 728.785ZM793.799 709.936C798.874 711.661 803.43 711.308 807.467 708.877C811.605 706.397 814.691 702.165 816.724 696.181C818.011 692.393 818.501 688.715 818.193 685.146C817.96 681.603 816.979 678.524 815.249 675.908C813.594 673.318 811.403 671.559 808.676 670.633C807.162 670.118 805.126 670.017 802.569 670.331C800.037 670.57 797.504 671.187 794.968 672.185C790.99 681.901 787.058 692.478 783.171 703.916C784.48 705.037 786.08 706.172 787.971 707.321C789.963 708.421 791.906 709.292 793.799 709.936Z" fill="black"/>
<path d="M937.701 684.818L935.284 689.319C934.527 689.062 933.063 688.522 930.892 687.7C928.797 686.903 926.537 686.093 924.113 685.27L913.622 681.831L916 677.443C918.601 678.242 920.499 678.253 921.692 677.476C922.961 676.725 924.15 674.72 925.256 671.463L933.285 648.21C919.559 655.036 907.568 661.354 897.314 667.164C896.952 668.477 896.984 669.502 897.41 670.238C897.861 670.899 898.731 671.448 900.019 671.885C900.776 672.143 901.508 672.349 902.216 672.505C902.923 672.661 903.391 672.778 903.618 672.855L903.729 673.273L901.312 677.775C900.782 677.594 899.735 677.196 898.17 676.58C896.605 675.964 894.989 675.372 893.323 674.806C890.823 673.957 887.919 673.054 884.61 672.099C881.352 671.245 879.659 670.881 879.532 671.007L881.722 666.428C884.527 666.874 886.501 666.784 887.643 666.159C888.861 665.559 889.856 664.122 890.628 661.85L901.475 630.303C902.067 628.56 902.226 627.347 901.952 626.662C901.779 625.928 901.049 625.342 899.761 624.904L896.882 624.052L896.809 623.521L898.883 619.283L908.73 622.755C910.32 623.296 912.278 623.877 914.601 624.497C916.925 625.118 918.441 625.506 919.148 625.662L917.186 630.318C915.442 629.979 914.127 629.87 913.241 629.992C912.431 630.139 911.732 630.578 911.146 631.308C910.662 631.988 910.073 633.224 909.379 635.016L908.146 638.273L899.901 659.551C911.697 653.928 923.662 647.686 935.795 640.825C936.157 639.511 936.15 638.537 935.774 637.903C935.474 637.294 934.718 636.783 933.506 636.371L930.741 635.558L930.668 635.027L932.742 630.789L941.906 634.03C943.648 634.622 945.757 635.254 948.233 635.926C950.708 636.598 952.337 637.025 953.12 637.207L951.158 641.863C948.858 641.42 947.265 641.385 946.377 641.759C945.515 642.058 944.789 642.952 944.198 644.441L942.156 649.704C937.123 662.526 933.731 671.513 931.981 676.663C931.26 678.784 931.036 680.313 931.309 681.251C931.582 682.189 932.438 682.902 933.877 683.391C934.71 683.674 935.48 683.894 936.188 684.05C936.895 684.206 937.376 684.284 937.629 684.286L937.701 684.818Z" fill="black"/>
<path d="M1005.12 797.904C1004.05 800.833 1003.5 802.929 1003.49 804.194C1003.54 805.561 1004.1 806.639 1005.18 807.43C1006.34 808.246 1008.42 809.08 1011.43 809.933L1011.54 810.351L1009.17 814.359L1002.01 811.927C996.25 809.971 990.101 808.176 983.558 806.544L985.632 802.306C988.234 802.853 990.169 803.003 991.435 802.758C992.777 802.538 993.895 801.735 994.789 800.349C995.732 799.064 996.782 796.844 997.939 793.688L1001.33 784.069C993.359 780.936 987.82 776.35 984.718 770.311C981.718 764.222 981.492 757.428 984.04 749.929C986.588 742.43 991.073 736.941 997.494 733.462C1003.91 729.983 1011.29 729.027 1019.63 730.593L1026.35 710.824C1026.97 709.006 1027.07 707.602 1026.64 706.613C1026.32 705.574 1025.36 704.784 1023.77 704.244C1023.32 704.089 1022.38 703.856 1020.97 703.544L1022.85 699.495C1028.39 700.615 1034.33 701.409 1040.67 701.876L1040.85 703.584C1040.17 704.112 1038.67 707.025 1036.36 712.324C1034.16 717.573 1031.43 724.464 1028.2 732.996C1036.25 736.155 1041.9 740.779 1045.15 746.87C1048.41 752.961 1048.76 759.756 1046.21 767.254C1044.49 772.329 1041.79 776.526 1038.13 779.844C1034.49 783.086 1030.16 785.287 1025.11 786.447C1020.17 787.556 1014.86 787.525 1009.18 786.354L1005.12 797.904ZM993.64 750.023C991.555 756.158 991.346 761.622 993.013 766.413C994.782 771.154 998.251 774.994 1003.42 777.934L1005.54 772.064L1017.66 736.388C1011.88 734.76 1006.95 735.111 1002.86 737.44C998.772 739.769 995.7 743.963 993.64 750.023ZM1036.15 767.765C1038.24 761.629 1038.33 756.128 1036.44 751.259C1034.62 746.417 1031.04 742.538 1025.69 739.622L1025.3 740.759L1011.07 781.166C1017.08 782.871 1022.24 782.597 1026.55 780.346C1030.89 778.018 1034.09 773.825 1036.15 767.765Z" fill="black"/>
<path d="M1121.84 750.594C1124.72 751.32 1126.76 751.673 1127.95 751.655C1129.24 751.586 1130.26 751.048 1131.03 750.041C1131.79 749.033 1132.65 747.128 1133.61 744.326L1144.96 710.922C1140.69 709.556 1137.65 708.817 1135.82 708.705C1134.03 708.518 1132.56 708.99 1131.41 710.122C1130.37 711.204 1128.99 713.396 1127.28 716.701L1122.28 715.381C1124.66 710.614 1126.84 705.567 1128.82 700.24L1129.77 699.676L1137.07 703.172L1163.89 712.284L1171.92 714.001L1172.33 715.028C1171.4 718.261 1170.09 723.477 1168.41 730.678L1163.41 729.358C1164.01 725.592 1164.23 722.963 1164.06 721.469C1163.92 719.9 1163.13 718.617 1161.69 717.622C1160.33 716.653 1157.67 715.411 1153.71 713.895C1152.32 716.973 1150.23 722.135 1147.43 729.379C1144.73 736.573 1142.25 743.503 1139.98 750.169C1139.32 752.138 1139.18 753.655 1139.58 754.72C1140.05 755.811 1141.16 756.652 1142.9 757.244C1144.87 757.914 1146.49 758.378 1147.75 758.639L1147.86 759.057L1145.41 763.672L1142.49 762.555L1132.34 758.852C1128.94 757.694 1124.68 756.417 1119.58 755.021L1121.84 750.594Z" fill="black"/>
<path d="M1081.17 1106.95C1076.43 1116.31 1072.02 1126.14 1067.94 1136.45L1066.73 1137.31C1041.27 1129.56 1022.85 1124.16 1011.47 1121.11C1002.42 1118.68 993.752 1117.01 985.472 1116.1L988.837 1107.95C994.54 1108.7 998.649 1108.29 1001.16 1106.74C1003.83 1105.09 1005.88 1101.64 1007.29 1096.38L1028.15 1019.35C1029.2 1015.44 1029.41 1012.68 1028.8 1011.07C1028.3 1009.49 1026.71 1008.34 1024.02 1007.62L1017.68 1006.31L1017.51 1005.48L1020.96 997.752C1033.34 1001.47 1041.79 1003.93 1046.32 1005.15C1060.88 1009.05 1072.23 1011.97 1080.37 1013.89C1088.54 1015.69 1095.74 1016.96 1101.96 1017.71L1102.22 1018.96C1097.42 1028.04 1093.29 1037.81 1089.83 1048.29L1080.82 1046.66L1083.3 1038.87C1084.45 1034.59 1084.69 1031.51 1084.02 1029.62C1083.37 1027.61 1081.28 1025.87 1077.74 1024.4C1074.24 1022.8 1067.9 1020.77 1058.72 1018.31C1054.44 1017.16 1051.47 1016.5 1049.81 1016.31C1048.16 1016.13 1046.95 1016.46 1046.2 1017.31C1045.48 1018.04 1044.73 1019.61 1043.96 1022.02L1032.94 1057.23L1051.79 1062.48C1056.56 1063.76 1064.2 1065.09 1074.72 1066.47L1075.21 1067.58L1069.73 1077.72C1056.25 1073.71 1047.74 1071.23 1044.19 1070.28C1040.15 1069.2 1035.33 1068.36 1029.71 1067.77L1019.58 1102.63C1018.63 1106.17 1018.26 1108.76 1018.48 1110.4C1018.73 1111.91 1019.7 1113.15 1021.41 1114.13C1023.23 1115.15 1026.47 1116.28 1031.12 1117.53C1041.4 1120.28 1048.81 1121.75 1053.35 1121.92C1058.02 1122.12 1061.66 1121 1064.29 1118.56C1066.91 1116.11 1069.66 1111.47 1072.54 1104.64L1080.87 1105.89L1081.17 1106.95Z" fill="black"/>
<path d="M1234.74 1122.42C1238.44 1119.61 1240.9 1117.14 1242.1 1114.99C1243.31 1112.85 1243.67 1110.56 1243.18 1108.12C1242.68 1105.68 1241.29 1102.13 1239.01 1097.47L1235.33 1089.96C1233.6 1086.43 1231.75 1083.53 1229.78 1081.25C1227.76 1078.86 1224.81 1076.14 1220.92 1073.11L1190.26 1049.42C1184.35 1044.85 1180.26 1041.84 1178.01 1040.41C1175.7 1038.86 1173.1 1038.02 1170.21 1037.89C1167.32 1037.75 1163.63 1038.57 1159.14 1040.35L1158.47 1039.84L1156.23 1032.68C1157.53 1032.18 1159.98 1031.12 1163.56 1029.51C1167.14 1027.89 1171.03 1026.05 1175.24 1023.99C1179.22 1022.04 1183.74 1019.61 1188.81 1016.7C1193.93 1013.62 1197.26 1011.64 1198.8 1010.74L1199.89 1011.69L1202.31 1017.91C1197.42 1020.87 1194.28 1023.26 1192.91 1025.06C1191.59 1026.69 1191.41 1028.47 1192.36 1030.41C1193.08 1031.89 1196.48 1035.23 1202.56 1040.43C1208.64 1045.63 1214.72 1050.69 1220.8 1055.61C1227 1060.47 1231.08 1063.61 1233.05 1065.05L1233.9 1064.63L1235.61 1018.92C1235.81 1014.73 1235.33 1011.44 1234.16 1009.06C1232.71 1006.1 1228.29 1006.15 1220.9 1009.21L1220.22 1008.7L1217.98 1001.54C1219.4 1000.99 1222.36 999.818 1226.85 998.039C1231.34 996.261 1234.89 994.73 1237.5 993.447C1240.23 992.108 1243.22 990.573 1246.46 988.842C1249.76 986.941 1251.9 985.682 1252.86 985.066L1254.13 985.926L1256.2 992.739C1252.9 995.207 1250.53 997.568 1249.1 999.823C1247.61 1001.96 1246.63 1004.56 1246.15 1007.62C1245.73 1010.5 1245.33 1015.29 1244.94 1021.97C1244.92 1023.67 1244.86 1024.97 1244.74 1025.88L1242.4 1064.27C1242.21 1067.61 1242.69 1071.04 1243.86 1074.56C1245.13 1078.02 1247.78 1084.13 1251.79 1092.89L1253.63 1096.64C1255.69 1101.13 1257.65 1103.98 1259.51 1105.18C1261.43 1106.22 1263.87 1106.01 1266.82 1104.56C1268.64 1103.67 1270.32 1102.77 1271.86 1101.88C1273.4 1100.98 1274.42 1100.34 1274.93 1099.95L1275.61 1100.46L1277.92 1109.06C1276.27 1109.73 1273.26 1111.07 1268.88 1113.07C1264.62 1115.02 1260.33 1117.06 1256.01 1119.18C1252.48 1120.91 1248.81 1123.06 1245 1125.64C1241.18 1128.21 1238.7 1129.92 1237.56 1130.76L1234.74 1122.42Z" fill="black"/>
<path d="M1405.69 1013.15L1402.2 1006.57C1407.28 1002.55 1410.54 999.45 1411.97 997.269C1413.41 995.087 1413.49 993.049 1412.22 991.155C1410.81 989.051 1408.65 986.843 1405.73 984.531L1388.99 970.818C1386.39 972.405 1380.89 976.019 1372.47 981.661C1367.42 985.046 1361.96 989.31 1356.11 994.453L1361.27 1014.78C1362.23 1018.26 1363.13 1020.63 1363.98 1021.89C1365.53 1024.2 1367.39 1025.39 1369.57 1025.46C1371.68 1025.42 1374.41 1024.27 1377.78 1022.01L1386.78 1015.98L1387.52 1016.4L1391.12 1023.83C1389.79 1024.57 1386.75 1026.3 1382.01 1029.01C1377.28 1031.73 1372.75 1034.53 1368.44 1037.42C1364.55 1040.03 1360.95 1042.52 1357.65 1044.88C1354.46 1047.17 1352.38 1048.72 1351.39 1049.53L1347.69 1041.27C1350.42 1038.98 1352.12 1036.39 1352.78 1033.51C1353.37 1030.52 1353.06 1026.31 1351.85 1020.86L1328.58 919.585L1336.72 910.238L1337.99 909.392C1340.31 911.494 1345.8 916.276 1354.46 923.738C1363.23 931.129 1373.65 939.852 1385.72 949.905C1397.9 959.888 1409.25 968.977 1419.78 977.173C1423.65 980.22 1427.17 981.827 1430.33 981.995C1433.49 982.163 1437.53 980.906 1442.44 978.224L1443.18 978.644L1446.41 985.856C1445.15 986.702 1442.76 988.148 1439.25 990.194C1435.92 992.275 1432.63 994.409 1429.36 996.595C1424.31 999.979 1419.56 1003.47 1415.11 1007.06C1410.76 1010.59 1408.03 1012.88 1406.9 1013.93L1405.69 1013.15ZM1367.66 975.507C1371.45 972.968 1376.16 969.426 1381.81 964.881L1341.62 931.884L1340.52 932.625L1353.77 984.815L1367.66 975.507Z" fill="black"/>
</svg>
