<svg width="1782" height="2267" viewBox="0 0 1782 2267" fill="none" xmlns="http://www.w3.org/2000/svg">
<path d="M1332.53 1869.9L1312.48 1875.29L1299.01 1880.67C1298.63 1880.82 1298.29 1881.06 1298.02 1881.36L1291.55 1888.57C1291.44 1888.68 1291.35 1888.8 1291.27 1888.93L1286.91 1895.89L1283.9 1902.3C1283.77 1902.57 1283.69 1902.85 1283.66 1903.14L1282.82 1910.89C1282.8 1911.09 1282.8 1911.28 1282.82 1911.48L1284.16 1922.97C1284.17 1923.1 1284.2 1923.23 1284.23 1923.35L1289.31 1942.25L1289.31 1942.25C1289.41 1942.61 1289.43 1942.98 1289.37 1943.34L1289.37 1943.35L1284.74 1972.88L1248.49 2096.27C1248.17 2097.35 1248.57 2098.52 1249.49 2099.17L1257.99 2105.25C1259.46 2106.3 1261.53 2105.6 1262.07 2103.87L1277.6 2053.5L1285.81 2032.99L1298.02 2008.66L1306.87 1993.93L1310.01 1989.84L1310.02 1989.83C1311.22 1988.27 1313.65 1988.52 1314.5 1990.3L1314.5 1990.3L1319.87 2001.41L1332.81 2029.27L1332.81 2029.27C1332.87 2029.41 1332.92 2029.55 1332.96 2029.69L1332.97 2029.7L1337.15 2045.26L1341.65 2061.97L1341.65 2061.98C1341.71 2062.21 1341.74 2062.45 1341.74 2062.69L1341.74 2062.7L1341.44 2081.63L1341.29 2103.17L1341.73 2116.47C1341.74 2116.67 1341.77 2116.87 1341.82 2117.07L1344.52 2127.07C1344.58 2127.32 1344.68 2127.55 1344.81 2127.76L1350.09 2136.44C1350.26 2136.73 1350.49 2136.98 1350.76 2137.18L1373.27 2154.05L1398.29 2168.82L1416.44 2176.75L1435.87 2184.34L1460.41 2190.55L1476.09 2192.96C1476.45 2193.01 1476.83 2192.99 1477.18 2192.9L1490.92 2189.2C1491.35 2189.09 1491.74 2188.86 1492.07 2188.56L1498.65 2182.23C1498.78 2182.1 1498.9 2181.96 1499 2181.82L1507.22 2169.86C1507.55 2169.38 1507.71 2168.82 1507.69 2168.24L1507.37 2160.99L1497.28 2168.94C1496.96 2169.19 1496.6 2169.38 1496.2 2169.48L1478.47 2174.25C1478.18 2174.33 1477.87 2174.36 1477.56 2174.35L1460.91 2173.63C1460.6 2173.62 1460.28 2173.56 1459.99 2173.44L1439.07 2165.63L1405.22 2148.66L1381.5 2134.28C1381.28 2134.15 1381.08 2133.99 1380.9 2133.8L1371.87 2124.48C1371.74 2124.35 1371.62 2124.2 1371.52 2124.05L1365.77 2115.36C1365.6 2115.1 1365.46 2114.8 1365.38 2114.49L1360.65 2096.88C1360.6 2096.7 1360.56 2096.52 1360.55 2096.33L1359.18 2078C1359.17 2077.85 1359.17 2077.7 1359.18 2077.55L1360.47 2060.49L1360.55 2047.69C1360.55 2047.37 1360.5 2047.05 1360.4 2046.74L1352.61 2022.8L1344.63 2001.61L1335.62 1984.77C1335.49 1984.54 1335.33 1984.32 1335.15 1984.12L1327.3 1975.85C1327.19 1975.73 1327.08 1975.6 1326.98 1975.46L1312.59 1953.95L1306.87 1945.54C1306.65 1945.22 1306.5 1944.87 1306.42 1944.49L1300.91 1919.09C1300.85 1918.82 1300.83 1918.55 1300.84 1918.28L1301.52 1906.88C1301.55 1906.39 1301.69 1905.92 1301.94 1905.5L1309.31 1893.29C1309.42 1893.12 1309.55 1892.95 1309.69 1892.8L1320.83 1880.82L1332.53 1869.9Z" fill="#800000"/>
<path d="M1447.86 2057.12L1450.84 2037.56L1452.31 2026.43C1452.34 2026.26 1452.34 2026.09 1452.33 2025.91L1450.44 1996.95L1449.43 1964.28L1451.02 1939.6L1454.77 1909.31L1457.5 1882.04L1459.1 1869.71L1437.82 1877.23C1437.6 1877.31 1437.37 1877.37 1437.13 1877.39L1418.61 1879.27C1418.43 1879.29 1418.24 1879.3 1418.06 1879.28L1400.31 1877.82C1400.16 1877.81 1400.02 1877.79 1399.87 1877.76L1379.41 1873C1379.21 1872.95 1379.01 1872.88 1378.82 1872.79L1365.87 1866.7C1365.61 1866.58 1365.38 1866.43 1365.17 1866.24L1354.71 1857.07L1361.44 1878.73C1361.5 1878.93 1361.54 1879.13 1361.56 1879.34L1363.51 1900L1364.68 1917.98L1365.22 1942.09L1362.95 1987.64C1362.93 1987.88 1362.89 1988.12 1362.83 1988.34L1352.61 2022.8L1360.4 2046.74C1360.5 2047.05 1360.55 2047.37 1360.55 2047.69L1360.47 2060.49L1359.18 2077.55C1359.17 2077.7 1359.17 2077.85 1359.18 2078L1360.55 2096.33C1360.56 2096.52 1360.6 2096.7 1360.65 2096.88L1365.38 2114.49C1365.46 2114.8 1365.6 2115.1 1365.77 2115.36L1371.52 2124.05C1371.62 2124.2 1371.74 2124.35 1371.87 2124.48L1380.9 2133.8C1381.08 2133.99 1381.28 2134.15 1381.5 2134.28L1405.22 2148.66L1411.54 2136.43L1419.37 2124.72L1426.82 2114.23C1426.95 2114.06 1427.09 2113.9 1427.24 2113.76L1437.39 2104.49C1437.57 2104.33 1437.77 2104.19 1437.98 2104.07L1449.23 2097.93L1445.61 2090.82C1445.44 2090.46 1445.34 2090.08 1445.33 2089.68L1444.97 2075.53C1444.97 2075.37 1444.98 2075.2 1445.01 2075.04L1447.86 2057.12Z" fill="#800000"/>
<path d="M1354.71 1857.07L1332.53 1869.9L1320.83 1880.82L1309.69 1892.8C1309.55 1892.95 1309.42 1893.12 1309.31 1893.29L1301.94 1905.5C1301.69 1905.92 1301.55 1906.39 1301.52 1906.88L1300.84 1918.28C1300.83 1918.55 1300.85 1918.82 1300.91 1919.09L1306.42 1944.49C1306.5 1944.87 1306.65 1945.22 1306.87 1945.54L1312.59 1953.95L1326.98 1975.46C1327.08 1975.6 1327.19 1975.73 1327.3 1975.85L1335.15 1984.12C1335.33 1984.32 1335.49 1984.54 1335.62 1984.77L1344.63 2001.61L1352.61 2022.8L1362.83 1988.34C1362.89 1988.12 1362.93 1987.88 1362.95 1987.64L1365.22 1942.09L1364.68 1917.98L1363.51 1900L1361.56 1879.34C1361.54 1879.13 1361.5 1878.93 1361.44 1878.73L1354.71 1857.07Z" fill="#800000"/>
<path fill-rule="evenodd" clip-rule="evenodd" d="M956.994 1162.18L1089.05 1231.7L1203.26 1295.69L1285.36 1332.17L1329 1351.55L1348.04 1361.07L1366.2 1371.53C1366.36 1371.63 1366.51 1371.74 1366.65 1371.86L1380.74 1384.54C1380.87 1384.65 1380.98 1384.77 1381.08 1384.91L1392.79 1400.39C1392.93 1400.58 1393.05 1400.79 1393.14 1401.01L1398.61 1414.72L1403 1431.03C1403.06 1431.25 1403.09 1431.48 1403.09 1431.71L1403.15 1446.61C1403.15 1446.8 1403.13 1447 1403.08 1447.19L1398.26 1468.97C1398.21 1469.18 1398.14 1469.38 1398.04 1469.57L1384.93 1496.03C1384.87 1496.15 1384.8 1496.26 1384.73 1496.37L1371.5 1522.5L1357.5 1553.5L1350.65 1570.03C1350.55 1570.2 1350.47 1570.38 1350.41 1570.57L1346.42 1583.51C1346.37 1583.67 1346.33 1583.84 1346.31 1584.01L1344.53 1600.43C1344.51 1600.62 1344.51 1600.82 1344.53 1601.01L1344.5 1627L1346.24 1694.33C1346.24 1694.53 1346.27 1694.73 1346.31 1694.93L1359.61 1752.81L1365.69 1775.42L1371.02 1795.23C1371.06 1795.39 1371.09 1795.56 1371.1 1795.73L1372.2 1811.23C1372.22 1811.5 1372.19 1811.77 1372.13 1812.04L1365.94 1837.58L1376.3 1842.11L1387.87 1847.74C1388.23 1847.91 1388.62 1848.02 1389.01 1848.04L1402.36 1848.83L1418.33 1848.65L1437.75 1847.04C1437.93 1847.02 1438.11 1846.99 1438.28 1846.94L1464 1840.03L1466.97 1823.67L1482.17 1744.09L1500.22 1680.21L1522.09 1608.45L1540.72 1546.7L1560.47 1482.37L1578.08 1427.48C1578.12 1427.35 1578.15 1427.22 1578.17 1427.09L1581.23 1408.15L1583.41 1387.68C1583.43 1387.51 1583.43 1387.35 1583.41 1387.18L1582.08 1370.65C1582.07 1370.49 1582.04 1370.33 1582 1370.18L1577.45 1353.28C1577.39 1353.04 1577.29 1352.81 1577.16 1352.6L1565.1 1332.64C1565.03 1332.52 1564.94 1332.4 1564.84 1332.29L1518.37 1278.19L1478.75 1238.06L1441.65 1207.32L1394.5 1171.5L1274.73 1073.55C1274.07 1073.01 1273.19 1072.82 1272.36 1073.04L957.544 1157.27C955.214 1157.9 954.86 1161.05 956.994 1162.18ZM1445.33 2089.68C1445.34 2090.08 1445.44 2090.46 1445.61 2090.82C1445.44 2090.46 1445.34 2090.08 1445.33 2089.68ZM1445.01 2075.04C1444.98 2075.2 1444.97 2075.37 1444.97 2075.53C1444.97 2075.37 1444.98 2075.2 1445.01 2075.04ZM1289.31 1942.25C1289.41 1942.6 1289.43 1942.98 1289.37 1943.34C1289.43 1942.98 1289.41 1942.61 1289.31 1942.25L1289.31 1942.25ZM1310.02 1989.83C1311.22 1988.28 1313.64 1988.53 1314.5 1990.3C1313.65 1988.52 1311.22 1988.27 1310.02 1989.83ZM1332.81 2029.27C1332.88 2029.41 1332.93 2029.55 1332.97 2029.7L1332.96 2029.69C1332.92 2029.55 1332.87 2029.41 1332.81 2029.27ZM1341.65 2061.97C1341.71 2062.21 1341.74 2062.45 1341.74 2062.69C1341.74 2062.45 1341.71 2062.21 1341.65 2061.98L1341.65 2061.97Z" fill="#800000"/>
<path d="M1365.94 1837.58L1354.71 1857.07L1365.17 1866.24C1365.38 1866.43 1365.61 1866.58 1365.87 1866.7L1378.82 1872.79C1379.01 1872.88 1379.21 1872.95 1379.41 1873L1399.87 1877.76C1400.02 1877.79 1400.16 1877.81 1400.31 1877.82L1418.06 1879.28C1418.24 1879.3 1418.43 1879.29 1418.61 1879.27L1437.13 1877.39C1437.37 1877.37 1437.6 1877.31 1437.82 1877.23L1459.1 1869.71L1460.33 1860.23L1464 1840.03L1438.28 1846.94C1438.11 1846.99 1437.93 1847.02 1437.75 1847.04L1418.33 1848.65L1402.36 1848.83L1389.01 1848.04C1388.62 1848.02 1388.23 1847.91 1387.87 1847.74L1376.3 1842.11L1365.94 1837.58Z" fill="#800000"/>
<path d="M1488.17 2142.36L1475.62 2129.72L1459.45 2112.11L1449.23 2097.93L1437.98 2104.07C1437.77 2104.19 1437.57 2104.33 1437.39 2104.49L1427.24 2113.76C1427.09 2113.9 1426.95 2114.06 1426.82 2114.23L1419.37 2124.72L1411.54 2136.43L1405.22 2148.66L1439.07 2165.63L1459.99 2173.44C1460.28 2173.56 1460.6 2173.62 1460.91 2173.63L1477.56 2174.35C1477.87 2174.36 1478.18 2174.33 1478.47 2174.25L1496.2 2169.48C1496.6 2169.38 1496.96 2169.19 1497.28 2168.94L1507.37 2160.99L1501.95 2154.02C1501.83 2153.87 1501.7 2153.74 1501.56 2153.62L1488.17 2142.36Z" fill="#800000"/>
<path d="M1365.94 1837.58L1354.71 1857.07M1365.94 1837.58L1376.3 1842.11L1387.87 1847.74C1388.23 1847.91 1388.62 1848.02 1389.01 1848.04L1402.36 1848.83L1418.33 1848.65L1437.75 1847.04C1437.93 1847.02 1438.11 1846.99 1438.28 1846.94L1464 1840.03M1365.94 1837.58L1372.13 1812.04M1354.71 1857.07L1332.53 1869.9M1354.71 1857.07L1361.44 1878.73C1361.5 1878.93 1361.54 1879.13 1361.56 1879.34L1363.51 1900L1364.68 1917.98L1365.22 1942.09L1362.95 1987.64C1362.93 1987.88 1362.89 1988.12 1362.83 1988.34L1352.61 2022.8M1354.71 1857.07L1365.17 1866.24C1365.38 1866.43 1365.61 1866.58 1365.87 1866.7L1378.82 1872.79C1379.01 1872.88 1379.21 1872.95 1379.41 1873L1399.87 1877.76C1400.02 1877.79 1400.16 1877.81 1400.31 1877.82L1418.06 1879.28C1418.24 1879.3 1418.43 1879.29 1418.61 1879.27L1437.13 1877.39C1437.37 1877.37 1437.6 1877.31 1437.82 1877.23L1459.1 1869.71M1332.53 1869.9L1312.48 1875.29L1299.01 1880.67M1332.53 1869.9L1320.83 1880.82L1309.69 1892.8C1309.55 1892.95 1309.42 1893.12 1309.31 1893.29L1301.94 1905.5C1301.69 1905.92 1301.55 1906.39 1301.52 1906.88L1300.84 1918.28C1300.83 1918.55 1300.85 1918.82 1300.91 1919.09L1306.42 1944.49C1306.5 1944.87 1306.65 1945.22 1306.87 1945.54L1312.59 1953.95L1326.98 1975.46C1327.08 1975.6 1327.19 1975.73 1327.3 1975.85L1335.15 1984.12C1335.33 1984.32 1335.49 1984.54 1335.62 1984.77L1344.63 2001.61L1352.61 2022.8M1507.37 2160.99L1497.28 2168.94C1496.96 2169.19 1496.6 2169.38 1496.2 2169.48L1478.47 2174.25C1478.18 2174.33 1477.87 2174.36 1477.56 2174.35L1460.91 2173.63C1460.6 2173.62 1460.28 2173.56 1459.99 2173.44L1439.07 2165.63L1405.22 2148.66M1507.37 2160.99L1501.95 2154.02M1507.37 2160.99L1507.69 2168.24M1449.23 2097.93L1459.45 2112.11L1475.62 2129.72L1488.17 2142.36L1501.56 2153.62M1449.23 2097.93L1437.98 2104.07C1437.77 2104.19 1437.57 2104.33 1437.39 2104.49L1427.24 2113.76C1427.09 2113.9 1426.95 2114.06 1426.82 2114.23L1419.37 2124.72L1411.54 2136.43L1405.22 2148.66M1449.23 2097.93L1445.61 2090.82M1405.22 2148.66L1381.5 2134.28C1381.28 2134.15 1381.08 2133.99 1380.9 2133.8L1371.87 2124.48C1371.74 2124.35 1371.62 2124.2 1371.52 2124.05L1365.77 2115.36C1365.6 2115.1 1365.46 2114.8 1365.38 2114.49L1360.65 2096.88C1360.6 2096.7 1360.56 2096.52 1360.55 2096.33L1359.18 2078C1359.17 2077.85 1359.17 2077.7 1359.18 2077.55L1360.47 2060.49L1360.55 2047.69C1360.55 2047.37 1360.5 2047.05 1360.4 2046.74L1352.61 2022.8M1459.1 1869.71L1457.5 1882.04L1454.77 1909.31L1451.02 1939.6L1449.43 1964.28L1450.44 1996.95L1452.33 2025.91M1459.1 1869.71L1460.33 1860.23L1464 1840.03M1464 1840.03L1466.97 1823.67L1482.17 1744.09L1500.22 1680.21L1522.09 1608.45L1540.72 1546.7L1560.47 1482.37L1578.08 1427.48M956.994 1162.18L1089.05 1231.7L1203.26 1295.69L1285.36 1332.17L1329 1351.55L1348.04 1361.07L1366.2 1371.53M956.994 1162.18C954.86 1161.05 955.214 1157.9 957.544 1157.27M956.994 1162.18V1162.18C954.86 1161.05 955.214 1157.9 957.544 1157.27V1157.27M957.544 1157.27L1272.36 1073.04M1272.36 1073.04C1273.19 1072.82 1274.07 1073.01 1274.73 1073.55M1272.36 1073.04V1073.04C1273.19 1072.82 1274.07 1073.01 1274.73 1073.55V1073.55M1274.73 1073.55L1394.5 1171.5L1441.65 1207.32L1478.75 1238.06L1518.37 1278.19L1564.84 1332.29M1564.84 1332.29C1564.94 1332.4 1565.03 1332.52 1565.1 1332.64M1564.84 1332.29V1332.29C1564.94 1332.4 1565.03 1332.52 1565.1 1332.64V1332.64M1565.1 1332.64L1577.16 1352.6M1577.16 1352.6C1577.29 1352.81 1577.39 1353.04 1577.45 1353.28M1577.16 1352.6V1352.6C1577.29 1352.81 1577.39 1353.04 1577.45 1353.28V1353.28M1577.45 1353.28L1582 1370.18M1582 1370.18C1582.04 1370.33 1582.07 1370.49 1582.08 1370.65M1582 1370.18V1370.18C1582.04 1370.33 1582.07 1370.49 1582.08 1370.65V1370.65M1582.08 1370.65L1583.41 1387.18M1583.41 1387.18C1583.43 1387.35 1583.43 1387.51 1583.41 1387.68M1583.41 1387.18V1387.18C1583.43 1387.35 1583.43 1387.51 1583.41 1387.68V1387.68M1583.41 1387.68L1581.23 1408.15L1578.17 1427.09M1578.17 1427.09C1578.15 1427.22 1578.12 1427.35 1578.08 1427.48M1578.17 1427.09V1427.09C1578.15 1427.22 1578.12 1427.35 1578.08 1427.48V1427.48M1452.33 2025.91C1452.34 2026.09 1452.34 2026.26 1452.31 2026.43M1452.33 2025.91V2025.91C1452.34 2026.09 1452.34 2026.26 1452.31 2026.43V2026.43M1452.31 2026.43L1450.84 2037.56L1447.86 2057.12L1445.01 2075.04M1445.01 2075.04C1444.98 2075.2 1444.97 2075.37 1444.97 2075.53M1445.01 2075.04V2075.04C1444.98 2075.2 1444.97 2075.37 1444.97 2075.53V2075.53M1444.97 2075.53L1445.33 2089.68M1445.33 2089.68C1445.34 2090.08 1445.44 2090.46 1445.61 2090.82M1445.33 2089.68V2089.68C1445.34 2090.08 1445.44 2090.46 1445.61 2090.82V2090.82M1501.56 2153.62C1501.7 2153.74 1501.83 2153.87 1501.95 2154.02M1501.56 2153.62V2153.62C1501.7 2153.74 1501.83 2153.87 1501.95 2154.02V2154.02M1507.69 2168.24C1507.71 2168.82 1507.55 2169.38 1507.22 2169.86M1507.69 2168.24V2168.24C1507.71 2168.82 1507.55 2169.38 1507.22 2169.86V2169.86M1507.22 2169.86L1499 2181.82M1499 2181.82V2181.82C1498.9 2181.96 1498.78 2182.1 1498.65 2182.23V2182.23M1499 2181.82C1498.9 2181.96 1498.78 2182.1 1498.65 2182.23M1498.65 2182.23L1492.07 2188.56M1492.07 2188.56C1491.74 2188.86 1491.35 2189.09 1490.92 2189.2M1492.07 2188.56V2188.56C1491.74 2188.86 1491.35 2189.09 1490.92 2189.2V2189.2M1490.92 2189.2L1477.18 2192.9M1477.18 2192.9C1476.83 2192.99 1476.45 2193.01 1476.09 2192.96M1477.18 2192.9V2192.9C1476.83 2192.99 1476.45 2193.01 1476.09 2192.96V2192.96M1476.09 2192.96L1460.41 2190.55L1435.87 2184.34L1416.44 2176.75L1398.29 2168.82L1373.27 2154.05L1350.76 2137.18M1350.76 2137.18C1350.49 2136.98 1350.26 2136.73 1350.09 2136.44M1350.76 2137.18V2137.18C1350.49 2136.98 1350.26 2136.73 1350.09 2136.44V2136.44M1350.09 2136.44L1344.81 2127.76M1344.81 2127.76C1344.68 2127.55 1344.58 2127.32 1344.52 2127.07M1344.81 2127.76V2127.76C1344.68 2127.55 1344.58 2127.32 1344.52 2127.07V2127.07M1344.52 2127.07L1341.82 2117.07M1341.82 2117.07C1341.77 2116.87 1341.74 2116.67 1341.73 2116.47M1341.82 2117.07V2117.07C1341.77 2116.87 1341.74 2116.67 1341.73 2116.47V2116.47M1341.73 2116.47L1341.29 2103.17L1341.44 2081.63L1341.74 2062.7M1341.74 2062.7C1341.74 2062.7 1341.74 2062.69 1341.74 2062.69M1341.74 2062.7L1341.74 2062.69M1341.65 2061.97L1337.15 2045.26L1332.97 2029.7M1341.65 2061.97C1341.71 2062.21 1341.74 2062.45 1341.74 2062.69M1341.65 2061.97L1341.65 2061.98C1341.71 2062.21 1341.74 2062.45 1341.74 2062.69V2062.69M1332.97 2029.7C1332.93 2029.55 1332.88 2029.41 1332.81 2029.27M1332.97 2029.7L1332.96 2029.69C1332.92 2029.55 1332.87 2029.41 1332.81 2029.27V2029.27M1332.81 2029.27L1319.87 2001.41L1314.5 1990.3L1314.5 1990.3M1332.81 2029.27C1332.81 2029.27 1332.81 2029.27 1332.81 2029.27M1332.81 2029.27L1332.81 2029.27M1310.01 1989.84L1306.87 1993.93L1298.02 2008.66L1285.81 2032.99L1277.6 2053.5L1262.07 2103.87M1310.01 1989.84C1310.02 1989.84 1310.02 1989.83 1310.02 1989.83M1310.01 1989.84L1310.02 1989.83M1262.07 2103.87C1261.53 2105.6 1259.46 2106.3 1257.99 2105.25M1262.07 2103.87V2103.87C1261.53 2105.6 1259.46 2106.3 1257.99 2105.25V2105.25M1257.99 2105.25L1249.49 2099.17M1249.49 2099.17C1248.57 2098.52 1248.17 2097.35 1248.49 2096.27M1249.49 2099.17V2099.17C1248.57 2098.52 1248.17 2097.35 1248.49 2096.27V2096.27M1248.49 2096.27L1284.74 1972.88L1289.37 1943.35M1289.37 1943.35C1289.37 1943.34 1289.37 1943.34 1289.37 1943.34M1289.37 1943.35L1289.37 1943.34M1289.31 1942.25L1284.23 1923.35M1289.31 1942.25C1289.41 1942.6 1289.43 1942.98 1289.37 1943.34M1289.31 1942.25L1289.31 1942.25C1289.41 1942.61 1289.43 1942.98 1289.37 1943.34V1943.34M1284.23 1923.35C1284.2 1923.23 1284.17 1923.1 1284.16 1922.97M1284.23 1923.35V1923.35C1284.2 1923.23 1284.17 1923.1 1284.16 1922.97V1922.97M1284.16 1922.97L1282.82 1911.48M1282.82 1911.48C1282.8 1911.28 1282.8 1911.09 1282.82 1910.89M1282.82 1911.48V1911.48C1282.8 1911.28 1282.8 1911.09 1282.82 1910.89V1910.89M1282.82 1910.89L1283.66 1903.14M1283.66 1903.14C1283.69 1902.85 1283.77 1902.57 1283.9 1902.3M1283.66 1903.14V1903.14C1283.69 1902.85 1283.77 1902.57 1283.9 1902.3V1902.3M1283.9 1902.3L1286.91 1895.89L1291.27 1888.93M1291.27 1888.93C1291.35 1888.8 1291.44 1888.68 1291.55 1888.57M1291.27 1888.93V1888.93C1291.35 1888.8 1291.44 1888.68 1291.55 1888.57V1888.57M1291.55 1888.57L1298.02 1881.36M1298.02 1881.36C1298.29 1881.06 1298.63 1880.82 1299.01 1880.67M1298.02 1881.36V1881.36C1298.29 1881.06 1298.63 1880.82 1299.01 1880.67V1880.67M1372.13 1812.04C1372.19 1811.77 1372.22 1811.5 1372.2 1811.23M1372.13 1812.04V1812.04C1372.19 1811.77 1372.22 1811.5 1372.2 1811.23V1811.23M1372.2 1811.23L1371.1 1795.73M1371.1 1795.73C1371.09 1795.56 1371.06 1795.39 1371.02 1795.23M1371.1 1795.73V1795.73C1371.09 1795.56 1371.06 1795.39 1371.02 1795.23V1795.23M1371.02 1795.23L1365.69 1775.42L1359.61 1752.81L1346.31 1694.93C1346.27 1694.73 1346.24 1694.53 1346.24 1694.33L1344.5 1627L1344.53 1601.01M1344.53 1601.01C1344.51 1600.82 1344.51 1600.62 1344.53 1600.43M1344.53 1601.01V1601.01C1344.51 1600.82 1344.51 1600.62 1344.53 1600.43V1600.43M1344.53 1600.43L1346.31 1584.01M1346.31 1584.01C1346.33 1583.84 1346.37 1583.67 1346.42 1583.51M1346.31 1584.01V1584.01C1346.33 1583.84 1346.37 1583.67 1346.42 1583.51V1583.51M1346.42 1583.51L1350.41 1570.57M1350.41 1570.57C1350.47 1570.38 1350.55 1570.2 1350.65 1570.03M1350.41 1570.57V1570.57C1350.47 1570.38 1350.55 1570.2 1350.65 1570.03V1570.03M1350.65 1570.03L1357.5 1553.5L1371.5 1522.5L1384.73 1496.37M1384.73 1496.37C1384.8 1496.26 1384.87 1496.15 1384.93 1496.03M1384.73 1496.37V1496.37C1384.8 1496.26 1384.87 1496.15 1384.93 1496.03V1496.03M1384.93 1496.03L1398.04 1469.57M1398.04 1469.57C1398.14 1469.38 1398.21 1469.18 1398.26 1468.97M1398.04 1469.57V1469.57C1398.14 1469.38 1398.21 1469.18 1398.26 1468.97V1468.97M1398.26 1468.97L1403.08 1447.19M1403.08 1447.19C1403.13 1447 1403.15 1446.8 1403.15 1446.61M1403.08 1447.19V1447.19C1403.13 1447 1403.15 1446.8 1403.15 1446.61V1446.61M1403.15 1446.61L1403.09 1431.71M1403.09 1431.71C1403.09 1431.48 1403.06 1431.25 1403 1431.03M1403.09 1431.71V1431.71C1403.09 1431.48 1403.06 1431.25 1403 1431.03V1431.03M1403 1431.03L1398.61 1414.72L1393.14 1401.01M1393.14 1401.01C1393.05 1400.79 1392.93 1400.58 1392.79 1400.39M1393.14 1401.01V1401.01C1393.05 1400.79 1392.93 1400.58 1392.79 1400.39V1400.39M1392.79 1400.39L1381.08 1384.91M1381.08 1384.91C1380.98 1384.77 1380.87 1384.65 1380.74 1384.54M1381.08 1384.91V1384.91C1380.98 1384.77 1380.87 1384.65 1380.74 1384.54V1384.54M1380.74 1384.54L1366.65 1371.86M1366.65 1371.86C1366.51 1371.74 1366.36 1371.63 1366.2 1371.53M1366.65 1371.86V1371.86C1366.51 1371.74 1366.36 1371.63 1366.2 1371.53V1371.53M1310.02 1989.83C1311.22 1988.28 1313.64 1988.53 1314.5 1990.3M1310.02 1989.83V1989.83C1311.22 1988.27 1313.65 1988.52 1314.5 1990.3V1990.3" stroke="black" stroke-width="4" stroke-linecap="round"/>
<path d="M412.497 1782.75L394.212 1772.91L380.724 1767.57C380.345 1767.42 379.936 1767.36 379.53 1767.39L369.872 1768.19C369.721 1768.2 369.57 1768.23 369.423 1768.27L361.475 1770.33L354.885 1772.93C354.612 1773.03 354.359 1773.18 354.135 1773.37L348.206 1778.43C348.055 1778.56 347.92 1778.7 347.801 1778.86L340.885 1788.13C340.807 1788.24 340.737 1788.35 340.675 1788.46L331.4 1805.69L331.397 1805.7C331.223 1806.02 330.983 1806.3 330.694 1806.53L330.688 1806.53L307.045 1824.83L195.98 1889.66C195.006 1890.23 194.498 1891.35 194.715 1892.46L196.727 1902.71C197.076 1904.49 199.06 1905.4 200.634 1904.51L246.51 1878.55L266.559 1869.27L292.144 1859.96L308.692 1855.32L313.783 1854.51L313.792 1854.5C315.736 1854.19 317.325 1856.04 316.73 1857.92L316.729 1857.92L313.002 1869.69L303.29 1898.82L303.288 1898.83C303.241 1898.97 303.183 1899.11 303.113 1899.24L303.11 1899.24L295.468 1913.44L287.266 1928.67L287.263 1928.68C287.148 1928.89 287.005 1929.09 286.836 1929.26L286.831 1929.26L273.625 1942.82L258.723 1958.38L249.918 1968.36C249.784 1968.51 249.668 1968.68 249.572 1968.86L244.66 1977.98C244.54 1978.2 244.453 1978.44 244.401 1978.69L242.283 1988.62C242.213 1988.95 242.206 1989.29 242.263 1989.62L247.055 2017.34L255.106 2045.26L262.858 2063.48L271.776 2082.33L285.363 2103.7L295.105 2116.21C295.331 2116.5 295.616 2116.74 295.94 2116.92L308.464 2123.66C308.858 2123.87 309.298 2123.98 309.745 2123.98L318.879 2123.9C319.058 2123.89 319.237 2123.87 319.412 2123.84L333.601 2120.79C334.165 2120.67 334.674 2120.37 335.05 2119.93L339.796 2114.44L327.003 2113.3C326.598 2113.26 326.205 2113.14 325.848 2112.95L309.68 2104.24C309.41 2104.1 309.164 2103.91 308.95 2103.69L297.334 2091.74C297.115 2091.51 296.932 2091.25 296.793 2090.97L286.947 2070.93L273.988 2035.35L266.609 2008.61C266.54 2008.36 266.504 2008.11 266.501 2007.85L266.329 1994.87C266.327 1994.69 266.342 1994.5 266.373 1994.32L268.157 1984.06C268.212 1983.74 268.318 1983.44 268.471 1983.15L277.113 1967.1C277.202 1966.94 277.307 1966.78 277.425 1966.63L289.014 1952.36C289.109 1952.25 289.212 1952.14 289.322 1952.04L301.963 1940.52L310.814 1931.26C311.036 1931.03 311.22 1930.76 311.357 1930.47L322.131 1907.72L330.868 1886.83L335.878 1868.4C335.948 1868.14 335.984 1867.87 335.983 1867.6L335.954 1856.2C335.954 1856.03 335.967 1855.87 335.996 1855.7L340.291 1830.18L341.904 1820.14C341.965 1819.76 342.099 1819.39 342.298 1819.06L355.727 1796.81C355.869 1796.58 356.041 1796.36 356.24 1796.18L364.557 1788.35C364.912 1788.01 365.341 1787.77 365.81 1787.64L379.55 1783.82C379.749 1783.77 379.953 1783.73 380.159 1783.72L396.487 1782.66L412.497 1782.75Z" fill="#800000"/>
<path d="M367.83 1998.06L383.42 1985.88L392.133 1978.8C392.269 1978.69 392.393 1978.57 392.504 1978.43L411.009 1956.07L432.703 1931.62L450.806 1914.78L474.326 1895.32L495.033 1877.37L504.657 1869.5L484.02 1860.37C483.801 1860.27 483.595 1860.15 483.406 1860L468.647 1848.66C468.502 1848.55 468.367 1848.42 468.244 1848.29L456.336 1835.04C456.238 1834.93 456.148 1834.82 456.067 1834.69L444.454 1817.19C444.337 1817.01 444.239 1816.82 444.162 1816.63L438.926 1803.31C438.824 1803.05 438.758 1802.78 438.732 1802.5L437.424 1788.64L427.448 1809.01C427.357 1809.2 427.246 1809.37 427.119 1809.54L414.354 1825.9L402.864 1839.79L386.705 1857.68L353.78 1889.25C353.608 1889.41 353.416 1889.55 353.21 1889.67L322.131 1907.72L311.357 1930.47C311.22 1930.76 311.036 1931.03 310.814 1931.26L301.963 1940.52L289.322 1952.04C289.212 1952.14 289.109 1952.25 289.014 1952.36L277.425 1966.63C277.307 1966.78 277.202 1966.94 277.113 1967.1L268.471 1983.15C268.318 1983.44 268.212 1983.74 268.157 1984.06L266.373 1994.32C266.342 1994.5 266.327 1994.69 266.329 1994.87L266.501 2007.85C266.504 2008.11 266.54 2008.36 266.609 2008.61L273.988 2035.35L286.975 2030.8L300.71 2027.66L313.323 2025.15C313.532 2025.1 313.745 2025.09 313.959 2025.09L327.699 2025.32C327.94 2025.32 328.179 2025.35 328.412 2025.41L340.809 2028.67L343.063 2021.02C343.175 2020.64 343.37 2020.29 343.634 2020L353.095 2009.46C353.203 2009.34 353.321 2009.23 353.45 2009.13L367.83 1998.06Z" fill="#800000"/>
<path d="M437.424 1788.64L412.497 1782.75L396.487 1782.66L380.159 1783.72C379.953 1783.73 379.749 1783.77 379.55 1783.82L365.81 1787.64C365.341 1787.77 364.912 1788.01 364.557 1788.35L356.24 1796.18C356.041 1796.36 355.869 1796.58 355.727 1796.81L342.298 1819.06C342.099 1819.39 341.965 1819.76 341.904 1820.14L340.291 1830.18L335.996 1855.7C335.967 1855.87 335.954 1856.03 335.954 1856.2L335.983 1867.6C335.984 1867.87 335.948 1868.14 335.878 1868.4L330.868 1886.83L322.131 1907.72L353.21 1889.67C353.416 1889.55 353.608 1889.41 353.78 1889.25L386.705 1857.68L402.864 1839.79L414.354 1825.9L427.119 1809.54C427.246 1809.37 427.357 1809.2 427.448 1809.01L437.424 1788.64Z" fill="#800000"/>
<path fill-rule="evenodd" clip-rule="evenodd" d="M625.261 1010.34L673.558 1151.54L712.675 1276.47L747.332 1359.36L765.767 1403.41L773.07 1423.4L779.095 1443.48C779.149 1443.66 779.183 1443.84 779.198 1444.03L780.742 1462.92C780.755 1463.08 780.753 1463.25 780.735 1463.42L778.618 1482.71C778.592 1482.95 778.535 1483.18 778.448 1483.4L773.013 1497.13L765.008 1512C764.9 1512.2 764.766 1512.39 764.609 1512.56L754.424 1523.43C754.29 1523.58 754.14 1523.7 753.978 1523.81L735.518 1536.34C735.34 1536.46 735.149 1536.55 734.948 1536.63L707.251 1546.86C707.125 1546.91 706.996 1546.94 706.865 1546.97L679.311 1556.89L647.85 1569.82L631.522 1577.13C631.332 1577.19 631.15 1577.27 630.978 1577.37L619.189 1584.04C619.042 1584.12 618.903 1584.22 618.775 1584.33L606.201 1595.05C606.055 1595.17 605.923 1595.31 605.807 1595.47L587.941 1614.34L542.983 1664.5C542.85 1664.65 542.731 1664.81 542.63 1664.98L512.561 1716.19L501.46 1736.81L491.737 1754.87C491.656 1755.02 491.562 1755.16 491.454 1755.29L481.613 1767.32C481.44 1767.53 481.236 1767.71 481.007 1767.86L458.969 1782.18L463.399 1792.59L467.946 1804.63C468.085 1805 468.297 1805.34 468.568 1805.63L477.734 1815.36L489.465 1826.2L504.695 1838.36C504.835 1838.47 504.986 1838.57 505.144 1838.65L528.596 1851.28L541.983 1841.43L607.665 1793.99L664.639 1759.94L729.813 1722.77L785.741 1690.65L844.271 1657.44L894.757 1629.61C894.874 1629.55 894.985 1629.47 895.091 1629.39L910.313 1617.72L925.954 1604.33C926.079 1604.22 926.194 1604.1 926.297 1603.97L936.673 1591.04C936.774 1590.91 936.863 1590.78 936.939 1590.64L945.235 1575.23C945.352 1575.01 945.439 1574.78 945.491 1574.53L950.422 1551.74C950.453 1551.6 950.472 1551.45 950.479 1551.31L953.816 1480.07L952.557 1423.69L946.69 1375.87L936.991 1317.46L917.139 1164.01C917.029 1163.16 916.52 1162.42 915.769 1162.02L629.029 1007.14C626.906 1006 624.48 1008.05 625.261 1010.34ZM343.634 2020C343.37 2020.29 343.175 2020.64 343.063 2021.02C343.175 2020.64 343.37 2020.29 343.634 2020ZM353.45 2009.13C353.321 2009.23 353.203 2009.34 353.095 2009.46C353.203 2009.34 353.321 2009.23 353.45 2009.13ZM331.4 1805.69C331.225 1806.01 330.985 1806.3 330.694 1806.53C330.983 1806.3 331.223 1806.02 331.397 1805.7L331.4 1805.69ZM313.792 1854.5C315.735 1854.2 317.323 1856.04 316.73 1857.92C317.325 1856.04 315.736 1854.19 313.792 1854.5ZM303.288 1898.83C303.24 1898.97 303.181 1899.11 303.11 1899.24L303.113 1899.24C303.183 1899.11 303.241 1898.97 303.288 1898.83ZM287.266 1928.67C287.15 1928.89 287.006 1929.08 286.836 1929.26C287.005 1929.09 287.148 1928.89 287.263 1928.68L287.266 1928.67Z" fill="#800000"/>
<path d="M458.969 1782.18L437.424 1788.64L438.732 1802.5C438.758 1802.78 438.824 1803.05 438.926 1803.31L444.162 1816.63C444.239 1816.82 444.337 1817.01 444.454 1817.19L456.067 1834.69C456.148 1834.82 456.238 1834.93 456.336 1835.04L468.244 1848.29C468.367 1848.42 468.502 1848.55 468.647 1848.66L483.406 1860C483.595 1860.15 483.801 1860.27 484.02 1860.37L504.657 1869.5L512.059 1863.45L528.596 1851.28L505.144 1838.65C504.986 1838.57 504.835 1838.47 504.695 1838.36L489.465 1826.2L477.734 1815.36L468.568 1805.63C468.297 1805.34 468.085 1805 467.946 1804.63L463.399 1792.59L458.969 1782.18Z" fill="#800000"/>
<path d="M338.628 2087.71L338.178 2069.91L338.506 2046L340.809 2028.67L328.412 2025.41C328.179 2025.35 327.94 2025.32 327.699 2025.32L313.959 2025.09C313.745 2025.09 313.532 2025.1 313.323 2025.15L300.71 2027.66L286.975 2030.8L273.988 2035.35L286.947 2070.93L296.793 2090.97C296.932 2091.25 297.115 2091.51 297.334 2091.74L308.95 2103.69C309.164 2103.91 309.41 2104.1 309.68 2104.24L325.848 2112.95C326.205 2113.14 326.598 2113.26 327.003 2113.3L339.796 2114.44L340.637 2105.65C340.654 2105.46 340.653 2105.28 340.631 2105.09L338.628 2087.71Z" fill="#800000"/>
<path d="M458.969 1782.18L437.424 1788.64M458.969 1782.18L463.399 1792.59L467.946 1804.63C468.085 1805 468.297 1805.34 468.568 1805.63L477.734 1815.36L489.465 1826.2L504.695 1838.36C504.835 1838.47 504.986 1838.57 505.144 1838.65L528.596 1851.28M458.969 1782.18L481.007 1767.86M437.424 1788.64L412.497 1782.75M437.424 1788.64L427.448 1809.01C427.357 1809.2 427.246 1809.37 427.119 1809.54L414.354 1825.9L402.864 1839.79L386.705 1857.68L353.78 1889.25C353.608 1889.41 353.416 1889.55 353.21 1889.67L322.131 1907.72M437.424 1788.64L438.732 1802.5C438.758 1802.78 438.824 1803.05 438.926 1803.31L444.162 1816.63C444.239 1816.82 444.337 1817.01 444.454 1817.19L456.067 1834.69C456.148 1834.82 456.238 1834.93 456.336 1835.04L468.244 1848.29C468.367 1848.42 468.502 1848.55 468.647 1848.66L483.406 1860C483.595 1860.15 483.801 1860.27 484.02 1860.37L504.657 1869.5M412.497 1782.75L394.212 1772.91L380.724 1767.57M412.497 1782.75L396.487 1782.66L380.159 1783.72C379.953 1783.73 379.749 1783.77 379.55 1783.82L365.81 1787.64C365.341 1787.77 364.912 1788.01 364.557 1788.35L356.24 1796.18C356.041 1796.36 355.869 1796.58 355.727 1796.81L342.298 1819.06C342.099 1819.39 341.965 1819.76 341.904 1820.14L340.291 1830.18L335.996 1855.7C335.968 1855.87 335.954 1856.03 335.954 1856.2L335.983 1867.6C335.984 1867.87 335.948 1868.14 335.878 1868.4L330.868 1886.83L322.131 1907.72M339.796 2114.44L327.003 2113.3C326.598 2113.26 326.205 2113.14 325.848 2112.95L309.68 2104.24C309.41 2104.1 309.164 2103.91 308.95 2103.69L297.334 2091.74C297.115 2091.51 296.932 2091.25 296.793 2090.97L286.947 2070.93L273.988 2035.35M339.796 2114.44L340.637 2105.65M339.796 2114.44L335.05 2119.93M340.809 2028.67L338.506 2046L338.178 2069.91L338.628 2087.71L340.631 2105.09M340.809 2028.67L328.412 2025.41C328.179 2025.35 327.94 2025.32 327.699 2025.32L313.959 2025.09C313.745 2025.09 313.532 2025.1 313.323 2025.15L300.71 2027.66L286.975 2030.8L273.988 2035.35M340.809 2028.67L343.063 2021.02M273.988 2035.35L266.609 2008.61C266.54 2008.36 266.504 2008.11 266.501 2007.85L266.329 1994.87C266.327 1994.69 266.342 1994.5 266.373 1994.32L268.157 1984.06C268.212 1983.74 268.318 1983.44 268.471 1983.15L277.113 1967.1C277.202 1966.94 277.307 1966.78 277.425 1966.63L289.014 1952.36C289.109 1952.25 289.212 1952.14 289.322 1952.04L301.963 1940.52L310.814 1931.26C311.036 1931.03 311.22 1930.76 311.357 1930.47L322.131 1907.72M504.657 1869.5L495.033 1877.37L474.326 1895.32L450.806 1914.78L432.703 1931.62L411.009 1956.07L392.504 1978.43M504.657 1869.5L512.059 1863.45L528.596 1851.28M528.596 1851.28L541.983 1841.43L607.665 1793.99L664.639 1759.94L729.813 1722.77L785.741 1690.65L844.271 1657.44L894.757 1629.61M625.261 1010.34L673.558 1151.54L712.675 1276.47L747.332 1359.36L765.767 1403.41L773.07 1423.4L779.095 1443.48M625.261 1010.34C624.48 1008.05 626.906 1006 629.029 1007.14M625.261 1010.34V1010.34C624.48 1008.05 626.906 1006 629.029 1007.14V1007.14M629.029 1007.14L915.769 1162.02M915.769 1162.02C916.52 1162.42 917.029 1163.16 917.139 1164.01M915.769 1162.02V1162.02C916.52 1162.42 917.029 1163.16 917.139 1164.01V1164.01M917.139 1164.01L936.991 1317.46L946.69 1375.87L952.557 1423.69L953.816 1480.07L950.479 1551.31M950.479 1551.31C950.472 1551.45 950.453 1551.6 950.422 1551.74M950.479 1551.31V1551.31C950.472 1551.45 950.453 1551.6 950.422 1551.74V1551.74M950.422 1551.74L945.491 1574.53M945.491 1574.53C945.439 1574.78 945.352 1575.01 945.235 1575.23M945.491 1574.53V1574.53C945.439 1574.78 945.352 1575.01 945.235 1575.23V1575.23M945.235 1575.23L936.939 1590.64M936.939 1590.64C936.863 1590.78 936.774 1590.91 936.673 1591.04M936.939 1590.64V1590.64C936.863 1590.78 936.774 1590.91 936.673 1591.04V1591.04M936.673 1591.04L926.297 1603.97M926.297 1603.97C926.194 1604.1 926.079 1604.22 925.954 1604.33M926.297 1603.97V1603.97C926.194 1604.1 926.079 1604.22 925.954 1604.33V1604.33M925.954 1604.33L910.313 1617.72L895.091 1629.39M895.091 1629.39C894.985 1629.47 894.874 1629.55 894.757 1629.61M895.091 1629.39V1629.39C894.985 1629.47 894.874 1629.55 894.757 1629.61V1629.61M392.504 1978.43C392.393 1978.57 392.269 1978.69 392.133 1978.8M392.504 1978.43V1978.43C392.393 1978.57 392.269 1978.69 392.133 1978.8V1978.8M392.133 1978.8L383.42 1985.88L367.83 1998.06L353.45 2009.13M353.45 2009.13C353.321 2009.23 353.203 2009.34 353.095 2009.46M353.45 2009.13V2009.13C353.321 2009.23 353.203 2009.34 353.095 2009.46V2009.46M353.095 2009.46L343.634 2020M343.634 2020C343.37 2020.29 343.175 2020.64 343.063 2021.02M343.634 2020V2020C343.37 2020.29 343.175 2020.64 343.063 2021.02V2021.02M340.631 2105.09C340.653 2105.28 340.654 2105.46 340.637 2105.65M340.631 2105.09V2105.09C340.653 2105.28 340.654 2105.46 340.637 2105.65V2105.65M335.05 2119.93C334.674 2120.37 334.165 2120.67 333.601 2120.79M335.05 2119.93V2119.93C334.674 2120.37 334.165 2120.67 333.601 2120.79V2120.79M333.601 2120.79L319.412 2123.84M319.412 2123.84V2123.84C319.237 2123.87 319.058 2123.89 318.879 2123.9V2123.9M319.412 2123.84C319.237 2123.87 319.058 2123.89 318.879 2123.9M318.879 2123.9L309.745 2123.98M309.745 2123.98C309.298 2123.98 308.858 2123.87 308.464 2123.66M309.745 2123.98V2123.98C309.298 2123.98 308.858 2123.87 308.464 2123.66V2123.66M308.464 2123.66L295.94 2116.92M295.94 2116.92C295.616 2116.74 295.331 2116.5 295.105 2116.21M295.94 2116.92V2116.92C295.616 2116.74 295.331 2116.5 295.105 2116.21V2116.21M295.105 2116.21L285.363 2103.7L271.776 2082.33L262.858 2063.48L255.106 2045.26L247.055 2017.34L242.263 1989.62M242.263 1989.62C242.206 1989.29 242.213 1988.95 242.283 1988.62M242.263 1989.62V1989.62C242.206 1989.29 242.213 1988.95 242.283 1988.62V1988.62M242.283 1988.62L244.401 1978.69M244.401 1978.69C244.453 1978.44 244.54 1978.2 244.66 1977.98M244.401 1978.69V1978.69C244.453 1978.44 244.54 1978.2 244.66 1977.98V1977.98M244.66 1977.98L249.572 1968.86M249.572 1968.86C249.668 1968.68 249.784 1968.51 249.918 1968.36M249.572 1968.86V1968.86C249.668 1968.68 249.784 1968.51 249.918 1968.36V1968.36M249.918 1968.36L258.723 1958.38L273.625 1942.82L286.831 1929.26M286.831 1929.26C286.833 1929.26 286.834 1929.26 286.836 1929.26M286.831 1929.26L286.836 1929.26M287.266 1928.67L295.468 1913.44L303.11 1899.24M287.266 1928.67C287.15 1928.89 287.006 1929.08 286.836 1929.26M287.266 1928.67L287.263 1928.68C287.148 1928.89 287.005 1929.09 286.836 1929.26V1929.26M303.11 1899.24C303.181 1899.11 303.24 1898.97 303.288 1898.83M303.11 1899.24L303.113 1899.24C303.183 1899.11 303.241 1898.97 303.288 1898.83V1898.83M303.29 1898.82L313.002 1869.69L316.729 1857.92L316.73 1857.92M303.29 1898.82C303.29 1898.83 303.289 1898.83 303.288 1898.83M303.29 1898.82L303.288 1898.83M313.783 1854.51L308.692 1855.32L292.144 1859.96L266.559 1869.27L246.51 1878.55L200.634 1904.51M313.783 1854.51C313.786 1854.51 313.789 1854.51 313.792 1854.5M313.783 1854.51L313.792 1854.5M200.634 1904.51C199.06 1905.4 197.076 1904.49 196.727 1902.71M200.634 1904.51V1904.51C199.06 1905.4 197.076 1904.49 196.727 1902.71V1902.71M196.727 1902.71L194.715 1892.46M194.715 1892.46C194.498 1891.35 195.006 1890.23 195.98 1889.66M194.715 1892.46V1892.46C194.498 1891.35 195.006 1890.23 195.98 1889.66V1889.66M195.98 1889.66L307.045 1824.83L330.688 1806.53M330.688 1806.53C330.69 1806.53 330.692 1806.53 330.694 1806.53M330.688 1806.53L330.694 1806.53M331.4 1805.69L340.675 1788.46M331.4 1805.69C331.225 1806.01 330.985 1806.3 330.694 1806.53M331.4 1805.69L331.397 1805.7C331.223 1806.02 330.983 1806.3 330.694 1806.53V1806.53M340.675 1788.46C340.737 1788.35 340.807 1788.24 340.885 1788.13M340.675 1788.46V1788.46C340.737 1788.35 340.807 1788.24 340.885 1788.13V1788.13M340.885 1788.13L347.801 1778.86M347.801 1778.86C347.92 1778.7 348.055 1778.56 348.206 1778.43M347.801 1778.86V1778.86C347.92 1778.7 348.055 1778.56 348.206 1778.43V1778.43M348.206 1778.43L354.135 1773.37M354.135 1773.37C354.359 1773.18 354.612 1773.03 354.885 1772.93M354.135 1773.37V1773.37C354.359 1773.18 354.612 1773.03 354.885 1772.93V1772.93M354.885 1772.93L361.475 1770.33L369.423 1768.27M369.423 1768.27C369.57 1768.23 369.721 1768.2 369.872 1768.19M369.423 1768.27V1768.27C369.57 1768.23 369.72 1768.2 369.872 1768.19V1768.19M369.872 1768.19L379.53 1767.39M379.53 1767.39C379.936 1767.36 380.345 1767.42 380.724 1767.57M379.53 1767.39V1767.39C379.936 1767.36 380.345 1767.42 380.724 1767.57V1767.57M481.007 1767.86C481.236 1767.71 481.44 1767.53 481.613 1767.32M481.007 1767.86V1767.86C481.236 1767.71 481.44 1767.53 481.613 1767.32V1767.32M481.613 1767.32L491.454 1755.29M491.454 1755.29C491.562 1755.16 491.656 1755.02 491.737 1754.87M491.454 1755.29V1755.29C491.562 1755.16 491.656 1755.02 491.737 1754.87V1754.87M491.737 1754.87L501.46 1736.81L512.561 1716.19L542.63 1664.98C542.731 1664.81 542.85 1664.65 542.983 1664.5L587.941 1614.34L605.807 1595.47M605.807 1595.47C605.923 1595.31 606.055 1595.17 606.201 1595.05M605.807 1595.47V1595.47C605.923 1595.31 606.055 1595.17 606.201 1595.05V1595.05M606.201 1595.05L618.775 1584.33M618.775 1584.33C618.903 1584.22 619.042 1584.12 619.189 1584.04M618.775 1584.33V1584.33C618.903 1584.22 619.042 1584.12 619.189 1584.04V1584.04M619.189 1584.04L630.978 1577.37M630.978 1577.37C631.15 1577.27 631.332 1577.19 631.522 1577.13M630.978 1577.37V1577.37C631.15 1577.27 631.332 1577.19 631.522 1577.13V1577.13M631.522 1577.13L647.85 1569.82L679.311 1556.89L706.865 1546.97M706.865 1546.97C706.996 1546.94 707.125 1546.91 707.251 1546.86M706.865 1546.97V1546.97C706.996 1546.94 707.125 1546.91 707.251 1546.86V1546.86M707.251 1546.86L734.948 1536.63M734.948 1536.63C735.149 1536.55 735.34 1536.46 735.518 1536.34M734.948 1536.63V1536.63C735.149 1536.55 735.34 1536.46 735.518 1536.34V1536.34M735.518 1536.34L753.978 1523.81M753.978 1523.81C754.14 1523.7 754.29 1523.58 754.424 1523.43M753.978 1523.81V1523.81C754.14 1523.7 754.29 1523.58 754.424 1523.43V1523.43M754.424 1523.43L764.609 1512.56M764.609 1512.56C764.766 1512.39 764.9 1512.2 765.008 1512M764.609 1512.56V1512.56C764.766 1512.39 764.9 1512.2 765.008 1512V1512M765.008 1512L773.013 1497.13L778.448 1483.4M778.448 1483.4C778.535 1483.18 778.592 1482.95 778.618 1482.71M778.448 1483.4V1483.4C778.535 1483.18 778.592 1482.95 778.618 1482.71V1482.71M778.618 1482.71L780.735 1463.42M780.735 1463.42C780.753 1463.25 780.755 1463.08 780.742 1462.92M780.735 1463.42V1463.42C780.753 1463.25 780.755 1463.08 780.742 1462.92V1462.92M780.742 1462.92L779.198 1444.03M779.198 1444.03C779.183 1443.84 779.149 1443.66 779.095 1443.48M779.198 1444.03V1444.03C779.183 1443.84 779.148 1443.66 779.095 1443.48V1443.48M313.792 1854.5C315.735 1854.2 317.323 1856.04 316.73 1857.92M313.792 1854.5V1854.5C315.736 1854.19 317.325 1856.04 316.73 1857.92V1857.92" stroke="black" stroke-width="4" stroke-linecap="round"/>
<path d="M148.493 511.521C160.052 480.614 163.684 433.229 164.055 413.4L224.526 439.529L236.809 419.568L268.597 482.779C266.897 477.72 268.319 473.161 287.604 495.394C311.711 523.184 439.185 532.079 473.662 534.217C508.139 536.356 631.111 516.152 668.726 508.791C706.342 501.431 698.367 474.554 700.876 466.322C703.385 458.09 689.052 418.571 688.701 404.966C688.42 394.082 692.889 352.539 695.158 333.128C759.12 322.545 889.449 302.261 899.073 305.783C908.696 309.306 954.221 352.701 975.781 373.958C994.176 394.167 1033.76 441.035 1044.96 466.829C1058.84 498.788 1114.45 571.691 1146.64 613.883L1147.49 614.997C1179.54 657.008 1180.77 641.818 1203.95 679.419C1227.13 717.02 1255.02 737.209 1272.49 767.229C1289.96 797.249 1383.45 874.562 1411.65 892.535C1434.2 906.913 1491.95 923.26 1518 929.636L1517.01 910.971C1519.85 910.015 1528.26 908.035 1539.14 907.758C1550.01 907.481 1592.55 894.035 1612.45 887.346L1666.78 860.648L1656.75 896.741L1683.89 873.9C1685.78 870.099 1689.25 867.243 1688.04 886.23C1686.52 909.964 1636.67 956.269 1626.26 969.265C1615.86 982.26 1587.29 1063.64 1596.46 1062.67C1605.63 1061.7 1598.72 1081.97 1596.53 1091.15C1594.34 1100.33 1527.13 1160.91 1495.85 1171.42C1464.57 1181.93 1465.52 1181.61 1474.71 1190.13C1482.06 1196.95 1480.54 1201.2 1478.85 1202.46L1419.13 1222.53L1405.9 1242.81C1382.42 1253.51 1333.5 1276.63 1325.68 1283.49C1315.89 1292.05 1276.08 1305.43 1265.01 1303.87C1253.93 1302.31 1243.8 1297.27 1231.14 1294.14C1221.02 1291.63 1213.24 1302.61 1210.62 1308.42L1222.65 1312.82C1214.24 1319.17 1194.62 1331.74 1183.48 1331.26C1169.57 1330.66 1171.72 1305.66 1170.42 1292.37C1169.12 1279.09 1160.89 1276.57 1148.9 1287.99C1136.91 1299.41 1094.57 1314.69 1067.38 1315.38C1045.62 1315.93 1000.07 1295.07 980.012 1284.56L931.57 1262.84C931.038 1261.26 930.542 1256.64 932.804 1250.81C935.631 1243.53 931.145 1220.76 922.884 1205.59C916.275 1193.45 896.502 1195.1 887.442 1197.44C889.57 1204.82 892.751 1220.15 888.455 1222.43C883.086 1225.29 876.164 1239.23 878.706 1243.66C881.247 1248.08 898.375 1267.66 901.57 1280.31C904.126 1290.43 896.587 1310.48 892.498 1319.25C878.99 1313.58 848.934 1300.74 836.775 1294.69C821.575 1287.13 777.259 1271.41 762.394 1271.12C750.502 1270.9 741.64 1276.34 738.695 1279.09C720.766 1275.96 679.657 1269.15 658.652 1266.92C632.395 1264.13 624.444 1246.75 619.353 1234.74C614.263 1222.72 607.905 1210.08 597.461 1207.26C587.018 1204.43 564.513 1184.55 559.422 1172.54C554.331 1160.52 542.588 1144.41 519.478 1135.29C496.368 1126.16 470.692 1103.12 458.631 1086.06C446.57 1069 453.697 1011.72 452.087 1000.65C450.477 989.577 438.783 992.45 427.718 994.057C416.654 995.663 409.364 989.667 403.955 976.707C398.545 963.746 422.889 960.844 414.652 955.167C408.062 950.626 396.941 954.785 392.204 957.432C384.626 962.089 367.32 971.915 358.723 973.959C347.977 976.514 317.578 961.393 300.164 953.521C286.232 947.224 264.836 948.853 255.88 950.455L191.419 972.113C181.561 975.425 171.916 971.628 168.326 969.316C169.056 966.256 171.395 957.729 174.913 948.102C179.309 936.069 169.43 906.665 164.65 892.438C159.869 878.21 133.818 832.072 125.581 826.395C117.344 820.718 112.874 804.275 110.006 795.738C107.138 787.201 114.665 762.505 122.543 751.413C130.421 740.322 154.708 715.272 157.838 702.609C160.968 689.946 147.935 663.713 143.816 660.874C139.697 658.036 123.534 644.466 119.064 628.023C114.594 611.58 134.045 550.154 148.493 511.521Z" fill="#800000"/>
<path d="M1656.75 896.741L1683.89 873.9C1685.78 870.098 1689.25 867.243 1688.04 886.23C1686.52 909.964 1636.67 956.269 1626.26 969.265C1615.86 982.26 1587.29 1063.64 1596.46 1062.67C1605.63 1061.7 1598.72 1081.97 1596.53 1091.15C1594.34 1100.33 1527.13 1160.91 1495.85 1171.42C1464.57 1181.93 1465.52 1181.61 1474.71 1190.13C1482.06 1196.95 1480.54 1201.2 1478.85 1202.46L1419.13 1222.53L1405.9 1242.81C1382.42 1253.51 1333.5 1276.63 1325.68 1283.49C1315.89 1292.05 1276.08 1305.43 1265.01 1303.87C1253.94 1302.31 1243.8 1297.27 1231.14 1294.14C1221.02 1291.63 1213.24 1302.61 1210.62 1308.42L1222.65 1312.82C1214.24 1319.17 1194.62 1331.74 1183.48 1331.26C1169.57 1330.66 1171.72 1305.66 1170.42 1292.37C1169.12 1279.09 1160.89 1276.57 1148.9 1287.99C1136.91 1299.41 1094.57 1314.69 1067.38 1315.38C1045.62 1315.93 1000.07 1295.07 980.012 1284.56L931.57 1262.84C931.038 1261.26 930.542 1256.64 932.804 1250.81C935.631 1243.53 931.145 1220.76 922.884 1205.59C916.275 1193.45 896.502 1195.1 887.442 1197.44C889.57 1204.82 892.75 1220.15 888.455 1222.43C883.086 1225.29 876.164 1239.23 878.706 1243.66C881.247 1248.08 898.375 1267.66 901.57 1280.31C904.126 1290.43 896.587 1310.48 892.498 1319.25C878.99 1313.58 848.934 1300.74 836.775 1294.69C821.575 1287.13 777.259 1271.41 762.394 1271.12C750.502 1270.9 741.64 1276.34 738.695 1279.09C720.766 1275.96 679.657 1269.15 658.652 1266.92C632.395 1264.13 624.444 1246.75 619.353 1234.74C614.263 1222.72 607.905 1210.08 597.461 1207.26C587.018 1204.43 564.513 1184.55 559.422 1172.54C554.331 1160.52 542.588 1144.41 519.478 1135.29C496.368 1126.16 470.692 1103.12 458.631 1086.06C446.57 1069 453.697 1011.72 452.087 1000.65C450.477 989.577 438.783 992.45 427.718 994.056C416.654 995.663 409.364 989.667 403.955 976.707C398.545 963.746 422.889 960.845 414.652 955.167C408.062 950.626 396.941 954.785 392.204 957.432C384.626 962.089 367.32 971.915 358.723 973.959C347.977 976.514 317.578 961.393 300.164 953.521C286.232 947.224 264.836 948.853 255.88 950.455C238.501 956.294 201.278 968.8 191.419 972.113C181.561 975.425 171.916 971.628 168.326 969.316C169.056 966.256 171.395 957.729 174.913 948.102C179.309 936.069 169.43 906.665 164.65 892.438C159.869 878.21 133.818 832.072 125.581 826.395C117.344 820.718 112.874 804.275 110.006 795.738C107.138 787.201 114.665 762.505 122.543 751.413C130.421 740.322 154.708 715.272 157.838 702.609C160.968 689.946 147.935 663.713 143.816 660.874C139.697 658.036 123.534 644.466 119.064 628.023C114.594 611.58 134.045 550.154 148.493 511.521C160.052 480.614 163.684 433.229 164.055 413.4L224.526 439.529M1656.75 896.741L1666.78 860.648L1612.45 887.346C1592.55 894.035 1550.01 907.481 1539.14 907.758C1528.26 908.035 1519.85 910.015 1517.01 910.971L1518 929.636M1656.75 896.741C1644.34 906.893 1617.37 931.506 1608.82 948.737C1598.12 970.276 1571.67 1017.16 1577.41 1034.24C1583.15 1051.31 1579.08 1070.62 1568.67 1080.45C1558.26 1090.28 1521.35 1124.85 1507.77 1131.53C1496.9 1136.87 1476.06 1142.88 1467 1145.22C1471.34 1148.69 1477.28 1157.6 1466.42 1165.47C1452.85 1175.31 1429.45 1177.89 1418.08 1181.72C1408.98 1184.77 1402.94 1197.36 1401.06 1203.27C1378.43 1216.5 1329.37 1244.24 1314.2 1249.34C1295.25 1255.71 1261.12 1267.18 1247.19 1263.41C1236.05 1260.4 1225.05 1262.4 1220.95 1263.78C1227.07 1267.36 1236.66 1275.39 1226.04 1278.96C1212.77 1283.42 1201.41 1293.57 1188.43 1286.32C1178.04 1280.52 1172.66 1260.3 1171.26 1250.92C1166.62 1250.72 1153.87 1252.54 1139.98 1261.43C1122.61 1272.54 1085.95 1282.75 1053.36 1273.65C1027.28 1266.36 976.418 1239.33 954.247 1226.72C954.656 1221.66 954.135 1207.55 948.781 1191.61C942.089 1171.69 936.982 1153.35 917.704 1158.77C902.282 1163.11 892.951 1166.74 890.213 1168.01C889.65 1153.77 885.291 1123.22 872.367 1114.89C859.442 1106.57 875.802 1097.9 885.598 1094.61C882.106 1089.45 875.687 1077.68 877.949 1071.85C880.777 1064.57 920.656 1076.5 920.059 1090.42C919.581 1101.56 921.619 1123.33 922.697 1132.82C938.853 1143.22 974.773 1165.35 989.208 1170.64C1007.25 1177.24 1059.47 1191.37 1077.48 1185.31C1091.89 1180.47 1115.91 1166.77 1126.12 1160.53C1131.29 1163.36 1141.2 1171.51 1139.46 1181.38C1137.27 1193.73 1145.52 1202.57 1159.11 1199.06C1169.98 1196.25 1177.74 1189.63 1180.27 1186.67C1175.52 1187.21 1168.06 1185.49 1176.12 1174.34C1184.19 1163.18 1201.21 1171.54 1208.71 1177.12C1224.93 1174.13 1261.11 1165.42 1276.01 1154.5C1290.91 1143.58 1331.91 1124.11 1350.55 1115.74C1349.58 1108.67 1349.16 1094.03 1355.23 1092C1362.81 1089.45 1402.02 1086.83 1406.12 1080.18C1409.39 1074.85 1409.14 1068.25 1408.61 1065.62C1414.4 1062.97 1431.03 1053.86 1451.24 1038.63C1476.49 1019.59 1517.51 984.692 1516.21 971.406C1515.17 960.777 1510.25 950.536 1507.93 946.745L1518 929.636M1518 929.636C1491.95 923.26 1434.2 906.913 1411.65 892.535C1383.45 874.562 1289.96 797.249 1272.49 767.229C1255.02 737.209 1227.13 717.02 1203.95 679.419C1180.77 641.818 1179.54 657.008 1147.49 614.997C1115.44 572.986 1058.96 499.071 1044.96 466.829C1033.76 441.035 994.176 394.167 975.781 373.958C954.221 352.701 908.696 309.306 899.073 305.783C889.45 302.261 759.12 322.545 695.158 333.128C692.889 352.539 688.42 394.082 688.701 404.966C689.052 418.571 703.385 458.09 700.876 466.322C698.367 474.554 706.342 501.431 668.726 508.791C631.111 516.152 508.139 536.356 473.662 534.217C439.185 532.079 311.711 523.184 287.604 495.394C268.319 473.161 266.897 477.72 268.597 482.779M268.597 482.779L236.809 419.568L224.526 439.529M268.597 482.779C266.216 499.765 263.044 537.213 269.404 551.121C277.355 568.506 283.165 614.055 277.477 615.966C271.789 617.877 243.44 662.237 240.637 679.012C237.833 695.788 256.881 724.223 274.949 740.32C293.017 756.416 305.821 816.505 300.166 831.072C295.642 842.726 302.743 849.207 306.858 850.991C319.394 847.483 350.026 838.176 372.267 829.015C400.068 817.563 405.788 828.308 432.698 839.323C459.608 850.338 482.988 841.427 503.198 829.359C523.407 817.291 522.81 831.214 507.341 841.69C491.871 852.165 510.879 864.78 528.906 865.056C543.328 865.277 549.259 868.07 550.422 869.438C550.261 888.845 550.521 932.529 552.848 952.015C555.757 976.372 598.495 993.68 614.627 994.593C627.532 995.324 636.08 1015.53 638.741 1025.55C641.71 1032.29 652.522 1047.1 672.017 1052.37C696.386 1058.96 692.667 1088.71 699.343 1102.3C706.019 1115.89 763.247 1110.39 791.686 1100.83C820.124 1091.28 818.882 1100.14 849.576 1106.72C874.13 1111.98 860.264 1122.83 850.262 1127.6C844.991 1127.61 838.448 1133.26 854.445 1155.75C870.442 1178.24 857.83 1201.41 849.524 1210.18C834.227 1205.47 800.59 1193.9 788.423 1185.32C776.257 1176.74 756.36 1178.85 747.932 1180.98C743.404 1183.2 729.483 1188.87 710.014 1193.72C685.678 1199.78 646.739 1184.37 634.391 1179.01C624.513 1174.73 618.192 1151.73 616.266 1140.77C604.76 1134.78 580.792 1119.96 576.968 1108.58C572.188 1094.35 558.222 1074.77 543.35 1071.32C528.477 1067.87 478.743 1036.03 478.981 1005.33C479.218 974.642 475.321 934.784 472.175 941.119C469.028 947.454 444.341 939.914 433.881 930.762C423.421 921.609 452.162 906.675 445.2 904.791C438.237 902.908 427.189 910.843 418.036 918.14C408.883 925.438 379.138 918.543 354.124 906.891C329.11 895.239 302.886 905.105 282.979 911.794C263.072 918.482 239.373 926.445 231.136 920.767C222.899 915.09 230.769 900.835 229.11 870.78C227.452 840.725 202.071 809.14 187.795 791.769C173.519 774.399 171.542 743.395 180.351 725.657C189.161 707.919 214.715 683.499 215.304 666.412C215.893 649.325 200.358 634.488 183.549 615.857C166.74 597.226 188.453 555.096 193.757 526.925C198.001 504.387 216.038 459.27 224.526 439.529" stroke="black" stroke-width="4"/>
</svg>
