<svg width="243" height="79" viewBox="0 0 243 79" fill="none" xmlns="http://www.w3.org/2000/svg">
<path d="M7 21.5L8.74733 9.21783C8.94358 7.83837 10.0638 6.77561 11.4516 6.65217L41.2706 4M52 72.1371L10.8812 74.88C9.77421 74.9538 8.71686 74.4108 8.13209 73.468L4.03164 66.8571C3.6867 66.301 3.53306 65.6473 3.59414 64.9958L5 50" stroke="#800000" stroke-width="7" stroke-linecap="round"/>
<path d="M183 69.8574L229.212 70.9365C230.756 70.9725 232.074 69.8318 232.261 68.2996L234 54M210.184 4C215.977 5.88844 224.793 7.50783 229.721 7.71403C230.759 7.75748 231.744 8.24467 232.33 9.10322L238.351 17.9372C238.769 18.5499 238.945 19.2954 238.845 20.0302L237.222 32" stroke="#800000" stroke-width="7" stroke-linecap="round"/>
</svg>
