<svg width="427" height="306" viewBox="0 0 427 306" fill="none" xmlns="http://www.w3.org/2000/svg">
<path d="M7 248.5L8.74733 236.218C8.94358 234.838 10.0638 233.776 11.4516 233.652L41.2706 231M52 299.137L10.8812 301.88C9.77421 301.954 8.71686 301.411 8.13209 300.468L4.03164 293.857C3.6867 293.301 3.53306 292.647 3.59414 291.996L5 277" stroke="#800000" stroke-width="7" stroke-linecap="round"/>
<path d="M183 296.857L229.212 297.936C230.756 297.973 232.074 296.832 232.261 295.3L234 281M210.184 231C215.977 232.888 224.793 234.508 229.721 234.714C230.759 234.757 231.744 235.245 232.33 236.103L238.351 244.937C238.769 245.55 238.945 246.295 238.845 247.03L237.222 259" stroke="#800000" stroke-width="7" stroke-linecap="round"/>
<path d="M374.5 27.5L370.778 16.3332C370.326 14.9765 370.894 13.4893 372.135 12.7798L391 2" stroke="#800000" stroke-width="4" stroke-linecap="round"/>
<path d="M383 53L386.165 63.4001C386.381 64.1082 386.851 64.7117 387.484 65.0945L395.492 69.9312C396.557 70.5748 397.903 70.4946 398.901 69.7518C406.278 64.2656 420.159 55.3993 425 54.5" stroke="#800000" stroke-width="4" stroke-linecap="round"/>
</svg>
