<svg width="676" height="1269" viewBox="0 0 676 1269" fill="none" xmlns="http://www.w3.org/2000/svg">
<path d="M215.007 266.306C226.239 262.085 226.644 274.302 231.76 277.787L244.086 279.498C244.086 279.498 252.521 280.8 253.159 283.614C254.331 288.785 262.21 297.037 264.67 299.317C267.129 301.597 268.364 309.145 266.128 312.789C263.893 316.434 255.03 320.566 258.894 322.319C262.757 324.071 261.667 332.894 259.695 337.24C257.723 341.586 245.883 354.85 238.38 357.269C232.378 359.205 225.427 349.452 222.703 344.334C222.294 346.09 220.802 350.576 218.102 354.476C214.726 359.35 198.968 356.86 188.299 350.855C179.764 346.052 181.981 334.402 184.157 329.178C181.275 328.258 174.613 325.314 171.028 320.893C166.548 315.366 172.995 310.139 169.874 302.899C166.752 295.66 170.74 288.152 174.863 284.199C178.985 280.246 187.374 288.71 187.24 285.155C187.106 281.601 187.191 277.563 189.645 273.435C192.1 269.308 200.967 271.584 215.007 266.306Z" fill="#FED753" stroke="black"/>
<path d="M194.954 285.124C199.297 277.645 205.108 284.255 209.559 283.857L217.224 279.178C217.224 279.178 222.53 276.05 224.173 277.323C227.191 279.664 235.364 280.654 237.779 280.799C240.195 280.944 244.335 284.578 244.753 287.626C245.17 290.674 242.11 297.02 245.069 296.23C248.028 295.44 251.451 300.844 252.337 304.162C253.223 307.48 252.674 320.264 249.59 325.037C247.122 328.855 238.782 326.606 234.921 325.004C235.496 326.167 236.713 329.343 236.988 332.745C237.331 336.998 227.392 342.81 218.689 344.344C211.726 345.571 207.639 338.079 206.466 334.18C204.436 334.985 199.37 336.39 195.347 335.569C190.318 334.542 191.529 328.69 186.477 326.089C181.424 323.489 180.219 317.492 180.714 313.41C181.21 309.329 189.764 310.205 188.064 308.289C186.364 306.373 184.565 304.089 184.049 300.672C183.533 297.256 189.526 294.471 194.954 285.124Z" fill="#FED753" stroke="black"/>
<path d="M231.289 291.32C237.309 293.062 233.681 298.306 234.741 301.365L239.375 305.934C239.375 305.934 242.505 309.116 241.897 310.494C240.781 313.027 241.518 318.947 241.84 320.671C242.161 322.395 240.333 325.942 238.263 326.77C236.193 327.598 231.195 326.56 232.269 328.501C233.343 330.443 230.144 333.798 227.966 335.003C225.789 336.207 216.705 338.063 212.808 336.731C209.691 335.666 209.81 329.408 210.259 326.412C209.542 327.02 207.523 328.434 205.179 329.223C202.249 330.21 196.42 324.242 193.815 318.392C191.731 313.711 196.282 309.524 198.818 308.016C197.896 306.73 196.019 303.414 195.891 300.441C195.732 296.726 200.059 296.551 201.001 292.543C201.943 288.534 205.948 286.636 208.905 286.268C211.861 285.901 212.745 292.068 213.794 290.537C214.843 289.006 216.134 287.341 218.445 286.379C220.757 285.417 223.765 289.142 231.289 291.32Z" fill="#FED753" stroke="black"/>
<path d="M230.632 316.192C229.946 320.1 226.397 318.174 224.544 319.049L221.984 322.278C221.984 322.278 220.194 324.465 219.286 324.176C217.615 323.646 213.94 324.513 212.876 324.833C211.813 325.153 209.455 324.244 208.793 322.997C208.131 321.751 208.444 318.534 207.295 319.343C206.146 320.151 203.816 318.366 202.91 317.077C202.003 315.789 200.216 310.197 200.788 307.654C201.247 305.619 205.194 305.268 207.11 305.346C206.679 304.936 205.651 303.761 204.995 302.34C204.174 300.563 207.533 296.487 211.038 294.449C213.842 292.818 216.788 295.397 217.91 296.891C218.657 296.223 220.616 294.816 222.478 294.533C224.806 294.179 225.211 296.891 227.798 297.211C230.386 297.53 231.854 299.922 232.287 301.758C232.719 303.594 228.897 304.571 229.933 305.127C230.968 305.682 232.104 306.381 232.867 307.771C233.63 309.16 231.49 311.308 230.632 316.192Z" fill="#FED753" stroke="black"/>
<path d="M57.5069 102.302C61.4873 103.613 66.318 101.783 68.2358 100.704L72.4533 92.9273L72.6781 82.1905L68.0225 70.1312L56.4546 68.3604L47.9905 74.629L45.7153 78.8245L44.6609 80.7688C44.3317 81.3758 43.701 83.4037 43.0735 85.4697C42.6431 86.8864 42.2143 88.3211 41.8853 89.3277C41.8116 89.5531 41.7382 89.7789 41.6656 90.0031C41.1005 91.7485 40.5846 93.4019 40.3785 94.0724L38.4917 97.5516L40.8055 97.2173C41.3269 97.1419 43.2105 97.5083 45.2018 97.9581C46.7451 98.3067 48.3531 98.7054 49.4416 98.9874C50.2895 99.4471 52.5096 100.508 55.4887 101.6C56.1284 101.834 56.8032 102.07 57.5069 102.302Z" fill="#164014"/>
<path d="M49.4416 98.9874C50.2895 99.4471 52.5096 100.508 55.4887 101.6M49.4416 98.9874C49.9596 98.0323 51.0842 95.9584 51.4394 95.3035C51.8833 94.4849 52.2483 92.8288 52.6132 91.1728C52.9052 89.848 52.9038 88.0639 52.8666 87.3375M49.4416 98.9874C48.3531 98.7054 46.7451 98.3067 45.2018 97.9581M38.4917 97.5516C38.8773 97.4959 39.88 97.351 40.8055 97.2173C41.3269 97.1419 43.2105 97.5083 45.2018 97.9581M38.4917 97.5516L40.3785 94.0724C40.5846 93.4019 41.1005 91.7485 41.6656 90.0031M38.4917 97.5516C40.8015 95.8741 43.9259 93.6262 47.1131 91.3683M62.2192 81.8155L60.9513 82.1874C60.6272 82.2513 59.6528 82.8166 58.2591 83.711M58.2591 83.711C58.3159 85.5724 58.3281 89.8755 57.9217 92.1977C57.4138 95.1004 56.7629 99.2498 56.319 100.068C55.9638 100.723 55.6175 101.362 55.4887 101.6M58.2591 83.711C56.8227 84.633 54.9408 85.9047 52.8666 87.3375M58.2591 83.711C56.9501 82.848 53.9639 81.0143 52.4916 80.5833C50.6513 80.0447 48.5915 78.9276 47.5456 78.8901C46.7089 78.8601 45.9767 78.8339 45.7153 78.8245M55.4887 101.6C56.1284 101.834 56.8032 102.07 57.5069 102.302C61.4873 103.613 66.318 101.783 68.2358 100.704L72.4533 92.9273L72.6781 82.1905L68.0225 70.1312L56.4546 68.3604L47.9905 74.629C47.4249 75.672 46.4719 77.4294 45.7153 78.8245M52.8666 87.3375C51.0403 88.5991 49.065 89.9855 47.1131 91.3683M52.8666 87.3375C52.3495 86.7922 51.0015 85.6905 49.7464 85.6455C48.1776 85.5892 46.8307 85.1236 45.4679 85.1791C44.3776 85.2235 43.4173 85.3913 43.0735 85.4697M47.1131 91.3683C47.0835 92.2808 46.9437 94.3527 46.6219 95.3394C46.3 96.3262 45.541 97.4963 45.2018 97.9581M47.1131 91.3683C46.897 90.9862 46.1099 90.1886 44.69 90.0542C43.2701 89.9198 42.0821 89.9642 41.6656 90.0031M45.7153 78.8245C45.2347 79.7107 44.8333 80.4508 44.6609 80.7688C44.3317 81.3758 43.701 83.4037 43.0735 85.4697M43.0735 85.4697C42.6431 86.8864 42.2143 88.3211 41.8853 89.3277C41.8116 89.5531 41.7382 89.7789 41.6656 90.0031" stroke="black"/>
<path d="M95.0072 20.3071C106.239 16.0854 106.644 28.3027 111.76 31.7879L124.086 33.4984C124.086 33.4984 132.521 34.8006 133.159 37.6142C134.331 42.7861 142.21 51.0372 144.67 53.3175C147.129 55.5979 148.364 63.1457 146.128 66.7901C143.893 70.4345 135.03 74.5667 138.894 76.3193C142.757 78.0719 141.667 86.8943 139.695 91.2407C137.723 95.5871 125.883 108.85 118.38 111.27C112.378 113.205 105.427 103.453 102.703 98.3346C102.294 100.09 100.802 104.577 98.1019 108.476C94.7262 113.35 78.9685 110.861 68.2991 104.856C59.7636 100.052 61.9814 88.4026 64.1573 83.1783C61.2746 82.2588 54.6131 79.3146 51.0284 74.8933C46.5477 69.3668 52.9953 64.1392 49.8738 56.9C46.7523 49.6608 50.7404 42.153 54.863 38.1999C58.9855 34.2469 67.3745 42.711 67.2401 39.1561C67.1058 35.6013 67.1905 31.5635 69.6452 27.4361C72.0998 23.3088 80.9669 25.5843 95.0072 20.3071Z" fill="#FED753" stroke="black"/>
<path d="M74.9543 39.1243C79.2973 31.6461 85.1085 38.2557 89.5586 37.8574L97.2243 33.1788C97.2243 33.1788 102.53 30.0502 104.173 31.3238C107.191 33.6649 115.364 34.655 117.779 34.7998C120.195 34.9447 124.335 38.5785 124.753 41.6264C125.17 44.6743 122.11 51.0203 125.069 50.2303C128.028 49.4404 131.451 54.8451 132.337 58.1629C133.223 61.4807 132.674 74.2648 129.59 79.0374C127.122 82.8555 118.782 80.6062 114.921 79.0043C115.496 80.1673 116.713 83.3438 116.988 86.7459C117.331 90.9985 107.392 96.8111 98.6887 98.3448C91.726 99.5718 87.6391 92.0799 86.4661 88.1806C84.4359 88.9859 79.3697 90.3911 75.3467 89.5694C70.318 88.5424 71.5291 82.6902 66.4765 80.0899C61.424 77.4896 60.2191 71.4925 60.7144 67.411C61.2096 63.3296 69.7638 64.2053 68.0638 62.2896C66.3637 60.3739 64.5652 58.0896 64.0493 54.6731C63.5334 51.2565 69.5256 48.472 74.9543 39.1243Z" fill="#FED753" stroke="black"/>
<path d="M111.289 45.3202C117.309 47.0622 113.681 52.3069 114.741 55.3659L119.375 59.935C119.375 59.935 122.505 63.1169 121.897 64.4949C120.781 67.0279 121.518 72.9471 121.84 74.6711C122.161 76.3951 120.333 79.9429 118.263 80.7709C116.193 81.5989 111.195 80.5601 112.269 82.5018C113.343 84.4436 110.144 87.7986 107.966 89.0032C105.789 90.2077 96.7046 92.0634 92.8083 90.7319C89.6912 89.6667 89.8102 83.4088 90.2593 80.4129C89.5424 81.0209 87.5226 82.4341 85.1788 83.2236C82.249 84.2104 76.4195 78.2423 73.815 72.3921C71.7314 67.7119 76.282 63.5248 78.8178 62.0162C77.8957 60.7301 76.0193 57.4146 75.8915 54.442C75.7317 50.7264 80.0586 50.5516 81.0009 46.5433C81.9431 42.535 85.9482 40.6363 88.9046 40.2687C91.861 39.9012 92.7454 46.069 93.7941 44.5378C94.8429 43.0066 96.1335 41.3416 98.4451 40.3797C100.757 39.4179 103.765 43.1426 111.289 45.3202Z" fill="#FED753" stroke="black"/>
<path d="M110.632 70.1929C109.946 74.1005 106.397 72.1742 104.544 73.0501L101.984 76.2781C101.984 76.2781 100.194 78.4652 99.2856 78.1767C97.6151 77.6465 93.9395 78.5138 92.8763 78.8338C91.813 79.1538 89.4552 78.2444 88.793 76.9981C88.1308 75.7517 88.4441 72.5347 87.2951 73.3432C86.146 74.1517 83.8162 72.3664 82.9096 71.078C82.003 69.7895 80.2159 64.1978 80.7885 61.6545C81.2466 59.6199 85.1937 59.2683 87.1101 59.3468C86.6785 58.937 85.6513 57.762 84.9947 56.3405C84.1739 54.5636 87.5333 50.4875 91.0382 48.4494C93.8422 46.819 96.7879 49.3981 97.9102 50.8914C98.657 50.2233 100.616 48.8163 102.478 48.5333C104.806 48.1795 105.211 50.8912 107.798 51.2112C110.386 51.5311 111.854 53.9227 112.287 55.7586C112.719 57.5944 108.897 58.5714 109.933 59.1272C110.968 59.683 112.104 60.3819 112.867 61.7714C113.63 63.1609 111.49 65.3085 110.632 70.1929Z" fill="#FED753" stroke="black"/>
<path d="M27.5893 530.378C27.576 518.379 39.1591 522.285 44.2172 518.717L50.143 507.774C50.143 507.774 54.3214 500.332 57.1799 500.722C62.4343 501.439 72.9249 496.955 75.9231 495.451C78.9213 493.948 86.4226 495.44 89.0512 498.812C91.6798 502.183 92.4406 511.932 95.4371 508.929C98.4336 505.926 106.313 510.042 109.691 513.413C113.07 516.784 121.337 532.524 120.971 540.399C120.678 546.699 109.107 549.787 103.358 550.543C104.859 551.541 108.537 554.512 111.241 558.409C114.622 563.28 106.762 577.163 97.3966 585.048C89.904 591.356 79.7726 585.192 75.6435 581.322C73.7713 583.699 68.6773 588.905 63.2796 590.711C56.5324 592.968 53.8988 585.096 46.0247 585.48C38.1505 585.864 32.5187 579.495 30.263 574.248C28.0072 569.001 38.8763 564.114 35.5002 562.993C32.1241 561.872 28.3726 560.376 25.3686 556.629C22.3646 552.883 27.606 545.377 27.5893 530.378Z" fill="#FED753" stroke="black"/>
<path d="M38.1764 555.758C32.6969 549.067 40.925 545.944 42.1131 541.637L40.4209 532.817C40.4209 532.817 39.3524 526.751 41.1211 525.66C44.3724 523.654 48.1662 516.348 49.1494 514.137C50.1325 511.925 54.9876 509.323 57.9883 510.001C60.989 510.68 65.8581 515.772 66.1563 512.724C66.4545 509.676 72.7168 508.365 76.1345 508.7C79.5522 509.034 91.3313 514.033 94.7187 518.595C97.4287 522.245 92.3968 529.266 89.5421 532.32C90.8328 532.19 94.2346 532.164 97.5167 533.1C101.619 534.271 103.576 545.617 101.96 554.305C100.666 561.256 92.2167 562.455 88.1536 562.186C88.1956 564.369 87.7343 569.607 85.5537 573.086C82.8279 577.435 77.7724 574.248 73.565 578.067C69.3575 581.886 63.3188 580.911 59.6705 579.015C56.0221 577.12 59.8429 569.416 57.4526 570.336C55.0623 571.256 52.2923 572.139 48.9118 571.424C45.5314 570.709 45.0258 564.12 38.1764 555.758Z" fill="#FED753" stroke="black"/>
<path d="M56.7245 523.905C60.4674 518.879 64.1062 524.116 67.3427 524.196L73.2469 521.46C73.2469 521.46 77.3247 519.645 78.402 520.697C80.3824 522.631 86.1839 524.018 87.9112 524.321C89.6386 524.624 92.3194 527.582 92.3688 529.81C92.4181 532.039 89.6919 536.355 91.8871 536.03C94.0823 535.706 96.1018 539.879 96.4661 542.34C96.8303 544.802 95.3814 553.96 92.7677 557.141C90.6767 559.687 84.8581 557.38 82.2102 555.909C82.5281 556.793 83.143 559.181 83.0601 561.652C82.9565 564.742 75.3227 568.108 68.9306 568.494C63.8169 568.804 61.4922 563.074 60.969 560.17C59.4411 560.582 55.6781 561.176 52.8496 560.253C49.314 559.099 50.6682 554.986 47.2451 552.698C43.822 550.409 43.4489 545.993 44.1418 543.095C44.8347 540.198 50.9208 541.533 49.8548 540.014C48.7888 538.495 47.6823 536.702 47.5924 534.2C47.5026 531.698 52.046 530.187 56.7245 523.905Z" fill="#FED753" stroke="black"/>
<path d="M79.7863 533.245C83.2047 535.259 80.1561 537.906 80.3263 539.949L82.451 543.479C82.451 543.479 83.8714 545.922 83.2825 546.672C82.2 548.05 81.7227 551.796 81.6495 552.904C81.5762 554.012 79.8975 555.901 78.498 556.084C77.0986 556.267 74.1959 554.845 74.5499 556.205C74.904 557.564 72.4149 559.12 70.8903 559.517C69.3657 559.914 63.5024 559.626 61.3216 558.197C59.5769 557.055 60.6323 553.235 61.3781 551.468C60.8429 551.728 59.3822 552.278 57.8207 552.394C55.8688 552.54 53.2302 547.964 52.5511 543.967C52.0078 540.769 55.4564 538.915 57.2486 538.388C56.8848 537.454 56.2545 535.126 56.6427 533.283C57.1281 530.979 59.8094 531.551 61.0166 529.24C62.2238 526.93 64.9784 526.394 66.8494 526.633C68.7205 526.871 68.2946 530.793 69.1783 530.019C70.0619 529.244 71.1149 528.426 72.6838 528.199C74.2526 527.972 75.5132 530.728 79.7863 533.245Z" fill="#FED753" stroke="black"/>
<path d="M151.063 862.11C144.015 852.398 155.689 848.77 157.693 842.913L156.076 830.574C156.076 830.574 155.096 822.096 157.64 820.735C162.316 818.234 168.184 808.45 169.731 805.474C171.278 802.499 178.229 799.308 182.335 800.497C186.442 801.687 192.775 809.137 193.441 804.948C194.107 800.758 202.903 799.471 207.616 800.22C212.33 800.97 228.257 808.871 232.578 815.464C236.035 820.739 228.474 830.026 224.261 834.01C226.062 833.938 230.783 834.187 235.259 835.758C240.854 837.721 242.629 853.575 239.667 865.455C237.297 874.958 225.476 875.907 219.862 875.194C219.74 878.217 218.666 885.421 215.353 890.049C211.212 895.834 204.462 891.002 198.309 895.931C192.156 900.859 183.86 899.004 178.955 896.076C174.051 893.149 179.989 882.817 176.597 883.888C173.205 884.96 169.289 885.948 164.659 884.675C160.029 883.402 159.873 874.249 151.063 862.11Z" fill="#FED753" stroke="black"/>
<path d="M174.522 876.458C166.16 874.253 170.993 866.897 169.43 862.712L162.887 856.56C162.887 856.56 158.464 852.273 159.257 850.352C160.714 846.821 159.503 838.679 159.002 836.311C158.501 833.943 160.908 828.988 163.736 827.777C166.565 826.567 173.495 827.836 171.949 825.193C170.403 822.549 174.707 817.815 177.671 816.082C180.636 814.348 193.108 811.489 198.528 813.198C202.863 814.566 202.905 823.203 202.383 827.351C203.353 826.489 206.093 824.473 209.3 823.307C213.31 821.849 221.549 829.892 225.334 837.877C228.363 844.266 222.222 850.192 218.773 852.357C220.088 854.101 222.785 858.613 223.059 862.71C223.402 867.831 217.438 868.215 216.269 873.776C215.101 879.337 209.638 882.088 205.571 882.692C201.504 883.296 200.082 874.816 198.685 876.963C197.288 879.11 195.562 881.449 192.405 882.852C189.247 884.255 184.974 879.215 174.522 876.458Z" fill="#FED753" stroke="black"/>
<path d="M170.866 839.78C170.951 833.515 176.969 835.623 179.638 833.79L182.816 828.111C182.816 828.111 185.054 824.249 186.544 824.47C189.282 824.875 194.794 822.596 196.372 821.829C197.949 821.061 201.854 821.885 203.201 823.661C204.548 825.437 204.871 830.532 206.459 828.981C208.046 827.431 212.129 829.627 213.868 831.407C215.606 833.187 219.803 841.455 219.552 845.565C219.351 848.853 213.286 850.397 210.278 850.758C211.054 851.288 212.952 852.861 214.334 854.912C216.062 857.475 211.853 864.678 206.902 868.74C202.941 871.989 197.698 868.711 195.571 866.666C194.576 867.896 191.876 870.584 189.044 871.495C185.503 872.634 184.188 868.508 180.073 868.662C175.958 868.815 173.066 865.457 171.928 862.703C170.79 859.95 176.503 857.463 174.749 856.857C172.994 856.252 171.047 855.449 169.507 853.475C167.967 851.501 170.761 847.613 170.866 839.78Z" fill="#FED753" stroke="black"/>
<path d="M195.024 833.822C198.973 833.448 198.057 837.38 199.392 838.935L203.183 840.548C203.183 840.548 205.767 841.694 205.729 842.647C205.661 844.398 207.471 847.712 208.062 848.653C208.652 849.593 208.4 852.108 207.374 853.077C206.347 854.045 203.162 854.596 204.246 855.49C205.331 856.383 204.227 859.103 203.225 860.319C202.222 861.534 197.304 864.739 194.7 864.861C192.617 864.959 191.232 861.246 190.8 859.377C190.519 859.902 189.658 861.204 188.461 862.214C186.966 863.476 182.145 861.317 179.251 858.478C176.936 856.206 178.642 852.682 179.784 851.204C178.942 850.662 177.066 849.145 176.3 847.425C175.342 845.274 177.849 844.165 177.472 841.585C177.095 839.006 179.012 836.956 180.667 836.052C182.323 835.148 184.278 838.575 184.539 837.429C184.801 836.284 185.174 835.003 186.311 833.899C187.449 832.795 190.087 834.289 195.024 833.822Z" fill="#FED753" stroke="black"/>
<path d="M333.995 1027.46C342.076 1018.59 347.997 1029.29 354.138 1030.06L365.892 1025.97C365.892 1025.97 373.996 1023.29 375.844 1025.51C379.241 1029.58 390.012 1033.34 393.24 1034.25C396.468 1035.16 401.002 1041.32 400.67 1045.59C400.339 1049.85 394.328 1057.56 398.566 1057.36C402.804 1057.17 405.848 1065.52 406.07 1070.28C406.293 1075.05 401.787 1092.25 396.207 1097.82C391.743 1102.28 381.116 1096.75 376.36 1093.44C376.795 1095.19 377.509 1099.86 376.879 1104.56C376.091 1110.44 360.927 1115.39 348.694 1114.9C338.907 1114.51 335.58 1103.13 335.14 1097.48C332.155 1097.98 324.883 1098.39 319.679 1096.08C313.174 1093.2 316.536 1085.61 310.462 1080.59C304.388 1075.56 304.522 1067.06 306.393 1061.66C308.265 1056.27 319.587 1059.99 317.85 1056.88C316.112 1053.78 314.35 1050.14 314.657 1045.35C314.964 1040.56 323.895 1038.55 333.995 1027.46Z" fill="#FED753" stroke="black"/>
<path d="M324.704 1053.34C325.167 1044.71 333.35 1047.95 337.131 1045.57L341.828 1037.91C341.828 1037.91 345.129 1032.71 347.171 1033.1C350.924 1033.81 358.651 1030.97 360.868 1030C363.086 1029.03 368.426 1030.38 370.185 1032.91C371.944 1035.43 372.107 1042.47 374.382 1040.42C376.657 1038.37 382.165 1041.63 384.464 1044.18C386.763 1046.73 392.092 1058.36 391.518 1064.02C391.059 1068.54 382.609 1070.33 378.442 1070.66C379.483 1071.44 382.013 1073.71 383.805 1076.62C386.046 1080.25 379.842 1089.95 372.79 1095.27C367.149 1099.53 360.1 1094.72 357.281 1091.79C355.84 1093.43 351.968 1096.98 348.012 1098.08C343.067 1099.46 341.482 1093.7 335.799 1093.68C330.117 1093.66 326.315 1088.87 324.898 1085.01C323.482 1081.15 331.497 1078.04 329.111 1077.11C326.726 1076.17 324.085 1074.96 322.07 1072.15C320.056 1069.34 324.124 1064.14 324.704 1053.34Z" fill="#FED753" stroke="black"/>
<path d="M359.878 1042.32C366.03 1041.14 365.187 1047.46 367.523 1049.7L373.729 1051.66C373.729 1051.66 377.964 1053.07 378.05 1054.57C378.209 1057.33 381.559 1062.27 382.63 1063.66C383.701 1065.05 383.688 1069.04 382.221 1070.72C380.755 1072.4 375.832 1073.75 377.672 1074.99C379.512 1076.23 378.191 1080.67 376.8 1082.73C375.409 1084.8 368.165 1090.58 364.09 1091.17C360.829 1091.64 358.087 1086.01 357.123 1083.14C356.762 1084.01 355.606 1086.19 353.879 1087.96C351.719 1090.17 343.812 1087.51 338.83 1083.48C334.845 1080.27 336.991 1074.47 338.563 1071.97C337.156 1071.24 333.977 1069.15 332.51 1066.56C330.677 1063.32 334.45 1061.2 333.465 1057.2C332.479 1053.2 335.181 1049.69 337.647 1048.01C340.112 1046.34 343.706 1051.43 343.943 1049.59C344.18 1047.75 344.572 1045.68 346.192 1043.77C347.813 1041.86 352.187 1043.81 359.878 1042.32Z" fill="#FED753" stroke="black"/>
<path d="M370.613 1064.77C371.78 1068.56 367.744 1068.46 366.492 1070.09L365.682 1074.12C365.682 1074.12 365.084 1076.89 364.143 1077.04C362.414 1077.33 359.536 1079.78 358.735 1080.55C357.934 1081.31 355.421 1081.58 354.264 1080.77C353.107 1079.96 351.922 1076.95 351.267 1078.2C350.611 1079.44 347.724 1078.91 346.331 1078.18C344.937 1077.44 340.801 1073.28 340.153 1070.75C339.635 1068.73 342.99 1066.62 344.732 1065.82C344.161 1065.65 342.712 1065.07 341.48 1064.1C339.94 1062.9 341.077 1057.74 343.27 1054.33C345.025 1051.6 348.821 1052.55 350.5 1053.37C350.861 1052.44 351.965 1050.29 353.495 1049.19C355.407 1047.82 357.001 1050.05 359.451 1049.16C361.9 1048.27 364.296 1049.73 365.516 1051.16C366.737 1052.6 363.779 1055.21 364.954 1055.24C366.128 1055.26 367.458 1055.36 368.77 1056.25C370.082 1057.14 369.154 1060.03 370.613 1064.77Z" fill="#FED753" stroke="black"/>
<path d="M646.48 1218.82C644.939 1230.72 633.96 1225.34 628.482 1228.23L621.189 1238.31C621.189 1238.31 616.082 1245.15 613.298 1244.39C608.181 1243 597.198 1246.09 594.03 1247.19C590.863 1248.29 583.618 1245.84 581.448 1242.16C579.278 1238.47 579.786 1228.71 576.426 1231.3C573.066 1233.89 565.786 1228.79 562.872 1225.01C559.959 1221.23 553.799 1204.55 555.182 1196.79C556.289 1190.58 568.162 1189.02 573.961 1189.01C572.601 1187.83 569.339 1184.4 567.162 1180.19C564.441 1174.92 574.032 1162.17 584.34 1155.57C592.586 1150.28 601.834 1157.71 605.427 1162.08C607.592 1159.96 613.317 1155.46 618.903 1154.37C625.886 1153.01 627.478 1161.15 635.335 1161.79C643.193 1162.43 647.953 1169.47 649.51 1174.97C651.067 1180.47 639.657 1183.9 642.859 1185.45C646.062 1187 649.588 1188.97 652.081 1193.07C654.575 1197.18 648.406 1203.94 646.48 1218.82Z" fill="#FED753" stroke="black"/>
<path d="M639.268 1192.28C643.835 1199.62 635.272 1201.65 633.536 1205.77L634.072 1214.74C634.072 1214.74 634.346 1220.89 632.451 1221.74C628.967 1223.31 624.259 1230.06 622.998 1232.13C621.737 1234.19 616.586 1236.15 613.698 1235.09C610.81 1234.02 606.642 1228.34 605.951 1231.33C605.261 1234.31 598.882 1234.8 595.536 1234.03C592.19 1233.25 581.158 1226.77 578.39 1221.81C576.175 1217.84 582.074 1211.53 585.3 1208.87C584.003 1208.83 580.627 1208.42 577.494 1207.06C573.577 1205.37 573.106 1193.87 575.834 1185.46C578.017 1178.74 586.55 1178.64 590.544 1179.43C590.786 1177.26 591.921 1172.13 594.534 1168.96C597.8 1165 602.4 1168.82 607.067 1165.58C611.733 1162.33 617.595 1164.08 620.967 1166.43C624.339 1168.79 619.553 1175.93 622.042 1175.33C624.532 1174.72 627.393 1174.21 630.652 1175.36C633.911 1176.5 633.56 1183.1 639.268 1192.28Z" fill="#FED753" stroke="black"/>
<path d="M616.752 1221.46C612.389 1225.96 609.459 1220.3 606.261 1219.8L600.052 1221.75C600.052 1221.75 595.773 1223.02 594.841 1221.84C593.128 1219.66 587.555 1217.54 585.881 1217.01C584.208 1216.49 581.932 1213.21 582.172 1210.99C582.412 1208.77 585.674 1204.85 583.455 1204.89C581.236 1204.92 579.774 1200.52 579.732 1198.04C579.689 1195.55 582.312 1186.65 585.316 1183.84C587.719 1181.59 593.19 1184.63 595.625 1186.43C595.424 1185.51 595.124 1183.06 595.526 1180.62C596.029 1177.57 604.034 1175.22 610.422 1175.67C615.533 1176.02 617.096 1182.01 617.239 1184.95C618.807 1184.74 622.616 1184.64 625.301 1185.92C628.657 1187.52 626.782 1191.43 629.88 1194.14C632.978 1196.85 632.776 1201.28 631.713 1204.06C630.651 1206.85 624.789 1204.73 625.649 1206.38C626.51 1208.02 627.375 1209.94 627.14 1212.44C626.905 1214.93 622.204 1215.84 616.752 1221.46Z" fill="#FED753" stroke="black"/>
<path d="M595.094 1209.21C591.965 1206.78 595.331 1204.54 595.426 1202.5L593.777 1198.72C593.777 1198.72 592.685 1196.12 593.366 1195.45C594.617 1194.22 595.576 1190.57 595.792 1189.48C596.008 1188.39 597.917 1186.74 599.329 1186.73C600.74 1186.73 603.434 1188.52 603.259 1187.13C603.084 1185.73 605.754 1184.51 607.317 1184.32C608.88 1184.12 614.657 1185.16 616.634 1186.86C618.216 1188.22 616.675 1191.87 615.707 1193.53C616.271 1193.34 617.791 1192.98 619.354 1193.07C621.308 1193.18 623.332 1198.06 623.488 1202.11C623.613 1205.35 619.953 1206.74 618.108 1207.03C618.347 1208.01 618.671 1210.4 618.047 1212.17C617.268 1214.4 614.683 1213.48 613.187 1215.62C611.69 1217.75 608.89 1217.93 607.065 1217.45C605.241 1216.97 606.171 1213.13 605.195 1213.79C604.218 1214.44 603.068 1215.12 601.483 1215.14C599.898 1215.16 599.005 1212.26 595.094 1209.21Z" fill="#FED753" stroke="black"/>
<path d="M406 1115.33C423.528 1125.37 442.284 1132.82 460.182 1142.11C471.346 1147.9 482.232 1154.25 493.512 1159.82C509.048 1167.48 524.87 1173.21 541.203 1178.7" stroke="#FED753" stroke-width="3" stroke-linecap="round" stroke-dasharray="6 6"/>
<path d="M217.913 909C229.911 925.251 244.075 939.626 256.714 955.338C264.597 965.139 272 975.34 280.083 984.977C291.215 998.251 303.387 1009.87 316.124 1021.47" stroke="#FED753" stroke-width="3" stroke-linecap="round" stroke-dasharray="6 6"/>
<path d="M97.1919 634C103.599 656.294 112.939 676.981 120.207 698.819C124.741 712.441 128.63 726.401 133.43 739.885C140.041 758.457 148.34 775.372 157.225 792.43" stroke="#FED753" stroke-width="3" stroke-linecap="round" stroke-dasharray="6 6"/>
<path d="M169.192 364C158.165 379.374 149.422 396.155 139.056 411.951C132.59 421.803 125.632 431.339 119.368 441.323C110.741 455.074 103.882 469.286 97.1919 484" stroke="#FED753" stroke-width="3" stroke-linecap="round" stroke-dasharray="6 6"/>
<path d="M135.306 122C141.513 139.49 150.029 155.651 156.916 172.764C161.211 183.438 164.998 194.393 169.503 204.953C175.709 219.497 183.209 232.699 191.192 246" stroke="#FED753" stroke-width="3" stroke-linecap="round" stroke-dasharray="6 6"/>
</svg>
