<svg width="320" height="360" viewBox="0 0 320 360" fill="none" xmlns="http://www.w3.org/2000/svg">
<path d="M205.566 328.437C199.512 324.272 196.95 315.551 196.426 311.711L202.832 297.477L217.611 285.659L239.412 279.254L254.152 293.546L254.357 312.107L250.901 319.786L249.3 323.345C248.8 324.456 246.632 327.511 244.408 330.603C242.883 332.723 241.331 334.86 240.272 336.399C240.035 336.743 239.797 337.088 239.56 337.43C237.718 340.091 235.952 342.584 235.233 343.591L232.367 349.959L230.382 346.363C229.935 345.552 227.425 343.309 224.685 341.004C222.562 339.218 220.299 337.395 218.751 336.173C217.209 335.479 213.373 333.508 208.687 330.509C207.681 329.865 206.636 329.174 205.566 328.437Z" fill="#164014"/>
<path d="M218.751 336.173C217.209 335.479 213.373 333.508 208.687 330.509M218.751 336.173C219.538 334.425 221.246 330.629 221.786 329.431C222.46 327.932 224.389 325.647 226.318 323.362C227.862 321.534 230.359 319.625 231.414 318.899M218.751 336.173C220.299 337.395 222.562 339.218 224.685 341.004M232.367 349.959C232.036 349.36 231.176 347.801 230.382 346.363C229.935 345.552 227.425 343.309 224.685 341.004M232.367 349.959L235.233 343.591C235.952 342.584 237.718 340.091 239.56 337.43M232.367 349.959C232.265 344.929 232.096 338.148 231.876 331.269M229.223 299.894L230.047 302.067C230.301 302.589 230.543 304.558 230.769 307.467M230.769 307.467C228.106 309.381 222.075 313.975 219.258 317.031C215.736 320.852 210.623 326.209 209.948 327.707C209.409 328.906 208.883 330.075 208.687 330.509M230.769 307.467C231.003 310.465 231.219 314.461 231.414 318.899M230.769 307.467C233.364 308.374 239.095 310.588 241.258 312.187C243.962 314.185 247.708 315.871 248.869 317.295C249.798 318.434 250.611 319.43 250.901 319.786M208.687 330.509C207.681 329.865 206.636 329.174 205.566 328.437C199.512 324.272 196.95 315.551 196.426 311.711L202.832 297.477L217.611 285.659L239.412 279.254L254.152 293.546L254.357 312.107C253.498 314.016 252.051 317.232 250.901 319.786M231.414 318.899C231.586 322.806 231.74 327.056 231.876 331.269M231.414 318.899C232.725 319.038 235.695 319.744 237.088 321.452C238.83 323.588 240.909 324.974 242.276 326.94C243.37 328.514 244.153 330.037 244.408 330.603M231.876 331.269C230.631 332.288 227.881 334.703 226.842 336.211C225.803 337.719 224.971 340.035 224.685 341.004M231.876 331.269C232.639 331.162 234.589 331.409 236.282 333.252C237.975 335.095 239.173 336.805 239.56 337.43M250.901 319.786C250.171 321.408 249.562 322.762 249.3 323.345C248.8 324.456 246.632 327.511 244.408 330.603M244.408 330.603C242.883 332.723 241.331 334.86 240.272 336.399C240.035 336.743 239.797 337.088 239.56 337.43" stroke="black"/>
<path d="M157.995 305.547C164.168 307.56 171.643 304.703 174.609 303.023L181.107 290.955L181.406 274.32L174.138 255.66L156.208 252.969L143.125 262.72L139.619 269.23L137.995 272.247C137.488 273.189 136.52 276.334 135.557 279.537C134.897 281.734 134.239 283.959 133.734 285.52C133.621 285.869 133.508 286.219 133.397 286.567C132.53 289.273 131.738 291.837 131.422 292.877L128.515 298.276L132.098 297.747C132.905 297.628 135.825 298.187 138.912 298.874C141.305 299.407 143.798 300.018 145.485 300.449C146.801 301.158 150.245 302.79 154.865 304.468C155.858 304.829 156.904 305.191 157.995 305.547Z" fill="#164014"/>
<path d="M145.485 300.449C146.801 301.158 150.245 302.79 154.865 304.468M145.485 300.449C146.283 298.967 148.016 295.749 148.563 294.733C149.247 293.463 149.805 290.896 150.363 288.328C150.809 286.275 150.798 283.511 150.737 282.386M145.485 300.449C143.798 300.018 141.305 299.407 138.912 298.874M128.515 298.276C129.112 298.188 130.665 297.959 132.098 297.747C132.905 297.628 135.825 298.187 138.912 298.874M128.515 298.276L131.422 292.877C131.738 291.837 132.53 289.273 133.397 286.567M128.515 298.276C132.086 295.666 136.916 292.169 141.843 288.657M165.201 273.788L163.239 274.37C162.737 274.47 161.23 275.35 159.075 276.743M159.075 276.743C159.172 279.626 159.21 286.292 158.591 289.892C157.818 294.391 156.829 300.822 156.145 302.093C155.597 303.109 155.064 304.1 154.865 304.468M159.075 276.743C156.854 278.177 153.944 280.156 150.737 282.386M159.075 276.743C157.043 275.412 152.408 272.585 150.125 271.924C147.272 271.098 144.076 269.377 142.455 269.323C141.159 269.281 140.024 269.244 139.619 269.23M154.865 304.468C155.858 304.829 156.904 305.191 157.995 305.547C164.168 307.56 171.643 304.703 174.609 303.023L181.107 290.955L181.406 274.32L174.138 255.66L156.208 252.969L143.125 262.72C142.253 264.338 140.785 267.065 139.619 269.23M150.737 282.386C147.914 284.348 144.86 286.506 141.843 288.657M150.737 282.386C149.934 281.543 147.84 279.843 145.896 279.779C143.465 279.699 141.376 278.984 139.265 279.076C137.576 279.15 136.09 279.414 135.557 279.537M141.843 288.657C141.801 290.071 141.594 293.281 141.1 294.811C140.606 296.341 139.435 298.158 138.912 298.874M141.843 288.657C141.506 288.066 140.283 286.834 138.083 286.632C135.882 286.43 134.042 286.505 133.397 286.567M139.619 269.23C138.879 270.605 138.261 271.754 137.995 272.247C137.488 273.189 136.52 276.334 135.557 279.537M135.557 279.537C134.897 281.734 134.239 283.959 133.734 285.52C133.621 285.869 133.508 286.219 133.397 286.567" stroke="black"/>
<path d="M215.713 178.347C233.094 171.755 233.778 190.68 241.719 196.056L260.823 198.649C260.823 198.649 273.897 200.627 274.898 204.983C276.737 212.99 288.982 225.737 292.803 229.258C296.623 232.779 298.571 244.467 295.124 250.123C291.678 255.779 277.967 262.222 283.961 264.919C289.954 267.617 288.305 281.289 285.271 288.032C282.236 294.775 263.955 315.377 252.343 319.16C243.052 322.186 232.24 307.109 227.995 299.193C227.37 301.915 225.08 308.872 220.914 314.925C215.707 322.492 191.283 318.708 174.727 309.454C161.481 302.052 164.863 283.994 168.21 275.89C163.74 274.479 153.406 269.949 147.832 263.116C140.865 254.575 150.83 246.446 145.961 235.246C141.091 224.045 147.235 212.395 153.603 206.252C159.972 200.109 173.007 213.183 172.783 207.676C172.558 202.17 172.671 195.914 176.455 189.509C180.238 183.103 193.986 186.588 215.713 178.347Z" fill="#FED753" stroke="black"/>
<path d="M184.733 207.592C191.427 195.986 200.46 206.199 207.352 205.562L219.207 198.278C219.207 198.278 227.412 193.407 229.963 195.372C234.65 198.985 247.315 200.481 251.058 200.694C254.802 200.908 261.232 206.518 261.893 211.238C262.554 215.958 257.842 225.803 262.422 224.566C267.002 223.328 272.332 231.686 273.719 236.822C275.107 241.957 274.315 261.765 269.559 269.173C265.754 275.1 252.824 271.653 246.834 269.19C247.73 270.989 249.631 275.904 250.072 281.173C250.622 287.76 235.253 296.811 221.776 299.227C210.995 301.16 204.629 289.572 202.794 283.537C199.652 284.794 191.81 286.994 185.574 285.74C177.779 284.172 179.628 275.1 171.788 271.095C163.949 267.09 162.055 257.805 162.803 251.479C163.552 245.154 176.808 246.471 174.165 243.511C171.523 240.551 168.726 237.021 167.911 231.73C167.096 226.44 176.366 222.098 184.733 207.592Z" fill="#FED753" stroke="black"/>
<path d="M241.053 217.023C250.386 219.694 244.79 227.836 246.447 232.57L253.646 239.627C253.646 239.627 258.51 244.542 257.576 246.68C255.858 250.609 257.026 259.775 257.533 262.445C258.04 265.114 255.223 270.619 252.02 271.911C248.817 273.204 241.069 271.617 242.742 274.62C244.415 277.624 239.474 282.836 236.107 284.712C232.739 286.588 218.674 289.505 212.632 287.46C207.798 285.825 207.953 276.129 208.635 271.486C207.527 272.431 204.405 274.63 200.777 275.864C196.243 277.406 187.184 268.187 183.122 259.136C179.873 251.895 186.903 245.387 190.825 243.038C189.39 241.05 186.468 235.922 186.256 231.318C185.992 225.562 192.694 225.272 194.135 219.058C195.577 212.843 201.773 209.883 206.351 209.3C210.929 208.717 212.328 218.269 213.946 215.892C215.563 213.515 217.555 210.929 221.132 209.428C224.709 207.928 229.387 213.684 241.053 217.023Z" fill="#FED753" stroke="black"/>
<path d="M240.15 255.559C239.105 261.615 233.598 258.648 230.731 260.013L226.78 265.026C226.78 265.026 224.018 268.422 222.608 267.98C220.018 267.166 214.328 268.526 212.682 269.027C211.036 269.528 207.379 268.13 206.348 266.202C205.316 264.274 205.787 259.289 204.01 260.547C202.234 261.805 198.616 259.05 197.206 257.058C195.795 255.066 193.001 246.411 193.876 242.469C194.576 239.314 200.69 238.752 203.659 238.864C202.989 238.231 201.392 236.416 200.368 234.217C199.088 231.468 204.274 225.137 209.694 221.964C214.031 219.425 218.606 223.407 220.352 225.715C221.505 224.677 224.534 222.488 227.418 222.041C231.023 221.482 231.662 225.681 235.672 226.165C239.682 226.649 241.967 230.347 242.646 233.189C243.325 236.031 237.408 237.563 239.015 238.419C240.621 239.275 242.384 240.353 243.573 242.502C244.761 244.651 241.456 247.988 240.15 255.559Z" fill="#FED753" stroke="black"/>
<path d="M56.9925 101.267C64.5275 95.6223 76.1638 96.0808 81.0401 97.0157L95.7005 110.619L104.001 133.398L102.854 162.489L79.4705 174.536L56.8511 167.189L48.9423 159.85L45.2772 156.449C44.1329 155.387 41.3105 151.505 38.4672 147.54C36.5174 144.82 34.5578 142.061 33.1227 140.145C32.8014 139.716 32.4803 139.287 32.1621 138.859C29.6855 135.534 27.3809 132.37 26.4528 131.085L19.8942 124.999L25.0729 124.06C26.2399 123.849 29.9906 121.721 33.9103 119.337C36.9482 117.49 40.0875 115.489 42.204 114.109C43.6774 112.521 47.6405 108.67 53.1993 104.209C54.393 103.251 55.6604 102.265 56.9925 101.267Z" fill="#164014"/>
<path d="M42.204 114.109C43.6774 112.521 47.6405 108.67 53.1993 104.209M42.204 114.109C44.0044 115.78 47.9138 119.408 49.1484 120.553C50.6916 121.985 52.6762 125.262 54.6608 128.54C56.2485 131.162 57.545 134.975 57.9948 136.553M42.204 114.109C40.0875 115.489 36.9482 117.49 33.9103 119.337M19.8942 124.999C20.7574 124.843 23.0014 124.436 25.0729 124.06C26.2399 123.849 29.9906 121.721 33.9103 119.337M19.8942 124.999L26.4528 131.085C27.3809 132.37 29.6855 135.534 32.1621 138.859M19.8942 124.999C26.0428 126.933 34.3443 129.504 42.7871 132.051M81.9654 141.67L78.9903 141.782C78.2524 141.877 75.7623 141.365 72.1382 140.449M72.1382 140.449C70.9037 136.432 67.7951 127.229 65.237 122.558C62.0393 116.719 57.6286 108.319 56.0854 106.887C54.8509 105.741 53.6469 104.624 53.1993 104.209M72.1382 140.449C68.4028 139.506 63.4627 138.133 57.9948 136.553M72.1382 140.449C69.9747 143.228 64.9411 149.279 62.1147 151.252C58.5818 153.717 55.0019 157.575 52.7984 158.402C51.0356 159.064 49.4931 159.643 48.9423 159.85M53.1993 104.209C54.393 103.251 55.6604 102.265 56.9925 101.267C64.5275 95.6223 76.1638 96.0809 81.0401 97.0157L95.7005 110.619L104.001 133.398L102.854 162.489L79.4705 174.536L56.8511 167.189C54.885 165.364 51.5722 162.29 48.9423 159.85M57.9948 136.553C53.1807 135.162 47.9574 133.611 42.7871 132.051M57.9948 136.553C57.289 138.088 55.2164 141.405 52.5722 142.397C49.2669 143.638 46.7333 145.595 43.786 146.45C41.4281 147.134 39.2577 147.461 38.4672 147.54M42.7871 132.051C42.0591 130.123 40.252 125.796 38.8467 123.918C37.4415 122.039 34.9702 120.081 33.9103 119.337M42.7871 132.051C42.6044 133.022 41.5065 135.288 38.5758 136.59C35.6452 137.891 33.079 138.645 32.1621 138.859M48.9423 159.85C47.2717 158.3 45.8766 157.005 45.2772 156.449C44.1329 155.387 41.3105 151.505 38.4672 147.54M38.4672 147.54C36.5174 144.82 34.5578 142.061 33.1227 140.145C32.8014 139.716 32.4803 139.287 32.1621 138.859" stroke="black"/>
<path d="M104.251 52.8792C99.2813 59.5496 99.6906 69.7947 100.517 74.0834L112.509 86.9113L132.583 94.0818L158.214 92.8944L168.817 72.2273L162.334 52.3518L155.864 45.4315L152.866 42.2245C151.93 41.2232 148.508 38.7613 145.013 36.2815C142.616 34.581 140.184 32.8721 138.495 31.62C138.117 31.3396 137.738 31.0595 137.362 30.7819C134.431 28.6211 131.642 26.6109 130.509 25.8014L125.144 20.0626L124.32 24.629C124.134 25.6581 122.26 28.9743 120.162 32.4408C118.536 35.1275 116.775 37.9044 115.56 39.7768C114.161 41.0842 110.77 44.5979 106.842 49.5207C105.998 50.5778 105.13 51.7 104.251 52.8792Z" fill="#164014"/>
<path d="M115.56 39.7768C114.161 41.0842 110.77 44.5979 106.842 49.5207M115.56 39.7768C117.033 41.3522 120.23 44.7729 121.24 45.8532C122.503 47.2035 125.391 48.9313 128.28 50.6591C130.591 52.0413 133.951 53.1598 135.342 53.5463M115.56 39.7768C116.775 37.9044 118.536 35.1275 120.162 32.4408M125.144 20.0626C125.007 20.8237 124.649 22.8024 124.32 24.629C124.134 25.6581 122.26 28.9743 120.162 32.4408M125.144 20.0626L130.509 25.8014C131.642 26.6109 134.431 28.6211 137.362 30.7819M125.144 20.0626C126.851 25.4656 129.12 32.7609 131.368 40.1807M139.861 74.6254L139.958 72.0046C140.041 71.3541 139.589 69.1643 138.781 65.9782M138.781 65.9782C135.241 64.9155 127.131 62.2342 123.014 60.0098C117.868 57.2294 110.465 53.3964 109.202 52.046C108.193 50.9658 107.208 49.9124 106.842 49.5207M138.781 65.9782C137.948 62.6943 136.736 58.352 135.342 53.5463M138.781 65.9782C141.228 64.0559 146.558 59.5859 148.294 57.0847C150.465 53.9582 153.862 50.782 154.59 48.8364C155.173 47.2798 155.682 45.9179 155.864 45.4315M106.842 49.5207C105.998 50.5778 105.13 51.7 104.251 52.8792C99.2813 59.5496 99.6906 69.7947 100.517 74.0834L112.509 86.9113L132.583 94.0818L158.214 92.8944L168.817 72.2273L162.334 52.3518C160.725 50.6314 158.015 47.7327 155.864 45.4315M135.342 53.5463C134.114 49.315 132.745 44.7245 131.368 40.1807M135.342 53.5463C136.693 52.9153 139.615 51.0698 140.488 48.735C141.58 45.8165 143.303 43.5732 144.055 40.9723C144.657 38.8917 144.944 36.9782 145.013 36.2815M131.368 40.1807C129.669 39.5514 125.856 37.9863 124.2 36.7602C122.545 35.5341 120.818 33.3697 120.162 32.4408M131.368 40.1807C132.223 40.0139 134.22 39.0331 135.365 36.4442C136.51 33.8553 137.173 31.5906 137.362 30.7819M155.864 45.4315C154.498 43.9697 153.356 42.749 152.866 42.2245C151.93 41.2232 148.508 38.7613 145.013 36.2815M145.013 36.2815C142.616 34.581 140.184 32.8721 138.495 31.62C138.117 31.3396 137.738 31.0595 137.362 30.7819" stroke="black"/>
<path d="M235.065 175.011C235.955 198.812 212.698 191.897 202.921 199.339L191.955 221.472C191.955 221.472 184.202 236.535 178.504 235.967C168.03 234.924 147.543 244.574 141.704 247.771C135.866 250.969 120.879 248.55 115.422 242.051C109.965 235.552 107.754 216.269 102.026 222.442C96.2988 228.615 80.3734 221.017 73.429 214.574C66.4847 208.13 48.9532 177.503 49.1128 161.856C49.2404 149.338 71.9703 142.381 83.3193 140.466C80.27 138.594 72.7603 132.966 67.1157 125.431C60.0601 116.013 74.6502 87.9085 92.6605 71.5936C107.069 58.5418 127.609 70.0383 136.078 77.418C139.621 72.5683 149.35 61.8762 159.927 57.9055C173.148 52.9421 178.939 68.3667 194.53 67.0388C210.122 65.7108 221.752 77.9378 226.604 88.1838C231.456 98.4298 210.248 108.906 217.025 110.887C223.803 112.868 231.352 115.565 237.58 122.78C243.809 129.995 233.952 145.26 235.065 175.011Z" fill="#FED753" stroke="black"/>
<path d="M212.237 125.431C223.588 138.307 207.492 145.095 205.445 153.724L209.437 171.097C209.437 171.097 211.993 183.053 208.563 185.345C202.258 189.558 195.258 204.322 193.468 208.78C191.677 213.237 182.233 218.748 176.232 217.619C170.231 216.49 160.206 206.74 159.834 212.807C159.462 218.874 147.135 221.924 140.331 221.507C133.528 221.09 109.803 212.022 102.755 203.216C97.1173 196.171 106.593 181.883 112.036 175.619C109.485 175.97 102.739 176.267 96.1612 174.645C87.939 172.618 83.2404 150.254 85.8221 132.903C87.8875 119.023 104.561 116.036 112.64 116.278C112.4 111.949 112.938 101.527 117.013 94.4693C122.107 85.6466 132.364 91.6046 140.435 83.7257C148.506 75.8469 160.555 77.3471 167.928 80.8443C175.301 84.3416 168.277 99.8972 172.952 97.9002C177.627 95.9031 183.058 93.9524 189.815 95.1281C196.572 96.3038 198.049 109.336 212.237 125.431Z" fill="#FED753" stroke="black"/>
<path d="M177.738 189.949C170.676 200.187 163.081 190.061 156.655 190.135L145.14 195.988C145.14 195.988 137.183 199.882 134.97 197.872C130.902 194.178 119.295 191.846 115.847 191.368C112.398 190.891 106.868 185.218 106.609 180.801C106.351 176.384 111.448 167.626 107.117 168.428C102.786 169.23 98.4799 161.098 97.5802 156.242C96.6805 151.385 98.8954 133.115 103.851 126.615C107.815 121.416 119.523 125.573 124.881 128.301C124.187 126.569 122.796 121.878 122.782 116.969C122.765 110.833 137.665 103.607 150.317 102.38C160.438 101.398 165.462 112.597 166.709 118.32C169.71 117.392 177.131 115.942 182.808 117.57C189.904 119.604 187.514 127.86 194.469 132.153C201.424 136.446 202.482 145.18 201.316 150.977C200.15 156.775 187.982 154.564 190.205 157.501C192.429 160.437 194.753 163.914 195.112 168.871C195.47 173.827 186.566 177.151 177.738 189.949Z" fill="#FED753" stroke="black"/>
<path d="M131.321 173.082C124.395 169.334 130.252 163.863 129.767 159.824L125.298 152.975C125.298 152.975 122.305 148.231 123.419 146.701C125.467 143.889 126.144 136.424 126.21 134.221C126.275 132.018 129.469 128.15 132.232 127.686C134.995 127.223 140.855 129.834 140.055 127.163C139.255 124.491 144.08 121.227 147.076 120.329C150.071 119.432 161.723 119.581 166.151 122.258C169.694 124.399 167.876 132.051 166.523 135.61C167.566 135.055 170.424 133.86 173.513 133.516C177.374 133.088 182.938 141.974 184.573 149.854C185.88 156.158 179.173 160.083 175.656 161.258C176.445 163.084 177.863 167.657 177.225 171.341C176.429 175.946 171.069 175.004 168.84 179.675C166.612 184.345 161.187 185.606 157.458 185.267C153.73 184.928 154.292 177.118 152.595 178.718C150.898 180.318 148.868 182.018 145.773 182.581C142.677 183.144 139.978 177.767 131.321 173.082Z" fill="#FED753" stroke="black"/>
</svg>
